solid ascii
  facet normal 0.000000e+00 -1.000000e+00 0.000000e+00
    outer loop
      vertex   9.000000e-02 -6.000000e-01 -5.985360e-01
      vertex   8.934380e-02 -6.000000e-01 -5.876877e-01
      vertex   0.000000e+00 -6.000000e-01 -5.985360e-01
    endloop
  endfacet
  facet normal 0.000000e+00 -1.000000e+00 0.000000e+00
    outer loop
      vertex   8.415146e-02 -6.000000e-01 -6.304505e-01
      vertex   9.000000e-02 -6.000000e-01 -5.985360e-01
      vertex   0.000000e+00 -6.000000e-01 -5.985360e-01
    endloop
  endfacet
  facet normal 0.000000e+00 -1.000000e+00 0.000000e+00
    outer loop
      vertex   -2.153841e-02 -6.000000e-01 -6.859208e-01
      vertex   2.153841e-02 -6.000000e-01 -6.859208e-01
      vertex   0.000000e+00 -6.000000e-01 -5.985360e-01
    endloop
  endfacet
  facet normal 0.000000e+00 -1.000000e+00 0.000000e+00
    outer loop
      vertex   2.153841e-02 -6.000000e-01 -6.859208e-01
      vertex   5.968104e-02 -6.000000e-01 -6.659020e-01
      vertex   0.000000e+00 -6.000000e-01 -5.985360e-01
    endloop
  endfacet
  facet normal 0.000000e+00 -1.000000e+00 0.000000e+00
    outer loop
      vertex   5.968104e-02 -6.000000e-01 -6.659020e-01
      vertex   8.415146e-02 -6.000000e-01 -6.304505e-01
      vertex   0.000000e+00 -6.000000e-01 -5.985360e-01
    endloop
  endfacet
  facet normal 0.000000e+00 -1.000000e+00 0.000000e+00
    outer loop
      vertex   -8.934380e-02 -6.000000e-01 -5.876877e-01
      vertex   -8.415146e-02 -6.000000e-01 -6.304505e-01
      vertex   0.000000e+00 -6.000000e-01 -5.985360e-01
    endloop
  endfacet
  facet normal 0.000000e+00 -1.000000e+00 0.000000e+00
    outer loop
      vertex   -8.415146e-02 -6.000000e-01 -6.304505e-01
      vertex   -5.968104e-02 -6.000000e-01 -6.659020e-01
      vertex   0.000000e+00 -6.000000e-01 -5.985360e-01
    endloop
  endfacet
  facet normal 0.000000e+00 -1.000000e+00 0.000000e+00
    outer loop
      vertex   -5.968104e-02 -6.000000e-01 -6.659020e-01
      vertex   -2.153841e-02 -6.000000e-01 -6.859208e-01
      vertex   0.000000e+00 -6.000000e-01 -5.985360e-01
    endloop
  endfacet
  facet normal 0.000000e+00 -1.000000e+00 -0.000000e+00
    outer loop
      vertex   -2.204364e-17 -6.000000e-01 -5.085360e-01
      vertex   -4.182509e-02 -6.000000e-01 -5.188450e-01
      vertex   0.000000e+00 -6.000000e-01 -5.985360e-01
    endloop
  endfacet
  facet normal 0.000000e+00 -1.000000e+00 -0.000000e+00
    outer loop
      vertex   -4.182509e-02 -6.000000e-01 -5.188450e-01
      vertex   -7.406855e-02 -6.000000e-01 -5.474102e-01
      vertex   0.000000e+00 -6.000000e-01 -5.985360e-01
    endloop
  endfacet
  facet normal 0.000000e+00 -1.000000e+00 -0.000000e+00
    outer loop
      vertex   -7.406855e-02 -6.000000e-01 -5.474102e-01
      vertex   -8.934380e-02 -6.000000e-01 -5.876877e-01
      vertex   0.000000e+00 -6.000000e-01 -5.985360e-01
    endloop
  endfacet
  facet normal 0.000000e+00 -1.000000e+00 0.000000e+00
    outer loop
      vertex   0.000000e+00 -6.000000e-01 -5.985360e-01
      vertex   8.934380e-02 -6.000000e-01 -5.876877e-01
      vertex   7.406855e-02 -6.000000e-01 -5.474102e-01
    endloop
  endfacet
  facet normal -0.000000e+00 -1.000000e+00 0.000000e+00
    outer loop
      vertex   7.406855e-02 -6.000000e-01 -5.474102e-01
      vertex   4.182509e-02 -6.000000e-01 -5.188450e-01
      vertex   0.000000e+00 -6.000000e-01 -5.985360e-01
    endloop
  endfacet
  facet normal -0.000000e+00 -1.000000e+00 0.000000e+00
    outer loop
      vertex   4.182509e-02 -6.000000e-01 -5.188450e-01
      vertex   -2.204364e-17 -6.000000e-01 -5.085360e-01
      vertex   0.000000e+00 -6.000000e-01 -5.985360e-01
    endloop
  endfacet
  facet normal 9.981756e-01 0.000000e+00 6.037850e-02
    outer loop
      vertex   8.934380e-02 -6.000000e-01 -5.876877e-01
      vertex   9.000000e-02 -6.000000e-01 -5.985360e-01
      vertex   9.000000e-02 -1.365924e-16 -5.985360e-01
    endloop
  endfacet
  facet normal 9.836199e-01 0.000000e+00 -1.802550e-01
    outer loop
      vertex   8.415146e-02 -1.365924e-16 -6.304505e-01
      vertex   9.000000e-02 -1.365924e-16 -5.985360e-01
      vertex   9.000000e-02 -6.000000e-01 -5.985360e-01
    endloop
  endfacet
  facet normal 9.836199e-01 0.000000e+00 -1.802550e-01
    outer loop
      vertex   9.000000e-02 -6.000000e-01 -5.985360e-01
      vertex   8.415146e-02 -6.000000e-01 -6.304505e-01
      vertex   8.415146e-02 -1.365924e-16 -6.304505e-01
    endloop
  endfacet
  facet normal 8.229839e-01 0.000000e+00 -5.680647e-01
    outer loop
      vertex   8.415146e-02 -1.365924e-16 -6.304505e-01
      vertex   8.415146e-02 -6.000000e-01 -6.304505e-01
      vertex   5.968104e-02 -6.000000e-01 -6.659020e-01
    endloop
  endfacet
  facet normal 8.229839e-01 0.000000e+00 -5.680647e-01
    outer loop
      vertex   5.968104e-02 -6.000000e-01 -6.659020e-01
      vertex   5.968104e-02 -1.365924e-16 -6.659020e-01
      vertex   8.415146e-02 -1.365924e-16 -6.304505e-01
    endloop
  endfacet
  facet normal 4.647232e-01 0.000000e+00 -8.854560e-01
    outer loop
      vertex   5.968104e-02 -1.365924e-16 -6.659020e-01
      vertex   5.968104e-02 -6.000000e-01 -6.659020e-01
      vertex   2.153841e-02 -6.000000e-01 -6.859208e-01
    endloop
  endfacet
  facet normal 4.647232e-01 0.000000e+00 -8.854560e-01
    outer loop
      vertex   2.153841e-02 -6.000000e-01 -6.859208e-01
      vertex   2.153841e-02 -1.365924e-16 -6.859208e-01
      vertex   5.968104e-02 -1.365924e-16 -6.659020e-01
    endloop
  endfacet
  facet normal 3.170903e-15 0.000000e+00 -1.000000e+00
    outer loop
      vertex   2.153841e-02 -1.365924e-16 -6.859208e-01
      vertex   2.153841e-02 -6.000000e-01 -6.859208e-01
      vertex   -2.153841e-02 -6.000000e-01 -6.859208e-01
    endloop
  endfacet
  facet normal 3.170903e-15 0.000000e+00 -1.000000e+00
    outer loop
      vertex   -2.153841e-02 -6.000000e-01 -6.859208e-01
      vertex   -2.153841e-02 -1.365924e-16 -6.859208e-01
      vertex   2.153841e-02 -1.365924e-16 -6.859208e-01
    endloop
  endfacet
  facet normal -4.647232e-01 -0.000000e+00 -8.854560e-01
    outer loop
      vertex   -2.153841e-02 -1.365924e-16 -6.859208e-01
      vertex   -2.153841e-02 -6.000000e-01 -6.859208e-01
      vertex   -5.968104e-02 -6.000000e-01 -6.659020e-01
    endloop
  endfacet
  facet normal -4.647232e-01 0.000000e+00 -8.854560e-01
    outer loop
      vertex   -5.968104e-02 -6.000000e-01 -6.659020e-01
      vertex   -5.968104e-02 -1.365924e-16 -6.659020e-01
      vertex   -2.153841e-02 -1.365924e-16 -6.859208e-01
    endloop
  endfacet
  facet normal -8.229839e-01 -0.000000e+00 -5.680647e-01
    outer loop
      vertex   -5.968104e-02 -1.365924e-16 -6.659020e-01
      vertex   -5.968104e-02 -6.000000e-01 -6.659020e-01
      vertex   -8.415146e-02 -6.000000e-01 -6.304505e-01
    endloop
  endfacet
  facet normal -8.229839e-01 0.000000e+00 -5.680647e-01
    outer loop
      vertex   -8.415146e-02 -6.000000e-01 -6.304505e-01
      vertex   -8.415146e-02 -1.365924e-16 -6.304505e-01
      vertex   -5.968104e-02 -1.365924e-16 -6.659020e-01
    endloop
  endfacet
  facet normal -9.927089e-01 -0.000000e+00 -1.205367e-01
    outer loop
      vertex   -8.415146e-02 -1.365924e-16 -6.304505e-01
      vertex   -8.415146e-02 -6.000000e-01 -6.304505e-01
      vertex   -8.934380e-02 -6.000000e-01 -5.876877e-01
    endloop
  endfacet
  facet normal -9.927089e-01 0.000000e+00 -1.205367e-01
    outer loop
      vertex   -8.934380e-02 -6.000000e-01 -5.876877e-01
      vertex   -8.934380e-02 -1.365924e-16 -5.876877e-01
      vertex   -8.415146e-02 -1.365924e-16 -6.304505e-01
    endloop
  endfacet
  facet normal -9.350162e-01 0.000000e+00 3.546049e-01
    outer loop
      vertex   -8.934380e-02 -1.365924e-16 -5.876877e-01
      vertex   -8.934380e-02 -6.000000e-01 -5.876877e-01
      vertex   -7.406855e-02 -6.000000e-01 -5.474102e-01
    endloop
  endfacet
  facet normal -9.350162e-01 0.000000e+00 3.546049e-01
    outer loop
      vertex   -7.406855e-02 -6.000000e-01 -5.474102e-01
      vertex   -7.406855e-02 -1.365924e-16 -5.474102e-01
      vertex   -8.934380e-02 -1.365924e-16 -5.876877e-01
    endloop
  endfacet
  facet normal -6.631227e-01 0.000000e+00 7.485107e-01
    outer loop
      vertex   -7.406855e-02 -1.365924e-16 -5.474102e-01
      vertex   -7.406855e-02 -6.000000e-01 -5.474102e-01
      vertex   -4.182509e-02 -6.000000e-01 -5.188450e-01
    endloop
  endfacet
  facet normal -6.631227e-01 0.000000e+00 7.485107e-01
    outer loop
      vertex   -4.182509e-02 -6.000000e-01 -5.188450e-01
      vertex   -4.182509e-02 -1.365924e-16 -5.188450e-01
      vertex   -7.406855e-02 -1.365924e-16 -5.474102e-01
    endloop
  endfacet
  facet normal -2.393157e-01 0.000000e+00 9.709418e-01
    outer loop
      vertex   -4.182509e-02 -1.365924e-16 -5.188450e-01
      vertex   -4.182509e-02 -6.000000e-01 -5.188450e-01
      vertex   -2.204364e-17 -6.000000e-01 -5.085360e-01
    endloop
  endfacet
  facet normal -2.393157e-01 0.000000e+00 9.709418e-01
    outer loop
      vertex   -2.204364e-17 -6.000000e-01 -5.085360e-01
      vertex   -2.204364e-17 -1.365924e-16 -5.085360e-01
      vertex   -4.182509e-02 -1.365924e-16 -5.188450e-01
    endloop
  endfacet
  facet normal 2.393157e-01 0.000000e+00 9.709418e-01
    outer loop
      vertex   -2.204364e-17 -1.365924e-16 -5.085360e-01
      vertex   -2.204364e-17 -6.000000e-01 -5.085360e-01
      vertex   4.182509e-02 -6.000000e-01 -5.188450e-01
    endloop
  endfacet
  facet normal 2.393157e-01 -0.000000e+00 9.709418e-01
    outer loop
      vertex   4.182509e-02 -6.000000e-01 -5.188450e-01
      vertex   4.182509e-02 -1.365924e-16 -5.188450e-01
      vertex   -2.204364e-17 -1.365924e-16 -5.085360e-01
    endloop
  endfacet
  facet normal 6.631227e-01 0.000000e+00 7.485107e-01
    outer loop
      vertex   4.182509e-02 -1.365924e-16 -5.188450e-01
      vertex   4.182509e-02 -6.000000e-01 -5.188450e-01
      vertex   7.406855e-02 -6.000000e-01 -5.474102e-01
    endloop
  endfacet
  facet normal 6.631227e-01 -0.000000e+00 7.485107e-01
    outer loop
      vertex   7.406855e-02 -6.000000e-01 -5.474102e-01
      vertex   7.406855e-02 -1.365924e-16 -5.474102e-01
      vertex   4.182509e-02 -1.365924e-16 -5.188450e-01
    endloop
  endfacet
  facet normal 9.350162e-01 0.000000e+00 3.546049e-01
    outer loop
      vertex   7.406855e-02 -1.365924e-16 -5.474102e-01
      vertex   7.406855e-02 -6.000000e-01 -5.474102e-01
      vertex   8.934380e-02 -6.000000e-01 -5.876877e-01
    endloop
  endfacet
  facet normal 9.350162e-01 -0.000000e+00 3.546049e-01
    outer loop
      vertex   8.934380e-02 -6.000000e-01 -5.876877e-01
      vertex   8.934380e-02 -1.365924e-16 -5.876877e-01
      vertex   7.406855e-02 -1.365924e-16 -5.474102e-01
    endloop
  endfacet
  facet normal 9.981756e-01 0.000000e+00 6.037850e-02
    outer loop
      vertex   9.000000e-02 -1.365924e-16 -5.985360e-01
      vertex   8.934380e-02 -1.365924e-16 -5.876877e-01
      vertex   8.934380e-02 -6.000000e-01 -5.876877e-01
    endloop
  endfacet
  facet normal 1.517693e-15 1.000000e+00 -2.781276e-16
    outer loop
      vertex   9.000000e-02 -1.365924e-16 -5.985360e-01
      vertex   8.415146e-02 -1.365924e-16 -6.304505e-01
      vertex   0.000000e+00 0.000000e+00 -5.985360e-01
    endloop
  endfacet
  facet normal 1.517693e-15 1.000000e+00 9.180353e-17
    outer loop
      vertex   8.934380e-02 -1.365924e-16 -5.876877e-01
      vertex   9.000000e-02 -1.365924e-16 -5.985360e-01
      vertex   0.000000e+00 0.000000e+00 -5.985360e-01
    endloop
  endfacet
  facet normal 3.740778e-16 1.000000e+00 1.517693e-15
    outer loop
      vertex   -2.204364e-17 -1.365924e-16 -5.085360e-01
      vertex   4.182509e-02 -1.365924e-16 -5.188450e-01
      vertex   0.000000e+00 0.000000e+00 -5.985360e-01
    endloop
  endfacet
  facet normal 1.036537e-15 1.000000e+00 1.170008e-15
    outer loop
      vertex   4.182509e-02 -1.365924e-16 -5.188450e-01
      vertex   7.406855e-02 -1.365924e-16 -5.474102e-01
      vertex   0.000000e+00 0.000000e+00 -5.985360e-01
    endloop
  endfacet
  facet normal 1.461538e-15 1.000000e+00 5.542881e-16
    outer loop
      vertex   7.406855e-02 -1.365924e-16 -5.474102e-01
      vertex   8.934380e-02 -1.365924e-16 -5.876877e-01
      vertex   0.000000e+00 0.000000e+00 -5.985360e-01
    endloop
  endfacet
  facet normal -1.461538e-15 1.000000e+00 5.542881e-16
    outer loop
      vertex   -8.934380e-02 -1.365924e-16 -5.876877e-01
      vertex   -7.406855e-02 -1.365924e-16 -5.474102e-01
      vertex   0.000000e+00 0.000000e+00 -5.985360e-01
    endloop
  endfacet
  facet normal -1.036537e-15 1.000000e+00 1.170008e-15
    outer loop
      vertex   -7.406855e-02 -1.365924e-16 -5.474102e-01
      vertex   -4.182509e-02 -1.365924e-16 -5.188450e-01
      vertex   0.000000e+00 0.000000e+00 -5.985360e-01
    endloop
  endfacet
  facet normal -3.740778e-16 1.000000e+00 1.517693e-15
    outer loop
      vertex   -4.182509e-02 -1.365924e-16 -5.188450e-01
      vertex   -2.204364e-17 -1.365924e-16 -5.085360e-01
      vertex   0.000000e+00 0.000000e+00 -5.985360e-01
    endloop
  endfacet
  facet normal -7.264156e-16 1.000000e+00 -1.384069e-15
    outer loop
      vertex   -2.153841e-02 -1.365924e-16 -6.859208e-01
      vertex   -5.968104e-02 -1.365924e-16 -6.659020e-01
      vertex   0.000000e+00 0.000000e+00 -5.985360e-01
    endloop
  endfacet
  facet normal -1.286418e-15 1.000000e+00 -8.879503e-16
    outer loop
      vertex   -5.968104e-02 -1.365924e-16 -6.659020e-01
      vertex   -8.415146e-02 -1.365924e-16 -6.304505e-01
      vertex   0.000000e+00 0.000000e+00 -5.985360e-01
    endloop
  endfacet
  facet normal -1.551718e-15 1.000000e+00 -1.884126e-16
    outer loop
      vertex   -8.415146e-02 -1.365924e-16 -6.304505e-01
      vertex   -8.934380e-02 -1.365924e-16 -5.876877e-01
      vertex   0.000000e+00 0.000000e+00 -5.985360e-01
    endloop
  endfacet
  facet normal 1.286418e-15 1.000000e+00 -8.879503e-16
    outer loop
      vertex   0.000000e+00 0.000000e+00 -5.985360e-01
      vertex   8.415146e-02 -1.365924e-16 -6.304505e-01
      vertex   5.968104e-02 -1.365924e-16 -6.659020e-01
    endloop
  endfacet
  facet normal 7.264156e-16 1.000000e+00 -1.384069e-15
    outer loop
      vertex   5.968104e-02 -1.365924e-16 -6.659020e-01
      vertex   2.153841e-02 -1.365924e-16 -6.859208e-01
      vertex   0.000000e+00 0.000000e+00 -5.985360e-01
    endloop
  endfacet
  facet normal 4.956484e-30 1.000000e+00 -1.563115e-15
    outer loop
      vertex   2.153841e-02 -1.365924e-16 -6.859208e-01
      vertex   -2.153841e-02 -1.365924e-16 -6.859208e-01
      vertex   0.000000e+00 0.000000e+00 -5.985360e-01
    endloop
  endfacet
endsolid
