solid ascii
  facet normal 1.053627e-14 0.000000e+00 1.000000e+00
    outer loop
      vertex   -9.037121e-01 9.500000e-01 1.092739e-15
      vertex   -9.037121e-01 -9.500000e-01 1.092739e-15
      vertex   -8.000000e-01 -9.500000e-01 0.000000e+00
    endloop
  endfacet
  facet normal 1.053627e-14 -7.574605e-31 1.000000e+00
    outer loop
      vertex   -8.000000e-01 -9.500000e-01 0.000000e+00
      vertex   -8.000000e-01 9.500000e-01 0.000000e+00
      vertex   -9.037121e-01 9.500000e-01 1.092739e-15
    endloop
  endfacet
  facet normal -1.000000e+00 0.000000e+00 0.000000e+00
    outer loop
      vertex   -8.000000e-01 -9.500000e-01 0.000000e+00
      vertex   -8.000000e-01 -9.500000e-01 2.000000e-01
      vertex   -8.000000e-01 9.500000e-01 2.000000e-01
    endloop
  endfacet
  facet normal -1.000000e+00 7.189074e-17 -6.829620e-16
    outer loop
      vertex   -8.000000e-01 9.500000e-01 2.000000e-01
      vertex   -8.000000e-01 9.500000e-01 0.000000e+00
      vertex   -8.000000e-01 -9.500000e-01 0.000000e+00
    endloop
  endfacet
  facet normal 0.000000e+00 0.000000e+00 1.000000e+00
    outer loop
      vertex   -8.000000e-01 -9.500000e-01 2.000000e-01
      vertex   8.000000e-01 -9.500000e-01 2.000000e-01
      vertex   8.000000e-01 9.500000e-01 2.000000e-01
    endloop
  endfacet
  facet normal 0.000000e+00 0.000000e+00 1.000000e+00
    outer loop
      vertex   8.000000e-01 9.500000e-01 2.000000e-01
      vertex   -8.000000e-01 9.500000e-01 2.000000e-01
      vertex   -8.000000e-01 -9.500000e-01 2.000000e-01
    endloop
  endfacet
  facet normal 1.000000e+00 0.000000e+00 -0.000000e+00
    outer loop
      vertex   8.000000e-01 9.500000e-01 0.000000e+00
      vertex   8.000000e-01 9.500000e-01 2.000000e-01
      vertex   8.000000e-01 -9.500000e-01 2.000000e-01
    endloop
  endfacet
  facet normal 1.000000e+00 -7.189074e-17 -6.829620e-16
    outer loop
      vertex   8.000000e-01 -9.500000e-01 2.000000e-01
      vertex   8.000000e-01 -9.500000e-01 0.000000e+00
      vertex   8.000000e-01 9.500000e-01 0.000000e+00
    endloop
  endfacet
  facet normal 0.000000e+00 0.000000e+00 1.000000e+00
    outer loop
      vertex   8.000000e-01 -9.500000e-01 0.000000e+00
      vertex   1.000000e+00 -9.500000e-01 0.000000e+00
      vertex   1.000000e+00 9.500000e-01 0.000000e+00
    endloop
  endfacet
  facet normal 0.000000e+00 0.000000e+00 1.000000e+00
    outer loop
      vertex   1.000000e+00 9.500000e-01 0.000000e+00
      vertex   8.000000e-01 9.500000e-01 0.000000e+00
      vertex   8.000000e-01 -9.500000e-01 0.000000e+00
    endloop
  endfacet
  facet normal 1.000000e+00 1.437815e-16 -3.931533e-15
    outer loop
      vertex   1.000000e+00 -9.500000e-01 -6.948557e-02
      vertex   1.000000e+00 9.500000e-01 -6.948557e-02
      vertex   1.000000e+00 9.500000e-01 0.000000e+00
    endloop
  endfacet
  facet normal 1.000000e+00 0.000000e+00 0.000000e+00
    outer loop
      vertex   1.000000e+00 9.500000e-01 0.000000e+00
      vertex   1.000000e+00 -9.500000e-01 0.000000e+00
      vertex   1.000000e+00 -9.500000e-01 -6.948557e-02
    endloop
  endfacet
  facet normal 0.000000e+00 -1.000000e+00 0.000000e+00
    outer loop
      vertex   8.696338e-01 -9.500000e-01 -1.500000e-01
      vertex   1.000000e+00 -9.500000e-01 -6.948557e-02
      vertex   1.000000e+00 -9.500000e-01 0.000000e+00
    endloop
  endfacet
  facet normal -0.000000e+00 -1.000000e+00 0.000000e+00
    outer loop
      vertex   1.000000e+00 -9.500000e-01 0.000000e+00
      vertex   8.000000e-01 -9.500000e-01 0.000000e+00
      vertex   8.696338e-01 -9.500000e-01 -1.500000e-01
    endloop
  endfacet
  facet normal 0.000000e+00 -1.000000e+00 -0.000000e+00
    outer loop
      vertex   8.000000e-01 -9.500000e-01 0.000000e+00
      vertex   -6.735714e-02 -9.500000e-01 -1.500000e-01
      vertex   8.696338e-01 -9.500000e-01 -1.500000e-01
    endloop
  endfacet
  facet normal 0.000000e+00 -1.000000e+00 0.000000e+00
    outer loop
      vertex   -6.735714e-02 -9.500000e-01 -1.500000e-01
      vertex   8.000000e-01 -9.500000e-01 0.000000e+00
      vertex   8.000000e-01 -9.500000e-01 2.000000e-01
    endloop
  endfacet
  facet normal -0.000000e+00 -1.000000e+00 0.000000e+00
    outer loop
      vertex   8.000000e-01 -9.500000e-01 2.000000e-01
      vertex   -8.000000e-01 -9.500000e-01 2.000000e-01
      vertex   -6.735714e-02 -9.500000e-01 -1.500000e-01
    endloop
  endfacet
  facet normal 0.000000e+00 -1.000000e+00 0.000000e+00
    outer loop
      vertex   -6.795596e-01 -9.500000e-01 -1.500000e-01
      vertex   -6.735714e-02 -9.500000e-01 -1.500000e-01
      vertex   -8.000000e-01 -9.500000e-01 2.000000e-01
    endloop
  endfacet
  facet normal 0.000000e+00 -1.000000e+00 0.000000e+00
    outer loop
      vertex   -8.000000e-01 -9.500000e-01 2.000000e-01
      vertex   -8.000000e-01 -9.500000e-01 0.000000e+00
      vertex   -6.795596e-01 -9.500000e-01 -1.500000e-01
    endloop
  endfacet
  facet normal -0.000000e+00 -1.000000e+00 -0.000000e+00
    outer loop
      vertex   -8.000000e-01 -9.500000e-01 0.000000e+00
      vertex   -9.037121e-01 -9.500000e-01 1.092739e-15
      vertex   -6.795596e-01 -9.500000e-01 -1.500000e-01
    endloop
  endfacet
  facet normal -0.000000e+00 1.000000e+00 0.000000e+00
    outer loop
      vertex   8.000000e-01 9.500000e-01 0.000000e+00
      vertex   1.000000e+00 9.500000e-01 0.000000e+00
      vertex   1.000000e+00 9.500000e-01 -6.948557e-02
    endloop
  endfacet
  facet normal 0.000000e+00 1.000000e+00 0.000000e+00
    outer loop
      vertex   -6.795596e-01 9.500000e-01 -1.500000e-01
      vertex   -9.037121e-01 9.500000e-01 1.092739e-15
      vertex   -8.000000e-01 9.500000e-01 0.000000e+00
    endloop
  endfacet
  facet normal 0.000000e+00 1.000000e+00 0.000000e+00
    outer loop
      vertex   -6.735714e-02 9.500000e-01 -1.500000e-01
      vertex   -6.795596e-01 9.500000e-01 -1.500000e-01
      vertex   -8.000000e-01 9.500000e-01 0.000000e+00
    endloop
  endfacet
  facet normal -0.000000e+00 1.000000e+00 0.000000e+00
    outer loop
      vertex   -8.000000e-01 9.500000e-01 2.000000e-01
      vertex   8.000000e-01 9.500000e-01 2.000000e-01
      vertex   8.000000e-01 9.500000e-01 0.000000e+00
    endloop
  endfacet
  facet normal -0.000000e+00 1.000000e+00 -0.000000e+00
    outer loop
      vertex   -8.000000e-01 9.500000e-01 0.000000e+00
      vertex   -8.000000e-01 9.500000e-01 2.000000e-01
      vertex   -6.735714e-02 9.500000e-01 -1.500000e-01
    endloop
  endfacet
  facet normal 0.000000e+00 1.000000e+00 0.000000e+00
    outer loop
      vertex   8.000000e-01 9.500000e-01 0.000000e+00
      vertex   -6.735714e-02 9.500000e-01 -1.500000e-01
      vertex   -8.000000e-01 9.500000e-01 2.000000e-01
    endloop
  endfacet
  facet normal 0.000000e+00 1.000000e+00 0.000000e+00
    outer loop
      vertex   8.696338e-01 9.500000e-01 -1.500000e-01
      vertex   -6.735714e-02 9.500000e-01 -1.500000e-01
      vertex   8.000000e-01 9.500000e-01 0.000000e+00
    endloop
  endfacet
  facet normal 0.000000e+00 1.000000e+00 0.000000e+00
    outer loop
      vertex   1.000000e+00 9.500000e-01 -6.948557e-02
      vertex   8.696338e-01 9.500000e-01 -1.500000e-01
      vertex   8.000000e-01 9.500000e-01 0.000000e+00
    endloop
  endfacet
  facet normal 5.254651e-01 0.000000e+00 -8.508152e-01
    outer loop
      vertex   1.000000e+00 -9.500000e-01 -6.948557e-02
      vertex   8.696338e-01 -9.500000e-01 -1.500000e-01
      vertex   8.696338e-01 -7.905850e-01 -1.500000e-01
    endloop
  endfacet
  facet normal 5.254651e-01 0.000000e+00 -8.508152e-01
    outer loop
      vertex   1.000000e+00 -9.500000e-01 -6.948557e-02
      vertex   8.696338e-01 -7.905850e-01 -1.500000e-01
      vertex   8.696338e-01 -4.715612e-01 -1.500000e-01
    endloop
  endfacet
  facet normal 5.254651e-01 0.000000e+00 -8.508152e-01
    outer loop
      vertex   1.000000e+00 -9.500000e-01 -6.948557e-02
      vertex   8.696338e-01 -4.715612e-01 -1.500000e-01
      vertex   8.696338e-01 -3.338912e-01 -1.500000e-01
    endloop
  endfacet
  facet normal 5.254651e-01 6.973412e-17 -8.508152e-01
    outer loop
      vertex   1.000000e+00 -9.500000e-01 -6.948557e-02
      vertex   8.696338e-01 -3.338912e-01 -1.500000e-01
      vertex   8.696338e-01 -1.700306e-01 -1.500000e-01
    endloop
  endfacet
  facet normal 5.254651e-01 -5.175678e-17 -8.508152e-01
    outer loop
      vertex   1.000000e+00 -9.500000e-01 -6.948557e-02
      vertex   8.696338e-01 -1.700306e-01 -1.500000e-01
      vertex   8.696338e-01 -3.278912e-03 -1.500000e-01
    endloop
  endfacet
  facet normal 5.254651e-01 9.084358e-17 -8.508152e-01
    outer loop
      vertex   1.000000e+00 9.500000e-01 -6.948557e-02
      vertex   1.000000e+00 -9.500000e-01 -6.948557e-02
      vertex   8.696338e-01 -3.278912e-03 -1.500000e-01
    endloop
  endfacet
  facet normal 5.254651e-01 0.000000e+00 -8.508152e-01
    outer loop
      vertex   8.696338e-01 -3.278912e-03 -1.500000e-01
      vertex   8.696338e-01 2.411088e-01 -1.500000e-01
      vertex   1.000000e+00 9.500000e-01 -6.948557e-02
    endloop
  endfacet
  facet normal 5.254651e-01 0.000000e+00 -8.508152e-01
    outer loop
      vertex   8.696338e-01 2.411088e-01 -1.500000e-01
      vertex   8.696338e-01 9.500000e-01 -1.500000e-01
      vertex   1.000000e+00 9.500000e-01 -6.948557e-02
    endloop
  endfacet
  facet normal -5.561495e-01 0.000000e+00 -8.310822e-01
    outer loop
      vertex   -9.037121e-01 9.500000e-01 1.092739e-15
      vertex   -6.795596e-01 9.500000e-01 -1.500000e-01
      vertex   -6.795596e-01 2.411088e-01 -1.500000e-01
    endloop
  endfacet
  facet normal -5.561495e-01 0.000000e+00 -8.310822e-01
    outer loop
      vertex   -9.037121e-01 9.500000e-01 1.092739e-15
      vertex   -6.795596e-01 2.411088e-01 -1.500000e-01
      vertex   -6.795596e-01 -3.278912e-03 -1.500000e-01
    endloop
  endfacet
  facet normal -5.561495e-01 -1.320524e-17 -8.310822e-01
    outer loop
      vertex   -6.795596e-01 -3.278912e-03 -1.500000e-01
      vertex   -9.037121e-01 -9.500000e-01 1.092739e-15
      vertex   -9.037121e-01 9.500000e-01 1.092739e-15
    endloop
  endfacet
  facet normal -5.561495e-01 0.000000e+00 -8.310822e-01
    outer loop
      vertex   -9.037121e-01 -9.500000e-01 1.092739e-15
      vertex   -6.795596e-01 -3.278912e-03 -1.500000e-01
      vertex   -6.795596e-01 -1.700306e-01 -1.500000e-01
    endloop
  endfacet
  facet normal -5.561495e-01 0.000000e+00 -8.310822e-01
    outer loop
      vertex   -9.037121e-01 -9.500000e-01 1.092739e-15
      vertex   -6.795596e-01 -1.700306e-01 -1.500000e-01
      vertex   -6.795596e-01 -3.338912e-01 -1.500000e-01
    endloop
  endfacet
  facet normal -5.561495e-01 -1.380579e-16 -8.310822e-01
    outer loop
      vertex   -9.037121e-01 -9.500000e-01 1.092739e-15
      vertex   -6.795596e-01 -3.338912e-01 -1.500000e-01
      vertex   -6.795596e-01 -4.715612e-01 -1.500000e-01
    endloop
  endfacet
  facet normal -5.561495e-01 -0.000000e+00 -8.310822e-01
    outer loop
      vertex   -6.795596e-01 -4.715612e-01 -1.500000e-01
      vertex   -6.795596e-01 -7.905850e-01 -1.500000e-01
      vertex   -9.037121e-01 -9.500000e-01 1.092739e-15
    endloop
  endfacet
  facet normal -5.561495e-01 -2.670378e-16 -8.310822e-01
    outer loop
      vertex   -6.795596e-01 -7.905850e-01 -1.500000e-01
      vertex   -6.795596e-01 -9.500000e-01 -1.500000e-01
      vertex   -9.037121e-01 -9.500000e-01 1.092739e-15
    endloop
  endfacet
  facet normal 0.000000e+00 -0.000000e+00 -1.000000e+00
    outer loop
      vertex   -6.735714e-02 -3.278912e-03 -1.500000e-01
      vertex   -6.735714e-02 -2.164626e-02 -1.500000e-01
      vertex   -1.370000e-01 -2.164626e-02 -1.500000e-01
    endloop
  endfacet
  facet normal 9.440834e-17 0.000000e+00 -1.000000e+00
    outer loop
      vertex   -1.370000e-01 -2.164626e-02 -1.500000e-01
      vertex   -1.370000e-01 -5.072789e-02 -1.500000e-01
      vertex   -6.795596e-01 -1.700306e-01 -1.500000e-01
    endloop
  endfacet
  facet normal 9.440834e-17 0.000000e+00 -1.000000e+00
    outer loop
      vertex   -6.795596e-01 -1.700306e-01 -1.500000e-01
      vertex   -6.795596e-01 -3.278912e-03 -1.500000e-01
      vertex   -1.370000e-01 -2.164626e-02 -1.500000e-01
    endloop
  endfacet
  facet normal 8.366865e-17 -3.172436e-16 -1.000000e+00
    outer loop
      vertex   -1.370000e-01 -2.164626e-02 -1.500000e-01
      vertex   -6.795596e-01 -3.278912e-03 -1.500000e-01
      vertex   -6.735714e-02 -3.278912e-03 -1.500000e-01
    endloop
  endfacet
  facet normal 0.000000e+00 0.000000e+00 -1.000000e+00
    outer loop
      vertex   -6.735714e-02 -1.700306e-01 -1.500000e-01
      vertex   -6.735714e-02 -5.072789e-02 -1.500000e-01
      vertex   8.646939e-02 -5.072789e-02 -1.500000e-01
    endloop
  endfacet
  facet normal 0.000000e+00 -0.000000e+00 -1.000000e+00
    outer loop
      vertex   8.646939e-02 -5.072789e-02 -1.500000e-01
      vertex   8.646939e-02 -1.508980e-01 -1.500000e-01
      vertex   -6.735714e-02 -1.700306e-01 -1.500000e-01
    endloop
  endfacet
  facet normal 0.000000e+00 0.000000e+00 -1.000000e+00
    outer loop
      vertex   -6.735714e-02 -1.700306e-01 -1.500000e-01
      vertex   8.646939e-02 -1.508980e-01 -1.500000e-01
      vertex   1.130000e-01 -1.508980e-01 -1.500000e-01
    endloop
  endfacet
  facet normal 0.000000e+00 -0.000000e+00 -1.000000e+00
    outer loop
      vertex   -6.735714e-02 -1.700306e-01 -1.500000e-01
      vertex   -6.735714e-02 -1.891633e-01 -1.500000e-01
      vertex   -1.370000e-01 -1.891633e-01 -1.500000e-01
    endloop
  endfacet
  facet normal 9.440834e-17 0.000000e+00 -1.000000e+00
    outer loop
      vertex   -1.370000e-01 -1.891633e-01 -1.500000e-01
      vertex   -1.370000e-01 -2.184150e-01 -1.500000e-01
      vertex   -6.795596e-01 -3.338912e-01 -1.500000e-01
    endloop
  endfacet
  facet normal 9.440834e-17 0.000000e+00 -1.000000e+00
    outer loop
      vertex   -6.795596e-01 -3.338912e-01 -1.500000e-01
      vertex   -6.795596e-01 -1.700306e-01 -1.500000e-01
      vertex   -1.370000e-01 -1.891633e-01 -1.500000e-01
    endloop
  endfacet
  facet normal 8.366865e-17 -3.045539e-16 -1.000000e+00
    outer loop
      vertex   -1.370000e-01 -1.891633e-01 -1.500000e-01
      vertex   -6.795596e-01 -1.700306e-01 -1.500000e-01
      vertex   -6.735714e-02 -1.700306e-01 -1.500000e-01
    endloop
  endfacet
  facet normal 8.366865e-17 4.884150e-17 -1.000000e+00
    outer loop
      vertex   -6.735714e-02 -1.700306e-01 -1.500000e-01
      vertex   -6.795596e-01 -1.700306e-01 -1.500000e-01
      vertex   -1.370000e-01 -5.072789e-02 -1.500000e-01
    endloop
  endfacet
  facet normal 0.000000e+00 0.000000e+00 -1.000000e+00
    outer loop
      vertex   -1.370000e-01 -5.072789e-02 -1.500000e-01
      vertex   -6.735714e-02 -5.072789e-02 -1.500000e-01
      vertex   -6.735714e-02 -1.700306e-01 -1.500000e-01
    endloop
  endfacet
  facet normal 0.000000e+00 0.000000e+00 -1.000000e+00
    outer loop
      vertex   -6.735714e-02 -3.338912e-01 -1.500000e-01
      vertex   -6.735714e-02 -2.184150e-01 -1.500000e-01
      vertex   8.646939e-02 -2.184150e-01 -1.500000e-01
    endloop
  endfacet
  facet normal 0.000000e+00 -0.000000e+00 -1.000000e+00
    outer loop
      vertex   8.646939e-02 -2.184150e-01 -1.500000e-01
      vertex   8.646939e-02 -3.185850e-01 -1.500000e-01
      vertex   -6.735714e-02 -3.338912e-01 -1.500000e-01
    endloop
  endfacet
  facet normal 0.000000e+00 0.000000e+00 -1.000000e+00
    outer loop
      vertex   -6.735714e-02 -3.338912e-01 -1.500000e-01
      vertex   8.646939e-02 -3.185850e-01 -1.500000e-01
      vertex   1.130000e-01 -3.185850e-01 -1.500000e-01
    endloop
  endfacet
  facet normal -6.769741e-17 0.000000e+00 -1.000000e+00
    outer loop
      vertex   1.130000e-01 -3.185850e-01 -1.500000e-01
      vertex   1.130000e-01 -1.891633e-01 -1.500000e-01
      vertex   8.696338e-01 -1.700306e-01 -1.500000e-01
    endloop
  endfacet
  facet normal -6.769741e-17 -0.000000e+00 -1.000000e+00
    outer loop
      vertex   8.696338e-01 -1.700306e-01 -1.500000e-01
      vertex   8.696338e-01 -3.338912e-01 -1.500000e-01
      vertex   1.130000e-01 -3.185850e-01 -1.500000e-01
    endloop
  endfacet
  facet normal -5.466665e-17 6.441553e-16 -1.000000e+00
    outer loop
      vertex   1.130000e-01 -3.185850e-01 -1.500000e-01
      vertex   8.696338e-01 -3.338912e-01 -1.500000e-01
      vertex   -6.735714e-02 -3.338912e-01 -1.500000e-01
    endloop
  endfacet
  facet normal 0.000000e+00 0.000000e+00 -1.000000e+00
    outer loop
      vertex   1.130000e-01 -2.164626e-02 -1.500000e-01
      vertex   -6.735714e-02 -2.164626e-02 -1.500000e-01
      vertex   -6.735714e-02 -3.278912e-03 -1.500000e-01
    endloop
  endfacet
  facet normal -5.466665e-17 -5.367961e-16 -1.000000e+00
    outer loop
      vertex   -6.735714e-02 -3.278912e-03 -1.500000e-01
      vertex   8.696338e-01 -3.278912e-03 -1.500000e-01
      vertex   1.130000e-01 -2.164626e-02 -1.500000e-01
    endloop
  endfacet
  facet normal -6.769741e-17 0.000000e+00 -1.000000e+00
    outer loop
      vertex   1.130000e-01 -1.508980e-01 -1.500000e-01
      vertex   1.130000e-01 -2.164626e-02 -1.500000e-01
      vertex   8.696338e-01 -3.278912e-03 -1.500000e-01
    endloop
  endfacet
  facet normal -6.769741e-17 -0.000000e+00 -1.000000e+00
    outer loop
      vertex   8.696338e-01 -3.278912e-03 -1.500000e-01
      vertex   8.696338e-01 -1.700306e-01 -1.500000e-01
      vertex   1.130000e-01 -1.508980e-01 -1.500000e-01
    endloop
  endfacet
  facet normal -5.466665e-17 5.153242e-16 -1.000000e+00
    outer loop
      vertex   1.130000e-01 -1.508980e-01 -1.500000e-01
      vertex   8.696338e-01 -1.700306e-01 -1.500000e-01
      vertex   -6.735714e-02 -1.700306e-01 -1.500000e-01
    endloop
  endfacet
  facet normal -5.466665e-17 -5.153242e-16 -1.000000e+00
    outer loop
      vertex   -6.735714e-02 -1.700306e-01 -1.500000e-01
      vertex   8.696338e-01 -1.700306e-01 -1.500000e-01
      vertex   1.130000e-01 -1.891633e-01 -1.500000e-01
    endloop
  endfacet
  facet normal 0.000000e+00 0.000000e+00 -1.000000e+00
    outer loop
      vertex   1.130000e-01 -1.891633e-01 -1.500000e-01
      vertex   -6.735714e-02 -1.891633e-01 -1.500000e-01
      vertex   -6.735714e-02 -1.700306e-01 -1.500000e-01
    endloop
  endfacet
  facet normal 0.000000e+00 0.000000e+00 -1.000000e+00
    outer loop
      vertex   -1.115646e-03 -6.184150e-01 -1.500000e-01
      vertex   -1.115646e-03 -5.282789e-01 -1.500000e-01
      vertex   8.646939e-02 -5.282789e-01 -1.500000e-01
    endloop
  endfacet
  facet normal 0.000000e+00 0.000000e+00 -1.000000e+00
    outer loop
      vertex   -6.735714e-02 -7.905850e-01 -1.500000e-01
      vertex   8.646939e-02 -6.311701e-01 -1.500000e-01
      vertex   1.130000e-01 -6.311701e-01 -1.500000e-01
    endloop
  endfacet
  facet normal 0.000000e+00 -0.000000e+00 -1.000000e+00
    outer loop
      vertex   8.646939e-02 -5.282789e-01 -1.500000e-01
      vertex   8.646939e-02 -6.311701e-01 -1.500000e-01
      vertex   -1.115646e-03 -6.184150e-01 -1.500000e-01
    endloop
  endfacet
  facet normal 0.000000e+00 -0.000000e+00 -1.000000e+00
    outer loop
      vertex   -1.115646e-03 -6.184150e-01 -1.500000e-01
      vertex   8.646939e-02 -6.311701e-01 -1.500000e-01
      vertex   -6.735714e-02 -7.905850e-01 -1.500000e-01
    endloop
  endfacet
  facet normal 0.000000e+00 0.000000e+00 -1.000000e+00
    outer loop
      vertex   -6.735714e-02 -7.905850e-01 -1.500000e-01
      vertex   -2.730612e-02 -6.184150e-01 -1.500000e-01
      vertex   -1.115646e-03 -6.184150e-01 -1.500000e-01
    endloop
  endfacet
  facet normal -0.000000e+00 0.000000e+00 -1.000000e+00
    outer loop
      vertex   -2.730612e-02 -6.184150e-01 -1.500000e-01
      vertex   -6.735714e-02 -7.905850e-01 -1.500000e-01
      vertex   -6.735714e-02 -5.282789e-01 -1.500000e-01
    endloop
  endfacet
  facet normal 0.000000e+00 0.000000e+00 -1.000000e+00
    outer loop
      vertex   -6.735714e-02 -5.282789e-01 -1.500000e-01
      vertex   -2.730612e-02 -5.282789e-01 -1.500000e-01
      vertex   -2.730612e-02 -6.184150e-01 -1.500000e-01
    endloop
  endfacet
  facet normal -6.769741e-17 0.000000e+00 -1.000000e+00
    outer loop
      vertex   1.130000e-01 -6.311701e-01 -1.500000e-01
      vertex   1.130000e-01 -4.990272e-01 -1.500000e-01
      vertex   8.696338e-01 -4.715612e-01 -1.500000e-01
    endloop
  endfacet
  facet normal -6.769741e-17 -0.000000e+00 -1.000000e+00
    outer loop
      vertex   8.696338e-01 -4.715612e-01 -1.500000e-01
      vertex   8.696338e-01 -7.905850e-01 -1.500000e-01
      vertex   1.130000e-01 -6.311701e-01 -1.500000e-01
    endloop
  endfacet
  facet normal -5.466665e-17 6.184814e-17 -1.000000e+00
    outer loop
      vertex   1.130000e-01 -6.311701e-01 -1.500000e-01
      vertex   8.696338e-01 -7.905850e-01 -1.500000e-01
      vertex   -6.735714e-02 -7.905850e-01 -1.500000e-01
    endloop
  endfacet
  facet normal 0.000000e+00 -0.000000e+00 -1.000000e+00
    outer loop
      vertex   -6.735714e-02 -4.715612e-01 -1.500000e-01
      vertex   -6.735714e-02 -4.990272e-01 -1.500000e-01
      vertex   -1.370000e-01 -4.990272e-01 -1.500000e-01
    endloop
  endfacet
  facet normal 0.000000e+00 0.000000e+00 -1.000000e+00
    outer loop
      vertex   1.130000e-01 4.740136e-02 -1.500000e-01
      vertex   4.293197e-02 7.393197e-02 -1.500000e-01
      vertex   4.293197e-02 1.797143e-01 -1.500000e-01
    endloop
  endfacet
  facet normal -0.000000e+00 0.000000e+00 -1.000000e+00
    outer loop
      vertex   1.130000e-01 2.370272e-01 -1.500000e-01
      vertex   -1.370000e-01 1.414490e-01 -1.500000e-01
      vertex   -6.735714e-02 2.411088e-01 -1.500000e-01
    endloop
  endfacet
  facet normal -5.466665e-17 -2.415582e-15 -1.000000e+00
    outer loop
      vertex   -6.735714e-02 2.411088e-01 -1.500000e-01
      vertex   8.696338e-01 2.411088e-01 -1.500000e-01
      vertex   1.130000e-01 2.370272e-01 -1.500000e-01
    endloop
  endfacet
  facet normal -6.769741e-17 0.000000e+00 -1.000000e+00
    outer loop
      vertex   1.130000e-01 2.045442e-01 -1.500000e-01
      vertex   1.130000e-01 2.370272e-01 -1.500000e-01
      vertex   8.696338e-01 2.411088e-01 -1.500000e-01
    endloop
  endfacet
  facet normal -6.769741e-17 -0.000000e+00 -1.000000e+00
    outer loop
      vertex   8.696338e-01 2.411088e-01 -1.500000e-01
      vertex   8.696338e-01 -3.278912e-03 -1.500000e-01
      vertex   1.130000e-01 2.045442e-01 -1.500000e-01
    endloop
  endfacet
  facet normal 0.000000e+00 0.000000e+00 -1.000000e+00
    outer loop
      vertex   4.293197e-02 1.797143e-01 -1.500000e-01
      vertex   1.130000e-01 2.045442e-01 -1.500000e-01
      vertex   1.130000e-01 4.740136e-02 -1.500000e-01
    endloop
  endfacet
  facet normal -6.769741e-17 -0.000000e+00 -1.000000e+00
    outer loop
      vertex   1.130000e-01 2.045442e-01 -1.500000e-01
      vertex   8.696338e-01 -3.278912e-03 -1.500000e-01
      vertex   1.130000e-01 4.740136e-02 -1.500000e-01
    endloop
  endfacet
  facet normal -6.769741e-17 0.000000e+00 -1.000000e+00
    outer loop
      vertex   8.696338e-01 -3.278912e-03 -1.500000e-01
      vertex   1.130000e-01 1.508844e-02 -1.500000e-01
      vertex   1.130000e-01 4.740136e-02 -1.500000e-01
    endloop
  endfacet
  facet normal -5.466665e-17 5.367961e-16 -1.000000e+00
    outer loop
      vertex   1.130000e-01 1.508844e-02 -1.500000e-01
      vertex   8.696338e-01 -3.278912e-03 -1.500000e-01
      vertex   -6.735714e-02 -3.278912e-03 -1.500000e-01
    endloop
  endfacet
  facet normal 0.000000e+00 0.000000e+00 -1.000000e+00
    outer loop
      vertex   -6.735714e-02 -3.278912e-03 -1.500000e-01
      vertex   -1.370000e-01 1.111769e-01 -1.500000e-01
      vertex   1.130000e-01 1.508844e-02 -1.500000e-01
    endloop
  endfacet
  facet normal 8.366865e-17 5.090982e-17 -1.000000e+00
    outer loop
      vertex   -1.370000e-01 1.111769e-01 -1.500000e-01
      vertex   -6.735714e-02 -3.278912e-03 -1.500000e-01
      vertex   -6.795596e-01 -3.278912e-03 -1.500000e-01
    endloop
  endfacet
  facet normal 9.440834e-17 0.000000e+00 -1.000000e+00
    outer loop
      vertex   -1.370000e-01 1.414490e-01 -1.500000e-01
      vertex   -1.370000e-01 1.111769e-01 -1.500000e-01
      vertex   -6.795596e-01 -3.278912e-03 -1.500000e-01
    endloop
  endfacet
  facet normal 9.440834e-17 0.000000e+00 -1.000000e+00
    outer loop
      vertex   -6.795596e-01 -3.278912e-03 -1.500000e-01
      vertex   -6.795596e-01 2.411088e-01 -1.500000e-01
      vertex   -1.370000e-01 1.414490e-01 -1.500000e-01
    endloop
  endfacet
  facet normal 8.366865e-17 -5.846811e-17 -1.000000e+00
    outer loop
      vertex   -6.795596e-01 2.411088e-01 -1.500000e-01
      vertex   -6.735714e-02 2.411088e-01 -1.500000e-01
      vertex   -1.370000e-01 1.414490e-01 -1.500000e-01
    endloop
  endfacet
  facet normal 0.000000e+00 0.000000e+00 -1.000000e+00
    outer loop
      vertex   -2.898035e-02 3.606862e-01 -1.500000e-01
      vertex   7.949660e-02 3.332857e-01 -1.500000e-01
      vertex   7.949660e-02 3.326054e-01 -1.500000e-01
    endloop
  endfacet
  facet normal 9.440834e-17 0.000000e+00 -1.000000e+00
    outer loop
      vertex   -1.370000e-01 5.690000e-01 -1.500000e-01
      vertex   -1.370000e-01 5.368571e-01 -1.500000e-01
      vertex   -6.795596e-01 2.411088e-01 -1.500000e-01
    endloop
  endfacet
  facet normal 4.710674e-17 1.720684e-16 -1.000000e+00
    outer loop
      vertex   -6.795596e-01 2.411088e-01 -1.500000e-01
      vertex   -1.370000e-01 3.902585e-01 -1.500000e-01
      vertex   -2.898035e-02 3.606862e-01 -1.500000e-01
    endloop
  endfacet
  facet normal 9.440834e-17 0.000000e+00 -1.000000e+00
    outer loop
      vertex   -1.370000e-01 4.183197e-01 -1.500000e-01
      vertex   -1.370000e-01 3.902585e-01 -1.500000e-01
      vertex   -6.795596e-01 2.411088e-01 -1.500000e-01
    endloop
  endfacet
  facet normal 9.440834e-17 -6.759518e-32 -1.000000e+00
    outer loop
      vertex   -6.795596e-01 2.411088e-01 -1.500000e-01
      vertex   -1.370000e-01 5.368571e-01 -1.500000e-01
      vertex   -1.370000e-01 4.183197e-01 -1.500000e-01
    endloop
  endfacet
  facet normal -0.000000e+00 0.000000e+00 -1.000000e+00
    outer loop
      vertex   -2.875006e-02 4.493307e-01 -1.500000e-01
      vertex   -1.370000e-01 4.183197e-01 -1.500000e-01
      vertex   -1.370000e-01 5.368571e-01 -1.500000e-01
    endloop
  endfacet
  facet normal 0.000000e+00 0.000000e+00 -1.000000e+00
    outer loop
      vertex   -1.370000e-01 5.368571e-01 -1.500000e-01
      vertex   -2.885170e-02 5.069438e-01 -1.500000e-01
      vertex   -2.875006e-02 4.493307e-01 -1.500000e-01
    endloop
  endfacet
  facet normal 0.000000e+00 0.000000e+00 -1.000000e+00
    outer loop
      vertex   -2.875006e-02 4.493307e-01 -1.500000e-01
      vertex   -2.885170e-02 5.069438e-01 -1.500000e-01
      vertex   7.983673e-02 4.797143e-01 -1.500000e-01
    endloop
  endfacet
  facet normal -3.370990e-14 1.204745e-13 -1.000000e+00
    outer loop
      vertex   7.983673e-02 4.797143e-01 -1.500000e-01
      vertex   7.983673e-02 4.788639e-01 -1.500000e-01
      vertex   -2.875006e-02 4.493307e-01 -1.500000e-01
    endloop
  endfacet
  facet normal 9.440834e-17 0.000000e+00 -1.000000e+00
    outer loop
      vertex   -6.795596e-01 2.411088e-01 -1.500000e-01
      vertex   -6.795596e-01 9.500000e-01 -1.500000e-01
      vertex   -1.370000e-01 5.690000e-01 -1.500000e-01
    endloop
  endfacet
  facet normal 8.366865e-17 -1.529376e-17 -1.000000e+00
    outer loop
      vertex   -6.795596e-01 9.500000e-01 -1.500000e-01
      vertex   -6.735714e-02 9.500000e-01 -1.500000e-01
      vertex   -1.370000e-01 5.690000e-01 -1.500000e-01
    endloop
  endfacet
  facet normal 0.000000e+00 0.000000e+00 -1.000000e+00
    outer loop
      vertex   1.130000e-01 4.960408e-01 -1.500000e-01
      vertex   -1.370000e-01 5.690000e-01 -1.500000e-01
      vertex   -6.735714e-02 9.500000e-01 -1.500000e-01
    endloop
  endfacet
  facet normal -5.466665e-17 -2.171896e-17 -1.000000e+00
    outer loop
      vertex   -6.735714e-02 9.500000e-01 -1.500000e-01
      vertex   8.696338e-01 9.500000e-01 -1.500000e-01
      vertex   1.130000e-01 4.960408e-01 -1.500000e-01
    endloop
  endfacet
  facet normal -6.769741e-17 0.000000e+00 -1.000000e+00
    outer loop
      vertex   1.130000e-01 4.620272e-01 -1.500000e-01
      vertex   1.130000e-01 4.960408e-01 -1.500000e-01
      vertex   8.696338e-01 9.500000e-01 -1.500000e-01
    endloop
  endfacet
  facet normal -6.769741e-17 -0.000000e+00 -1.000000e+00
    outer loop
      vertex   8.696338e-01 9.500000e-01 -1.500000e-01
      vertex   8.696338e-01 2.411088e-01 -1.500000e-01
      vertex   1.130000e-01 4.620272e-01 -1.500000e-01
    endloop
  endfacet
  facet normal -0.000000e+00 0.000000e+00 -1.000000e+00
    outer loop
      vertex   7.949660e-02 3.326054e-01 -1.500000e-01
      vertex   -2.883640e-02 3.052006e-01 -1.500000e-01
      vertex   -2.898035e-02 3.606862e-01 -1.500000e-01
    endloop
  endfacet
  facet normal -0.000000e+00 0.000000e+00 -1.000000e+00
    outer loop
      vertex   -2.883640e-02 3.052006e-01 -1.500000e-01
      vertex   -1.370000e-01 2.768231e-01 -1.500000e-01
      vertex   -2.898035e-02 3.606862e-01 -1.500000e-01
    endloop
  endfacet
  facet normal 1.031544e-16 -1.328678e-16 -1.000000e+00
    outer loop
      vertex   -2.898035e-02 3.606862e-01 -1.500000e-01
      vertex   -1.370000e-01 2.768231e-01 -1.500000e-01
      vertex   -6.795596e-01 2.411088e-01 -1.500000e-01
    endloop
  endfacet
  facet normal 9.440834e-17 0.000000e+00 -1.000000e+00
    outer loop
      vertex   -1.370000e-01 2.768231e-01 -1.500000e-01
      vertex   -1.370000e-01 2.451905e-01 -1.500000e-01
      vertex   -6.795596e-01 2.411088e-01 -1.500000e-01
    endloop
  endfacet
  facet normal 8.366865e-17 1.427596e-15 -1.000000e+00
    outer loop
      vertex   -1.370000e-01 2.451905e-01 -1.500000e-01
      vertex   -6.735714e-02 2.411088e-01 -1.500000e-01
      vertex   -6.795596e-01 2.411088e-01 -1.500000e-01
    endloop
  endfacet
  facet normal 0.000000e+00 0.000000e+00 -1.000000e+00
    outer loop
      vertex   -6.735714e-02 2.411088e-01 -1.500000e-01
      vertex   -1.370000e-01 2.451905e-01 -1.500000e-01
      vertex   1.130000e-01 3.155986e-01 -1.500000e-01
    endloop
  endfacet
  facet normal -5.466665e-17 1.323607e-16 -1.000000e+00
    outer loop
      vertex   1.130000e-01 3.155986e-01 -1.500000e-01
      vertex   8.696338e-01 2.411088e-01 -1.500000e-01
      vertex   -6.735714e-02 2.411088e-01 -1.500000e-01
    endloop
  endfacet
  facet normal -6.769741e-17 0.000000e+00 -1.000000e+00
    outer loop
      vertex   1.130000e-01 3.155986e-01 -1.500000e-01
      vertex   1.130000e-01 3.499524e-01 -1.500000e-01
      vertex   8.696338e-01 2.411088e-01 -1.500000e-01
    endloop
  endfacet
  facet normal -6.769741e-17 -0.000000e+00 -1.000000e+00
    outer loop
      vertex   1.130000e-01 4.620272e-01 -1.500000e-01
      vertex   8.696338e-01 2.411088e-01 -1.500000e-01
      vertex   1.130000e-01 3.499524e-01 -1.500000e-01
    endloop
  endfacet
  facet normal 0.000000e+00 0.000000e+00 -1.000000e+00
    outer loop
      vertex   9.046892e-03 4.332010e-01 -1.500000e-01
      vertex   1.130000e-01 4.620272e-01 -1.500000e-01
      vertex   1.130000e-01 3.499524e-01 -1.500000e-01
    endloop
  endfacet
  facet normal 0.000000e+00 0.000000e+00 -1.000000e+00
    outer loop
      vertex   1.130000e-01 3.499524e-01 -1.500000e-01
      vertex   9.221847e-03 3.791068e-01 -1.500000e-01
      vertex   9.046892e-03 4.332010e-01 -1.500000e-01
    endloop
  endfacet
  facet normal 0.000000e+00 -0.000000e+00 -1.000000e+00
    outer loop
      vertex   9.046892e-03 4.332010e-01 -1.500000e-01
      vertex   9.221847e-03 3.791068e-01 -1.500000e-01
      vertex   -9.516327e-02 4.052245e-01 -1.500000e-01
    endloop
  endfacet
  facet normal 0.000000e+00 0.000000e+00 -1.000000e+00
    outer loop
      vertex   -9.516327e-02 4.052245e-01 -1.500000e-01
      vertex   -9.516327e-02 4.059048e-01 -1.500000e-01
      vertex   9.046892e-03 4.332010e-01 -1.500000e-01
    endloop
  endfacet
  facet normal -0.000000e+00 -3.213133e-16 -1.000000e+00
    outer loop
      vertex   -6.735714e-02 -9.500000e-01 -1.500000e-01
      vertex   -6.795596e-01 -9.500000e-01 -1.500000e-01
      vertex   -6.795596e-01 -7.905850e-01 -1.500000e-01
    endloop
  endfacet
  facet normal 8.366865e-17 0.000000e+00 -1.000000e+00
    outer loop
      vertex   -6.795596e-01 -7.905850e-01 -1.500000e-01
      vertex   -6.735714e-02 -7.905850e-01 -1.500000e-01
      vertex   -6.735714e-02 -9.500000e-01 -1.500000e-01
    endloop
  endfacet
  facet normal -5.466665e-17 0.000000e+00 -1.000000e+00
    outer loop
      vertex   8.696338e-01 -9.500000e-01 -1.500000e-01
      vertex   -6.735714e-02 -9.500000e-01 -1.500000e-01
      vertex   -6.735714e-02 -7.905850e-01 -1.500000e-01
    endloop
  endfacet
  facet normal -5.466665e-17 0.000000e+00 -1.000000e+00
    outer loop
      vertex   -6.735714e-02 -7.905850e-01 -1.500000e-01
      vertex   8.696338e-01 -7.905850e-01 -1.500000e-01
      vertex   8.696338e-01 -9.500000e-01 -1.500000e-01
    endloop
  endfacet
  facet normal 0.000000e+00 0.000000e+00 -1.000000e+00
    outer loop
      vertex   -6.735714e-02 -4.715612e-01 -1.500000e-01
      vertex   2.285714e-03 -4.440952e-01 -1.500000e-01
      vertex   2.473469e-02 -4.440952e-01 -1.500000e-01
    endloop
  endfacet
  facet normal 0.000000e+00 -0.000000e+00 -1.000000e+00
    outer loop
      vertex   2.285714e-03 -3.491973e-01 -1.500000e-01
      vertex   2.285714e-03 -4.440952e-01 -1.500000e-01
      vertex   -6.735714e-02 -4.715612e-01 -1.500000e-01
    endloop
  endfacet
  facet normal 0.000000e+00 0.000000e+00 -1.000000e+00
    outer loop
      vertex   -6.735714e-02 -4.715612e-01 -1.500000e-01
      vertex   -6.735714e-02 -3.338912e-01 -1.500000e-01
      vertex   2.285714e-03 -3.491973e-01 -1.500000e-01
    endloop
  endfacet
  facet normal 0.000000e+00 0.000000e+00 -1.000000e+00
    outer loop
      vertex   2.473469e-02 -3.491973e-01 -1.500000e-01
      vertex   2.285714e-03 -3.491973e-01 -1.500000e-01
      vertex   -6.735714e-02 -3.338912e-01 -1.500000e-01
    endloop
  endfacet
  facet normal -5.466665e-17 -3.289110e-16 -1.000000e+00
    outer loop
      vertex   -6.735714e-02 -3.338912e-01 -1.500000e-01
      vertex   8.696338e-01 -3.338912e-01 -1.500000e-01
      vertex   2.473469e-02 -3.491973e-01 -1.500000e-01
    endloop
  endfacet
  facet normal -6.062517e-17 0.000000e+00 -1.000000e+00
    outer loop
      vertex   2.473469e-02 -4.440952e-01 -1.500000e-01
      vertex   2.473469e-02 -3.491973e-01 -1.500000e-01
      vertex   8.696338e-01 -3.338912e-01 -1.500000e-01
    endloop
  endfacet
  facet normal -6.062517e-17 -0.000000e+00 -1.000000e+00
    outer loop
      vertex   8.696338e-01 -3.338912e-01 -1.500000e-01
      vertex   8.696338e-01 -4.715612e-01 -1.500000e-01
      vertex   2.473469e-02 -4.440952e-01 -1.500000e-01
    endloop
  endfacet
  facet normal -5.466665e-17 1.832940e-16 -1.000000e+00
    outer loop
      vertex   2.473469e-02 -4.440952e-01 -1.500000e-01
      vertex   8.696338e-01 -4.715612e-01 -1.500000e-01
      vertex   -6.735714e-02 -4.715612e-01 -1.500000e-01
    endloop
  endfacet
  facet normal -5.466665e-17 -3.589720e-16 -1.000000e+00
    outer loop
      vertex   -6.735714e-02 -4.715612e-01 -1.500000e-01
      vertex   8.696338e-01 -4.715612e-01 -1.500000e-01
      vertex   1.130000e-01 -4.990272e-01 -1.500000e-01
    endloop
  endfacet
  facet normal 0.000000e+00 0.000000e+00 -1.000000e+00
    outer loop
      vertex   1.130000e-01 -4.990272e-01 -1.500000e-01
      vertex   -6.735714e-02 -4.990272e-01 -1.500000e-01
      vertex   -6.735714e-02 -4.715612e-01 -1.500000e-01
    endloop
  endfacet
  facet normal 0.000000e+00 0.000000e+00 -1.000000e+00
    outer loop
      vertex   -1.106395e-01 -6.257279e-01 -1.500000e-01
      vertex   -1.106395e-01 -5.282789e-01 -1.500000e-01
      vertex   -6.735714e-02 -5.282789e-01 -1.500000e-01
    endloop
  endfacet
  facet normal 0.000000e+00 0.000000e+00 -1.000000e+00
    outer loop
      vertex   -6.735714e-02 -5.282789e-01 -1.500000e-01
      vertex   -6.735714e-02 -7.905850e-01 -1.500000e-01
      vertex   -1.106395e-01 -6.257279e-01 -1.500000e-01
    endloop
  endfacet
  facet normal 0.000000e+00 0.000000e+00 -1.000000e+00
    outer loop
      vertex   -1.370000e-01 -6.257279e-01 -1.500000e-01
      vertex   -1.106395e-01 -6.257279e-01 -1.500000e-01
      vertex   -6.735714e-02 -7.905850e-01 -1.500000e-01
    endloop
  endfacet
  facet normal 8.366865e-17 3.534529e-17 -1.000000e+00
    outer loop
      vertex   -6.735714e-02 -7.905850e-01 -1.500000e-01
      vertex   -6.795596e-01 -7.905850e-01 -1.500000e-01
      vertex   -1.370000e-01 -6.257279e-01 -1.500000e-01
    endloop
  endfacet
  facet normal 9.440834e-17 0.000000e+00 -1.000000e+00
    outer loop
      vertex   -1.370000e-01 -4.990272e-01 -1.500000e-01
      vertex   -1.370000e-01 -6.257279e-01 -1.500000e-01
      vertex   -6.795596e-01 -7.905850e-01 -1.500000e-01
    endloop
  endfacet
  facet normal 9.440834e-17 0.000000e+00 -1.000000e+00
    outer loop
      vertex   -6.795596e-01 -7.905850e-01 -1.500000e-01
      vertex   -6.795596e-01 -4.715612e-01 -1.500000e-01
      vertex   -1.370000e-01 -4.990272e-01 -1.500000e-01
    endloop
  endfacet
  facet normal 8.366865e-17 -2.121505e-16 -1.000000e+00
    outer loop
      vertex   -1.370000e-01 -4.990272e-01 -1.500000e-01
      vertex   -6.795596e-01 -4.715612e-01 -1.500000e-01
      vertex   -6.735714e-02 -4.715612e-01 -1.500000e-01
    endloop
  endfacet
  facet normal 8.366865e-17 0.000000e+00 -1.000000e+00
    outer loop
      vertex   -6.735714e-02 -4.715612e-01 -1.500000e-01
      vertex   -6.795596e-01 -4.715612e-01 -1.500000e-01
      vertex   -6.795596e-01 -3.338912e-01 -1.500000e-01
    endloop
  endfacet
  facet normal 8.366865e-17 0.000000e+00 -1.000000e+00
    outer loop
      vertex   -6.795596e-01 -3.338912e-01 -1.500000e-01
      vertex   -6.735714e-02 -3.338912e-01 -1.500000e-01
      vertex   -6.735714e-02 -4.715612e-01 -1.500000e-01
    endloop
  endfacet
  facet normal 8.366865e-17 5.045996e-17 -1.000000e+00
    outer loop
      vertex   -6.735714e-02 -3.338912e-01 -1.500000e-01
      vertex   -6.795596e-01 -3.338912e-01 -1.500000e-01
      vertex   -1.370000e-01 -2.184150e-01 -1.500000e-01
    endloop
  endfacet
  facet normal 0.000000e+00 0.000000e+00 -1.000000e+00
    outer loop
      vertex   -1.370000e-01 -2.184150e-01 -1.500000e-01
      vertex   -6.735714e-02 -2.184150e-01 -1.500000e-01
      vertex   -6.735714e-02 -3.338912e-01 -1.500000e-01
    endloop
  endfacet
  facet normal 1.000000e+00 0.000000e+00 0.000000e+00
    outer loop
      vertex   8.646939e-02 -5.282789e-01 0.000000e+00
      vertex   8.646939e-02 -6.311701e-01 0.000000e+00
      vertex   8.646939e-02 -6.311701e-01 -1.500000e-01
    endloop
  endfacet
  facet normal 1.000000e+00 0.000000e+00 0.000000e+00
    outer loop
      vertex   8.646939e-02 -6.311701e-01 -1.500000e-01
      vertex   8.646939e-02 -5.282789e-01 -1.500000e-01
      vertex   8.646939e-02 -5.282789e-01 0.000000e+00
    endloop
  endfacet
  facet normal 0.000000e+00 -0.000000e+00 -1.000000e+00
    outer loop
      vertex   1.130000e-01 -4.990272e-01 0.000000e+00
      vertex   1.130000e-01 -6.311701e-01 0.000000e+00
      vertex   8.646939e-02 -6.311701e-01 0.000000e+00
    endloop
  endfacet
  facet normal 0.000000e+00 0.000000e+00 -1.000000e+00
    outer loop
      vertex   8.646939e-02 -6.311701e-01 0.000000e+00
      vertex   8.646939e-02 -5.282789e-01 0.000000e+00
      vertex   1.130000e-01 -4.990272e-01 0.000000e+00
    endloop
  endfacet
  facet normal 0.000000e+00 0.000000e+00 -1.000000e+00
    outer loop
      vertex   1.130000e-01 -4.990272e-01 0.000000e+00
      vertex   8.646939e-02 -5.282789e-01 0.000000e+00
      vertex   -1.115646e-03 -5.282789e-01 0.000000e+00
    endloop
  endfacet
  facet normal 0.000000e+00 0.000000e+00 -1.000000e+00
    outer loop
      vertex   -1.115646e-03 -5.282789e-01 0.000000e+00
      vertex   -1.370000e-01 -4.990272e-01 0.000000e+00
      vertex   1.130000e-01 -4.990272e-01 0.000000e+00
    endloop
  endfacet
  facet normal 0.000000e+00 -0.000000e+00 -1.000000e+00
    outer loop
      vertex   -1.106395e-01 -5.282789e-01 0.000000e+00
      vertex   -1.106395e-01 -6.257279e-01 0.000000e+00
      vertex   -1.370000e-01 -6.257279e-01 0.000000e+00
    endloop
  endfacet
  facet normal 0.000000e+00 0.000000e+00 -1.000000e+00
    outer loop
      vertex   -1.370000e-01 -6.257279e-01 0.000000e+00
      vertex   -1.370000e-01 -4.990272e-01 0.000000e+00
      vertex   -1.106395e-01 -5.282789e-01 0.000000e+00
    endloop
  endfacet
  facet normal 0.000000e+00 0.000000e+00 -1.000000e+00
    outer loop
      vertex   -2.730612e-02 -5.282789e-01 0.000000e+00
      vertex   -1.106395e-01 -5.282789e-01 0.000000e+00
      vertex   -1.370000e-01 -4.990272e-01 0.000000e+00
    endloop
  endfacet
  facet normal 0.000000e+00 0.000000e+00 -1.000000e+00
    outer loop
      vertex   -1.370000e-01 -4.990272e-01 0.000000e+00
      vertex   -1.115646e-03 -5.282789e-01 0.000000e+00
      vertex   -2.730612e-02 -5.282789e-01 0.000000e+00
    endloop
  endfacet
  facet normal 0.000000e+00 0.000000e+00 -1.000000e+00
    outer loop
      vertex   -2.730612e-02 -6.184150e-01 0.000000e+00
      vertex   -2.730612e-02 -5.282789e-01 0.000000e+00
      vertex   -1.115646e-03 -5.282789e-01 0.000000e+00
    endloop
  endfacet
  facet normal 0.000000e+00 -0.000000e+00 -1.000000e+00
    outer loop
      vertex   -1.115646e-03 -5.282789e-01 0.000000e+00
      vertex   -1.115646e-03 -6.184150e-01 0.000000e+00
      vertex   -2.730612e-02 -6.184150e-01 0.000000e+00
    endloop
  endfacet
  facet normal -0.000000e+00 1.000000e+00 0.000000e+00
    outer loop
      vertex   8.646939e-02 -6.311701e-01 0.000000e+00
      vertex   1.130000e-01 -6.311701e-01 0.000000e+00
      vertex   1.130000e-01 -6.311701e-01 -1.500000e-01
    endloop
  endfacet
  facet normal 0.000000e+00 1.000000e+00 0.000000e+00
    outer loop
      vertex   1.130000e-01 -6.311701e-01 -1.500000e-01
      vertex   8.646939e-02 -6.311701e-01 -1.500000e-01
      vertex   8.646939e-02 -6.311701e-01 0.000000e+00
    endloop
  endfacet
  facet normal -1.000000e+00 0.000000e+00 0.000000e+00
    outer loop
      vertex   1.130000e-01 -6.311701e-01 0.000000e+00
      vertex   1.130000e-01 -4.990272e-01 0.000000e+00
      vertex   1.130000e-01 -4.990272e-01 -1.500000e-01
    endloop
  endfacet
  facet normal -1.000000e+00 0.000000e+00 0.000000e+00
    outer loop
      vertex   1.130000e-01 -4.990272e-01 -1.500000e-01
      vertex   1.130000e-01 -6.311701e-01 -1.500000e-01
      vertex   1.130000e-01 -6.311701e-01 0.000000e+00
    endloop
  endfacet
  facet normal 0.000000e+00 -1.000000e+00 0.000000e+00
    outer loop
      vertex   -6.735714e-02 -4.990272e-01 -1.500000e-01
      vertex   1.130000e-01 -4.990272e-01 -1.500000e-01
      vertex   1.130000e-01 -4.990272e-01 0.000000e+00
    endloop
  endfacet
  facet normal -0.000000e+00 -1.000000e+00 0.000000e+00
    outer loop
      vertex   1.130000e-01 -4.990272e-01 0.000000e+00
      vertex   -1.370000e-01 -4.990272e-01 0.000000e+00
      vertex   -6.735714e-02 -4.990272e-01 -1.500000e-01
    endloop
  endfacet
  facet normal 0.000000e+00 -1.000000e+00 0.000000e+00
    outer loop
      vertex   -1.370000e-01 -4.990272e-01 0.000000e+00
      vertex   -1.370000e-01 -4.990272e-01 -1.500000e-01
      vertex   -6.735714e-02 -4.990272e-01 -1.500000e-01
    endloop
  endfacet
  facet normal 1.000000e+00 0.000000e+00 0.000000e+00
    outer loop
      vertex   -1.370000e-01 -4.990272e-01 0.000000e+00
      vertex   -1.370000e-01 -6.257279e-01 0.000000e+00
      vertex   -1.370000e-01 -6.257279e-01 -1.500000e-01
    endloop
  endfacet
  facet normal 1.000000e+00 0.000000e+00 0.000000e+00
    outer loop
      vertex   -1.370000e-01 -6.257279e-01 -1.500000e-01
      vertex   -1.370000e-01 -4.990272e-01 -1.500000e-01
      vertex   -1.370000e-01 -4.990272e-01 0.000000e+00
    endloop
  endfacet
  facet normal -0.000000e+00 1.000000e+00 0.000000e+00
    outer loop
      vertex   -1.370000e-01 -6.257279e-01 0.000000e+00
      vertex   -1.106395e-01 -6.257279e-01 0.000000e+00
      vertex   -1.106395e-01 -6.257279e-01 -1.500000e-01
    endloop
  endfacet
  facet normal 0.000000e+00 1.000000e+00 0.000000e+00
    outer loop
      vertex   -1.106395e-01 -6.257279e-01 -1.500000e-01
      vertex   -1.370000e-01 -6.257279e-01 -1.500000e-01
      vertex   -1.370000e-01 -6.257279e-01 0.000000e+00
    endloop
  endfacet
  facet normal -1.000000e+00 0.000000e+00 0.000000e+00
    outer loop
      vertex   -1.106395e-01 -6.257279e-01 0.000000e+00
      vertex   -1.106395e-01 -5.282789e-01 0.000000e+00
      vertex   -1.106395e-01 -5.282789e-01 -1.500000e-01
    endloop
  endfacet
  facet normal -1.000000e+00 0.000000e+00 0.000000e+00
    outer loop
      vertex   -1.106395e-01 -5.282789e-01 -1.500000e-01
      vertex   -1.106395e-01 -6.257279e-01 -1.500000e-01
      vertex   -1.106395e-01 -6.257279e-01 0.000000e+00
    endloop
  endfacet
  facet normal 0.000000e+00 1.000000e+00 0.000000e+00
    outer loop
      vertex   -6.735714e-02 -5.282789e-01 -1.500000e-01
      vertex   -1.106395e-01 -5.282789e-01 -1.500000e-01
      vertex   -1.106395e-01 -5.282789e-01 0.000000e+00
    endloop
  endfacet
  facet normal -0.000000e+00 1.000000e+00 0.000000e+00
    outer loop
      vertex   -1.106395e-01 -5.282789e-01 0.000000e+00
      vertex   -2.730612e-02 -5.282789e-01 0.000000e+00
      vertex   -6.735714e-02 -5.282789e-01 -1.500000e-01
    endloop
  endfacet
  facet normal 0.000000e+00 1.000000e+00 0.000000e+00
    outer loop
      vertex   -2.730612e-02 -5.282789e-01 0.000000e+00
      vertex   -2.730612e-02 -5.282789e-01 -1.500000e-01
      vertex   -6.735714e-02 -5.282789e-01 -1.500000e-01
    endloop
  endfacet
  facet normal 1.000000e+00 0.000000e+00 0.000000e+00
    outer loop
      vertex   -2.730612e-02 -5.282789e-01 0.000000e+00
      vertex   -2.730612e-02 -6.184150e-01 0.000000e+00
      vertex   -2.730612e-02 -6.184150e-01 -1.500000e-01
    endloop
  endfacet
  facet normal 1.000000e+00 0.000000e+00 0.000000e+00
    outer loop
      vertex   -2.730612e-02 -6.184150e-01 -1.500000e-01
      vertex   -2.730612e-02 -5.282789e-01 -1.500000e-01
      vertex   -2.730612e-02 -5.282789e-01 0.000000e+00
    endloop
  endfacet
  facet normal -0.000000e+00 1.000000e+00 0.000000e+00
    outer loop
      vertex   -2.730612e-02 -6.184150e-01 0.000000e+00
      vertex   -1.115646e-03 -6.184150e-01 0.000000e+00
      vertex   -1.115646e-03 -6.184150e-01 -1.500000e-01
    endloop
  endfacet
  facet normal 0.000000e+00 1.000000e+00 0.000000e+00
    outer loop
      vertex   -1.115646e-03 -6.184150e-01 -1.500000e-01
      vertex   -2.730612e-02 -6.184150e-01 -1.500000e-01
      vertex   -2.730612e-02 -6.184150e-01 0.000000e+00
    endloop
  endfacet
  facet normal -1.000000e+00 0.000000e+00 0.000000e+00
    outer loop
      vertex   -1.115646e-03 -6.184150e-01 0.000000e+00
      vertex   -1.115646e-03 -5.282789e-01 0.000000e+00
      vertex   -1.115646e-03 -5.282789e-01 -1.500000e-01
    endloop
  endfacet
  facet normal -1.000000e+00 0.000000e+00 0.000000e+00
    outer loop
      vertex   -1.115646e-03 -5.282789e-01 -1.500000e-01
      vertex   -1.115646e-03 -6.184150e-01 -1.500000e-01
      vertex   -1.115646e-03 -6.184150e-01 0.000000e+00
    endloop
  endfacet
  facet normal -0.000000e+00 1.000000e+00 0.000000e+00
    outer loop
      vertex   -1.115646e-03 -5.282789e-01 0.000000e+00
      vertex   8.646939e-02 -5.282789e-01 0.000000e+00
      vertex   8.646939e-02 -5.282789e-01 -1.500000e-01
    endloop
  endfacet
  facet normal 0.000000e+00 1.000000e+00 0.000000e+00
    outer loop
      vertex   8.646939e-02 -5.282789e-01 -1.500000e-01
      vertex   -1.115646e-03 -5.282789e-01 -1.500000e-01
      vertex   -1.115646e-03 -5.282789e-01 0.000000e+00
    endloop
  endfacet
  facet normal 1.000000e+00 0.000000e+00 0.000000e+00
    outer loop
      vertex   2.285714e-03 -3.491973e-01 0.000000e+00
      vertex   2.285714e-03 -4.440952e-01 0.000000e+00
      vertex   2.285714e-03 -4.440952e-01 -1.500000e-01
    endloop
  endfacet
  facet normal 1.000000e+00 0.000000e+00 0.000000e+00
    outer loop
      vertex   2.285714e-03 -4.440952e-01 -1.500000e-01
      vertex   2.285714e-03 -3.491973e-01 -1.500000e-01
      vertex   2.285714e-03 -3.491973e-01 0.000000e+00
    endloop
  endfacet
  facet normal -0.000000e+00 1.000000e+00 0.000000e+00
    outer loop
      vertex   2.285714e-03 -4.440952e-01 0.000000e+00
      vertex   2.473469e-02 -4.440952e-01 0.000000e+00
      vertex   2.473469e-02 -4.440952e-01 -1.500000e-01
    endloop
  endfacet
  facet normal 0.000000e+00 1.000000e+00 0.000000e+00
    outer loop
      vertex   2.473469e-02 -4.440952e-01 -1.500000e-01
      vertex   2.285714e-03 -4.440952e-01 -1.500000e-01
      vertex   2.285714e-03 -4.440952e-01 0.000000e+00
    endloop
  endfacet
  facet normal -1.000000e+00 0.000000e+00 0.000000e+00
    outer loop
      vertex   2.473469e-02 -4.440952e-01 0.000000e+00
      vertex   2.473469e-02 -3.491973e-01 0.000000e+00
      vertex   2.473469e-02 -3.491973e-01 -1.500000e-01
    endloop
  endfacet
  facet normal -1.000000e+00 0.000000e+00 0.000000e+00
    outer loop
      vertex   2.473469e-02 -3.491973e-01 -1.500000e-01
      vertex   2.473469e-02 -4.440952e-01 -1.500000e-01
      vertex   2.473469e-02 -4.440952e-01 0.000000e+00
    endloop
  endfacet
  facet normal -0.000000e+00 -1.000000e+00 0.000000e+00
    outer loop
      vertex   2.473469e-02 -3.491973e-01 0.000000e+00
      vertex   2.285714e-03 -3.491973e-01 0.000000e+00
      vertex   2.285714e-03 -3.491973e-01 -1.500000e-01
    endloop
  endfacet
  facet normal 0.000000e+00 -1.000000e+00 0.000000e+00
    outer loop
      vertex   2.285714e-03 -3.491973e-01 -1.500000e-01
      vertex   2.473469e-02 -3.491973e-01 -1.500000e-01
      vertex   2.473469e-02 -3.491973e-01 0.000000e+00
    endloop
  endfacet
  facet normal 0.000000e+00 0.000000e+00 -1.000000e+00
    outer loop
      vertex   2.285714e-03 -3.491973e-01 0.000000e+00
      vertex   2.473469e-02 -3.491973e-01 0.000000e+00
      vertex   2.473469e-02 -4.440952e-01 0.000000e+00
    endloop
  endfacet
  facet normal 0.000000e+00 0.000000e+00 -1.000000e+00
    outer loop
      vertex   2.473469e-02 -4.440952e-01 0.000000e+00
      vertex   2.285714e-03 -4.440952e-01 0.000000e+00
      vertex   2.285714e-03 -3.491973e-01 0.000000e+00
    endloop
  endfacet
  facet normal 1.000000e+00 0.000000e+00 0.000000e+00
    outer loop
      vertex   8.646939e-02 -2.184150e-01 0.000000e+00
      vertex   8.646939e-02 -3.185850e-01 0.000000e+00
      vertex   8.646939e-02 -3.185850e-01 -1.500000e-01
    endloop
  endfacet
  facet normal 1.000000e+00 0.000000e+00 0.000000e+00
    outer loop
      vertex   8.646939e-02 -3.185850e-01 -1.500000e-01
      vertex   8.646939e-02 -2.184150e-01 -1.500000e-01
      vertex   8.646939e-02 -2.184150e-01 0.000000e+00
    endloop
  endfacet
  facet normal 0.000000e+00 0.000000e+00 -1.000000e+00
    outer loop
      vertex   8.646939e-02 -2.184150e-01 0.000000e+00
      vertex   -1.370000e-01 -2.184150e-01 0.000000e+00
      vertex   -1.370000e-01 -1.891633e-01 0.000000e+00
    endloop
  endfacet
  facet normal 0.000000e+00 0.000000e+00 -1.000000e+00
    outer loop
      vertex   -1.370000e-01 -1.891633e-01 0.000000e+00
      vertex   1.130000e-01 -1.891633e-01 0.000000e+00
      vertex   8.646939e-02 -2.184150e-01 0.000000e+00
    endloop
  endfacet
  facet normal 0.000000e+00 0.000000e+00 -1.000000e+00
    outer loop
      vertex   8.646939e-02 -3.185850e-01 0.000000e+00
      vertex   8.646939e-02 -2.184150e-01 0.000000e+00
      vertex   1.130000e-01 -1.891633e-01 0.000000e+00
    endloop
  endfacet
  facet normal 0.000000e+00 -0.000000e+00 -1.000000e+00
    outer loop
      vertex   1.130000e-01 -1.891633e-01 0.000000e+00
      vertex   1.130000e-01 -3.185850e-01 0.000000e+00
      vertex   8.646939e-02 -3.185850e-01 0.000000e+00
    endloop
  endfacet
  facet normal -0.000000e+00 1.000000e+00 0.000000e+00
    outer loop
      vertex   8.646939e-02 -3.185850e-01 0.000000e+00
      vertex   1.130000e-01 -3.185850e-01 0.000000e+00
      vertex   1.130000e-01 -3.185850e-01 -1.500000e-01
    endloop
  endfacet
  facet normal 0.000000e+00 1.000000e+00 0.000000e+00
    outer loop
      vertex   1.130000e-01 -3.185850e-01 -1.500000e-01
      vertex   8.646939e-02 -3.185850e-01 -1.500000e-01
      vertex   8.646939e-02 -3.185850e-01 0.000000e+00
    endloop
  endfacet
  facet normal -1.000000e+00 0.000000e+00 0.000000e+00
    outer loop
      vertex   1.130000e-01 -3.185850e-01 0.000000e+00
      vertex   1.130000e-01 -1.891633e-01 0.000000e+00
      vertex   1.130000e-01 -1.891633e-01 -1.500000e-01
    endloop
  endfacet
  facet normal -1.000000e+00 0.000000e+00 0.000000e+00
    outer loop
      vertex   1.130000e-01 -1.891633e-01 -1.500000e-01
      vertex   1.130000e-01 -3.185850e-01 -1.500000e-01
      vertex   1.130000e-01 -3.185850e-01 0.000000e+00
    endloop
  endfacet
  facet normal 0.000000e+00 -1.000000e+00 0.000000e+00
    outer loop
      vertex   -6.735714e-02 -1.891633e-01 -1.500000e-01
      vertex   1.130000e-01 -1.891633e-01 -1.500000e-01
      vertex   1.130000e-01 -1.891633e-01 0.000000e+00
    endloop
  endfacet
  facet normal -0.000000e+00 -1.000000e+00 0.000000e+00
    outer loop
      vertex   1.130000e-01 -1.891633e-01 0.000000e+00
      vertex   -1.370000e-01 -1.891633e-01 0.000000e+00
      vertex   -6.735714e-02 -1.891633e-01 -1.500000e-01
    endloop
  endfacet
  facet normal 0.000000e+00 -1.000000e+00 0.000000e+00
    outer loop
      vertex   -1.370000e-01 -1.891633e-01 0.000000e+00
      vertex   -1.370000e-01 -1.891633e-01 -1.500000e-01
      vertex   -6.735714e-02 -1.891633e-01 -1.500000e-01
    endloop
  endfacet
  facet normal 1.000000e+00 0.000000e+00 0.000000e+00
    outer loop
      vertex   -1.370000e-01 -1.891633e-01 0.000000e+00
      vertex   -1.370000e-01 -2.184150e-01 0.000000e+00
      vertex   -1.370000e-01 -2.184150e-01 -1.500000e-01
    endloop
  endfacet
  facet normal 1.000000e+00 0.000000e+00 0.000000e+00
    outer loop
      vertex   -1.370000e-01 -2.184150e-01 -1.500000e-01
      vertex   -1.370000e-01 -1.891633e-01 -1.500000e-01
      vertex   -1.370000e-01 -1.891633e-01 0.000000e+00
    endloop
  endfacet
  facet normal 0.000000e+00 1.000000e+00 0.000000e+00
    outer loop
      vertex   -6.735714e-02 -2.184150e-01 -1.500000e-01
      vertex   -1.370000e-01 -2.184150e-01 -1.500000e-01
      vertex   -1.370000e-01 -2.184150e-01 0.000000e+00
    endloop
  endfacet
  facet normal 0.000000e+00 1.000000e+00 -0.000000e+00
    outer loop
      vertex   -6.735714e-02 -2.184150e-01 -1.500000e-01
      vertex   -1.370000e-01 -2.184150e-01 0.000000e+00
      vertex   8.646939e-02 -2.184150e-01 0.000000e+00
    endloop
  endfacet
  facet normal 0.000000e+00 1.000000e+00 0.000000e+00
    outer loop
      vertex   8.646939e-02 -2.184150e-01 0.000000e+00
      vertex   8.646939e-02 -2.184150e-01 -1.500000e-01
      vertex   -6.735714e-02 -2.184150e-01 -1.500000e-01
    endloop
  endfacet
  facet normal 1.000000e+00 0.000000e+00 0.000000e+00
    outer loop
      vertex   8.646939e-02 -5.072789e-02 0.000000e+00
      vertex   8.646939e-02 -1.508980e-01 0.000000e+00
      vertex   8.646939e-02 -1.508980e-01 -1.500000e-01
    endloop
  endfacet
  facet normal 1.000000e+00 0.000000e+00 0.000000e+00
    outer loop
      vertex   8.646939e-02 -1.508980e-01 -1.500000e-01
      vertex   8.646939e-02 -5.072789e-02 -1.500000e-01
      vertex   8.646939e-02 -5.072789e-02 0.000000e+00
    endloop
  endfacet
  facet normal 0.000000e+00 0.000000e+00 -1.000000e+00
    outer loop
      vertex   8.646939e-02 -5.072789e-02 0.000000e+00
      vertex   -1.370000e-01 -5.072789e-02 0.000000e+00
      vertex   -1.370000e-01 -2.164626e-02 0.000000e+00
    endloop
  endfacet
  facet normal 0.000000e+00 0.000000e+00 -1.000000e+00
    outer loop
      vertex   -1.370000e-01 -2.164626e-02 0.000000e+00
      vertex   1.130000e-01 -2.164626e-02 0.000000e+00
      vertex   8.646939e-02 -5.072789e-02 0.000000e+00
    endloop
  endfacet
  facet normal 0.000000e+00 0.000000e+00 -1.000000e+00
    outer loop
      vertex   8.646939e-02 -1.508980e-01 0.000000e+00
      vertex   8.646939e-02 -5.072789e-02 0.000000e+00
      vertex   1.130000e-01 -2.164626e-02 0.000000e+00
    endloop
  endfacet
  facet normal 0.000000e+00 -0.000000e+00 -1.000000e+00
    outer loop
      vertex   1.130000e-01 -2.164626e-02 0.000000e+00
      vertex   1.130000e-01 -1.508980e-01 0.000000e+00
      vertex   8.646939e-02 -1.508980e-01 0.000000e+00
    endloop
  endfacet
  facet normal -0.000000e+00 1.000000e+00 0.000000e+00
    outer loop
      vertex   8.646939e-02 -1.508980e-01 0.000000e+00
      vertex   1.130000e-01 -1.508980e-01 0.000000e+00
      vertex   1.130000e-01 -1.508980e-01 -1.500000e-01
    endloop
  endfacet
  facet normal 0.000000e+00 1.000000e+00 0.000000e+00
    outer loop
      vertex   1.130000e-01 -1.508980e-01 -1.500000e-01
      vertex   8.646939e-02 -1.508980e-01 -1.500000e-01
      vertex   8.646939e-02 -1.508980e-01 0.000000e+00
    endloop
  endfacet
  facet normal -1.000000e+00 0.000000e+00 0.000000e+00
    outer loop
      vertex   1.130000e-01 -1.508980e-01 0.000000e+00
      vertex   1.130000e-01 -2.164626e-02 0.000000e+00
      vertex   1.130000e-01 -2.164626e-02 -1.500000e-01
    endloop
  endfacet
  facet normal -1.000000e+00 0.000000e+00 0.000000e+00
    outer loop
      vertex   1.130000e-01 -2.164626e-02 -1.500000e-01
      vertex   1.130000e-01 -1.508980e-01 -1.500000e-01
      vertex   1.130000e-01 -1.508980e-01 0.000000e+00
    endloop
  endfacet
  facet normal 0.000000e+00 -1.000000e+00 0.000000e+00
    outer loop
      vertex   -6.735714e-02 -2.164626e-02 -1.500000e-01
      vertex   1.130000e-01 -2.164626e-02 -1.500000e-01
      vertex   1.130000e-01 -2.164626e-02 0.000000e+00
    endloop
  endfacet
  facet normal -0.000000e+00 -1.000000e+00 0.000000e+00
    outer loop
      vertex   1.130000e-01 -2.164626e-02 0.000000e+00
      vertex   -1.370000e-01 -2.164626e-02 0.000000e+00
      vertex   -6.735714e-02 -2.164626e-02 -1.500000e-01
    endloop
  endfacet
  facet normal 0.000000e+00 -1.000000e+00 0.000000e+00
    outer loop
      vertex   -1.370000e-01 -2.164626e-02 0.000000e+00
      vertex   -1.370000e-01 -2.164626e-02 -1.500000e-01
      vertex   -6.735714e-02 -2.164626e-02 -1.500000e-01
    endloop
  endfacet
  facet normal 1.000000e+00 0.000000e+00 0.000000e+00
    outer loop
      vertex   -1.370000e-01 -2.164626e-02 0.000000e+00
      vertex   -1.370000e-01 -5.072789e-02 0.000000e+00
      vertex   -1.370000e-01 -5.072789e-02 -1.500000e-01
    endloop
  endfacet
  facet normal 1.000000e+00 0.000000e+00 0.000000e+00
    outer loop
      vertex   -1.370000e-01 -5.072789e-02 -1.500000e-01
      vertex   -1.370000e-01 -2.164626e-02 -1.500000e-01
      vertex   -1.370000e-01 -2.164626e-02 0.000000e+00
    endloop
  endfacet
  facet normal 0.000000e+00 1.000000e+00 0.000000e+00
    outer loop
      vertex   -6.735714e-02 -5.072789e-02 -1.500000e-01
      vertex   -1.370000e-01 -5.072789e-02 -1.500000e-01
      vertex   -1.370000e-01 -5.072789e-02 0.000000e+00
    endloop
  endfacet
  facet normal 0.000000e+00 1.000000e+00 -0.000000e+00
    outer loop
      vertex   -6.735714e-02 -5.072789e-02 -1.500000e-01
      vertex   -1.370000e-01 -5.072789e-02 0.000000e+00
      vertex   8.646939e-02 -5.072789e-02 0.000000e+00
    endloop
  endfacet
  facet normal 0.000000e+00 1.000000e+00 0.000000e+00
    outer loop
      vertex   8.646939e-02 -5.072789e-02 0.000000e+00
      vertex   8.646939e-02 -5.072789e-02 -1.500000e-01
      vertex   -6.735714e-02 -5.072789e-02 -1.500000e-01
    endloop
  endfacet
  facet normal 1.000000e+00 0.000000e+00 0.000000e+00
    outer loop
      vertex   -1.370000e-01 1.414490e-01 0.000000e+00
      vertex   -1.370000e-01 1.111769e-01 0.000000e+00
      vertex   -1.370000e-01 1.111769e-01 -1.500000e-01
    endloop
  endfacet
  facet normal 1.000000e+00 0.000000e+00 0.000000e+00
    outer loop
      vertex   -1.370000e-01 1.111769e-01 -1.500000e-01
      vertex   -1.370000e-01 1.414490e-01 -1.500000e-01
      vertex   -1.370000e-01 1.414490e-01 0.000000e+00
    endloop
  endfacet
  facet normal 3.587663e-01 9.334274e-01 0.000000e+00
    outer loop
      vertex   -1.370000e-01 1.111769e-01 0.000000e+00
      vertex   1.130000e-01 1.508844e-02 0.000000e+00
      vertex   1.130000e-01 1.508844e-02 -1.500000e-01
    endloop
  endfacet
  facet normal 3.587663e-01 9.334274e-01 0.000000e+00
    outer loop
      vertex   1.130000e-01 1.508844e-02 -1.500000e-01
      vertex   -1.370000e-01 1.111769e-01 -1.500000e-01
      vertex   -1.370000e-01 1.111769e-01 0.000000e+00
    endloop
  endfacet
  facet normal -1.000000e+00 0.000000e+00 0.000000e+00
    outer loop
      vertex   1.130000e-01 1.508844e-02 0.000000e+00
      vertex   1.130000e-01 4.740136e-02 0.000000e+00
      vertex   1.130000e-01 4.740136e-02 -1.500000e-01
    endloop
  endfacet
  facet normal -1.000000e+00 0.000000e+00 0.000000e+00
    outer loop
      vertex   1.130000e-01 4.740136e-02 -1.500000e-01
      vertex   1.130000e-01 1.508844e-02 -1.500000e-01
      vertex   1.130000e-01 1.508844e-02 0.000000e+00
    endloop
  endfacet
  facet normal -3.541068e-01 -9.352050e-01 0.000000e+00
    outer loop
      vertex   1.130000e-01 4.740136e-02 0.000000e+00
      vertex   4.293197e-02 7.393197e-02 0.000000e+00
      vertex   4.293197e-02 7.393197e-02 -1.500000e-01
    endloop
  endfacet
  facet normal -3.541068e-01 -9.352050e-01 0.000000e+00
    outer loop
      vertex   4.293197e-02 7.393197e-02 -1.500000e-01
      vertex   1.130000e-01 4.740136e-02 -1.500000e-01
      vertex   1.130000e-01 4.740136e-02 0.000000e+00
    endloop
  endfacet
  facet normal -1.000000e+00 1.614074e-16 0.000000e+00
    outer loop
      vertex   4.293197e-02 7.393197e-02 0.000000e+00
      vertex   4.293197e-02 1.797143e-01 0.000000e+00
      vertex   4.293197e-02 1.797143e-01 -1.500000e-01
    endloop
  endfacet
  facet normal -1.000000e+00 1.614074e-16 0.000000e+00
    outer loop
      vertex   4.293197e-02 1.797143e-01 -1.500000e-01
      vertex   4.293197e-02 7.393197e-02 -1.500000e-01
      vertex   4.293197e-02 7.393197e-02 0.000000e+00
    endloop
  endfacet
  facet normal -3.340165e-01 9.425672e-01 0.000000e+00
    outer loop
      vertex   4.293197e-02 1.797143e-01 0.000000e+00
      vertex   1.130000e-01 2.045442e-01 0.000000e+00
      vertex   1.130000e-01 2.045442e-01 -1.500000e-01
    endloop
  endfacet
  facet normal -3.340165e-01 9.425672e-01 0.000000e+00
    outer loop
      vertex   1.130000e-01 2.045442e-01 -1.500000e-01
      vertex   4.293197e-02 1.797143e-01 -1.500000e-01
      vertex   4.293197e-02 1.797143e-01 0.000000e+00
    endloop
  endfacet
  facet normal -1.000000e+00 0.000000e+00 0.000000e+00
    outer loop
      vertex   1.130000e-01 2.045442e-01 0.000000e+00
      vertex   1.130000e-01 2.370272e-01 0.000000e+00
      vertex   1.130000e-01 2.370272e-01 -1.500000e-01
    endloop
  endfacet
  facet normal -1.000000e+00 0.000000e+00 0.000000e+00
    outer loop
      vertex   1.130000e-01 2.370272e-01 -1.500000e-01
      vertex   1.130000e-01 2.045442e-01 -1.500000e-01
      vertex   1.130000e-01 2.045442e-01 0.000000e+00
    endloop
  endfacet
  facet normal 3.571049e-01 -9.340643e-01 0.000000e+00
    outer loop
      vertex   1.130000e-01 2.370272e-01 0.000000e+00
      vertex   -1.370000e-01 1.414490e-01 0.000000e+00
      vertex   -1.370000e-01 1.414490e-01 -1.500000e-01
    endloop
  endfacet
  facet normal 3.571049e-01 -9.340643e-01 0.000000e+00
    outer loop
      vertex   -1.370000e-01 1.414490e-01 -1.500000e-01
      vertex   1.130000e-01 2.370272e-01 -1.500000e-01
      vertex   1.130000e-01 2.370272e-01 0.000000e+00
    endloop
  endfacet
  facet normal 2.452434e-01 -9.694615e-01 0.000000e+00
    outer loop
      vertex   7.949660e-02 3.326054e-01 -1.500000e-01
      vertex   7.949660e-02 3.326054e-01 0.000000e+00
      vertex   -2.883640e-02 3.052006e-01 0.000000e+00
    endloop
  endfacet
  facet normal 2.452434e-01 -9.694615e-01 0.000000e+00
    outer loop
      vertex   -2.883640e-02 3.052006e-01 0.000000e+00
      vertex   -2.883640e-02 3.052006e-01 -1.500000e-01
      vertex   7.949660e-02 3.326054e-01 -1.500000e-01
    endloop
  endfacet
  facet normal 2.537685e-01 -9.672650e-01 0.000000e+00
    outer loop
      vertex   -2.883640e-02 3.052006e-01 -1.500000e-01
      vertex   -2.883640e-02 3.052006e-01 0.000000e+00
      vertex   -1.370000e-01 2.768231e-01 0.000000e+00
    endloop
  endfacet
  facet normal 2.537685e-01 -9.672650e-01 0.000000e+00
    outer loop
      vertex   -1.370000e-01 2.768231e-01 0.000000e+00
      vertex   -1.370000e-01 2.768231e-01 -1.500000e-01
      vertex   -2.883640e-02 3.052006e-01 -1.500000e-01
    endloop
  endfacet
  facet normal 0.000000e+00 0.000000e+00 -1.000000e+00
    outer loop
      vertex   -2.885170e-02 5.069438e-01 0.000000e+00
      vertex   -1.370000e-01 5.368571e-01 0.000000e+00
      vertex   -1.370000e-01 5.690000e-01 0.000000e+00
    endloop
  endfacet
  facet normal 0.000000e+00 0.000000e+00 -1.000000e+00
    outer loop
      vertex   -2.885170e-02 5.069438e-01 0.000000e+00
      vertex   -1.370000e-01 5.690000e-01 0.000000e+00
      vertex   1.130000e-01 4.960408e-01 0.000000e+00
    endloop
  endfacet
  facet normal -0.000000e+00 0.000000e+00 -1.000000e+00
    outer loop
      vertex   1.130000e-01 4.960408e-01 0.000000e+00
      vertex   7.983673e-02 4.797143e-01 0.000000e+00
      vertex   -2.885170e-02 5.069438e-01 0.000000e+00
    endloop
  endfacet
  facet normal 0.000000e+00 0.000000e+00 -1.000000e+00
    outer loop
      vertex   7.983673e-02 4.788639e-01 0.000000e+00
      vertex   7.983673e-02 4.797143e-01 0.000000e+00
      vertex   1.130000e-01 4.960408e-01 0.000000e+00
    endloop
  endfacet
  facet normal 0.000000e+00 -0.000000e+00 -1.000000e+00
    outer loop
      vertex   1.130000e-01 4.960408e-01 0.000000e+00
      vertex   1.130000e-01 4.620272e-01 0.000000e+00
      vertex   7.983673e-02 4.788639e-01 0.000000e+00
    endloop
  endfacet
  facet normal -6.143277e-16 -1.210039e-15 -1.000000e+00
    outer loop
      vertex   -2.875006e-02 4.493307e-01 1.024443e-16
      vertex   7.983673e-02 4.788639e-01 0.000000e+00
      vertex   1.130000e-01 4.620272e-01 0.000000e+00
    endloop
  endfacet
  facet normal -1.067531e-15 3.849731e-15 -1.000000e+00
    outer loop
      vertex   1.130000e-01 4.620272e-01 0.000000e+00
      vertex   9.046892e-03 4.332010e-01 0.000000e+00
      vertex   -2.875006e-02 4.493307e-01 1.024443e-16
    endloop
  endfacet
  facet normal -5.224197e-16 5.127100e-15 -1.000000e+00
    outer loop
      vertex   -1.370000e-01 4.183197e-01 0.000000e+00
      vertex   -2.875006e-02 4.493307e-01 1.024443e-16
      vertex   9.046892e-03 4.332010e-01 0.000000e+00
    endloop
  endfacet
  facet normal 0.000000e+00 0.000000e+00 -1.000000e+00
    outer loop
      vertex   9.046892e-03 4.332010e-01 0.000000e+00
      vertex   -9.516327e-02 4.059048e-01 0.000000e+00
      vertex   -1.370000e-01 4.183197e-01 0.000000e+00
    endloop
  endfacet
  facet normal 0.000000e+00 0.000000e+00 -1.000000e+00
    outer loop
      vertex   -1.370000e-01 3.902585e-01 0.000000e+00
      vertex   -1.370000e-01 4.183197e-01 0.000000e+00
      vertex   -9.516327e-02 4.059048e-01 0.000000e+00
    endloop
  endfacet
  facet normal 0.000000e+00 -0.000000e+00 -1.000000e+00
    outer loop
      vertex   -9.516327e-02 4.059048e-01 0.000000e+00
      vertex   -9.516327e-02 4.052245e-01 0.000000e+00
      vertex   -1.370000e-01 3.902585e-01 0.000000e+00
    endloop
  endfacet
  facet normal 0.000000e+00 0.000000e+00 -1.000000e+00
    outer loop
      vertex   -2.898035e-02 3.606862e-01 0.000000e+00
      vertex   -1.370000e-01 3.902585e-01 0.000000e+00
      vertex   -9.516327e-02 4.052245e-01 0.000000e+00
    endloop
  endfacet
  facet normal 0.000000e+00 0.000000e+00 -1.000000e+00
    outer loop
      vertex   -9.516327e-02 4.052245e-01 0.000000e+00
      vertex   9.221847e-03 3.791068e-01 0.000000e+00
      vertex   -2.898035e-02 3.606862e-01 0.000000e+00
    endloop
  endfacet
  facet normal 0.000000e+00 0.000000e+00 -1.000000e+00
    outer loop
      vertex   7.949660e-02 3.332857e-01 0.000000e+00
      vertex   -2.898035e-02 3.606862e-01 0.000000e+00
      vertex   9.221847e-03 3.791068e-01 0.000000e+00
    endloop
  endfacet
  facet normal 0.000000e+00 0.000000e+00 -1.000000e+00
    outer loop
      vertex   9.221847e-03 3.791068e-01 0.000000e+00
      vertex   1.130000e-01 3.499524e-01 0.000000e+00
      vertex   7.949660e-02 3.332857e-01 0.000000e+00
    endloop
  endfacet
  facet normal 0.000000e+00 0.000000e+00 -1.000000e+00
    outer loop
      vertex   7.949660e-02 3.326054e-01 0.000000e+00
      vertex   7.949660e-02 3.332857e-01 0.000000e+00
      vertex   1.130000e-01 3.499524e-01 0.000000e+00
    endloop
  endfacet
  facet normal 0.000000e+00 -0.000000e+00 -1.000000e+00
    outer loop
      vertex   1.130000e-01 3.499524e-01 0.000000e+00
      vertex   1.130000e-01 3.155986e-01 0.000000e+00
      vertex   7.949660e-02 3.326054e-01 0.000000e+00
    endloop
  endfacet
  facet normal 0.000000e+00 0.000000e+00 -1.000000e+00
    outer loop
      vertex   -2.883640e-02 3.052006e-01 0.000000e+00
      vertex   7.949660e-02 3.326054e-01 0.000000e+00
      vertex   1.130000e-01 3.155986e-01 0.000000e+00
    endloop
  endfacet
  facet normal 0.000000e+00 0.000000e+00 -1.000000e+00
    outer loop
      vertex   1.130000e-01 3.155986e-01 0.000000e+00
      vertex   -1.370000e-01 2.451905e-01 0.000000e+00
      vertex   -2.883640e-02 3.052006e-01 0.000000e+00
    endloop
  endfacet
  facet normal 0.000000e+00 0.000000e+00 -1.000000e+00
    outer loop
      vertex   -1.370000e-01 2.451905e-01 0.000000e+00
      vertex   -1.370000e-01 2.768231e-01 0.000000e+00
      vertex   -2.883640e-02 3.052006e-01 0.000000e+00
    endloop
  endfacet
  facet normal 1.000000e+00 0.000000e+00 0.000000e+00
    outer loop
      vertex   -1.370000e-01 2.768231e-01 0.000000e+00
      vertex   -1.370000e-01 2.451905e-01 0.000000e+00
      vertex   -1.370000e-01 2.451905e-01 -1.500000e-01
    endloop
  endfacet
  facet normal 1.000000e+00 0.000000e+00 0.000000e+00
    outer loop
      vertex   -1.370000e-01 2.451905e-01 -1.500000e-01
      vertex   -1.370000e-01 2.768231e-01 -1.500000e-01
      vertex   -1.370000e-01 2.768231e-01 0.000000e+00
    endloop
  endfacet
  facet normal -2.710869e-01 9.625549e-01 0.000000e+00
    outer loop
      vertex   -1.370000e-01 2.451905e-01 0.000000e+00
      vertex   1.130000e-01 3.155986e-01 0.000000e+00
      vertex   1.130000e-01 3.155986e-01 -1.500000e-01
    endloop
  endfacet
  facet normal -2.710869e-01 9.625549e-01 0.000000e+00
    outer loop
      vertex   1.130000e-01 3.155986e-01 -1.500000e-01
      vertex   -1.370000e-01 2.451905e-01 -1.500000e-01
      vertex   -1.370000e-01 2.451905e-01 0.000000e+00
    endloop
  endfacet
  facet normal -1.000000e+00 0.000000e+00 0.000000e+00
    outer loop
      vertex   1.130000e-01 3.155986e-01 0.000000e+00
      vertex   1.130000e-01 3.499524e-01 0.000000e+00
      vertex   1.130000e-01 3.499524e-01 -1.500000e-01
    endloop
  endfacet
  facet normal -1.000000e+00 0.000000e+00 0.000000e+00
    outer loop
      vertex   1.130000e-01 3.499524e-01 -1.500000e-01
      vertex   1.130000e-01 3.155986e-01 -1.500000e-01
      vertex   1.130000e-01 3.155986e-01 0.000000e+00
    endloop
  endfacet
  facet normal -2.704603e-01 -9.627311e-01 0.000000e+00
    outer loop
      vertex   1.130000e-01 3.499524e-01 -1.500000e-01
      vertex   1.130000e-01 3.499524e-01 0.000000e+00
      vertex   9.221847e-03 3.791068e-01 0.000000e+00
    endloop
  endfacet
  facet normal -2.704603e-01 -9.627311e-01 -0.000000e+00
    outer loop
      vertex   9.221847e-03 3.791068e-01 0.000000e+00
      vertex   9.221847e-03 3.791068e-01 -1.500000e-01
      vertex   1.130000e-01 3.499524e-01 -1.500000e-01
    endloop
  endfacet
  facet normal -2.427229e-01 -9.700957e-01 0.000000e+00
    outer loop
      vertex   9.221847e-03 3.791068e-01 -1.500000e-01
      vertex   9.221847e-03 3.791068e-01 0.000000e+00
      vertex   -9.516327e-02 4.052245e-01 0.000000e+00
    endloop
  endfacet
  facet normal -2.427229e-01 -9.700957e-01 -0.000000e+00
    outer loop
      vertex   -9.516327e-02 4.052245e-01 0.000000e+00
      vertex   -9.516327e-02 4.052245e-01 -1.500000e-01
      vertex   9.221847e-03 3.791068e-01 -1.500000e-01
    endloop
  endfacet
  facet normal -1.000000e+00 0.000000e+00 0.000000e+00
    outer loop
      vertex   -9.516327e-02 4.052245e-01 0.000000e+00
      vertex   -9.516327e-02 4.059048e-01 0.000000e+00
      vertex   -9.516327e-02 4.059048e-01 -1.500000e-01
    endloop
  endfacet
  facet normal -1.000000e+00 0.000000e+00 0.000000e+00
    outer loop
      vertex   -9.516327e-02 4.059048e-01 -1.500000e-01
      vertex   -9.516327e-02 4.052245e-01 -1.500000e-01
      vertex   -9.516327e-02 4.052245e-01 0.000000e+00
    endloop
  endfacet
  facet normal -2.533864e-01 9.673652e-01 0.000000e+00
    outer loop
      vertex   -9.516327e-02 4.059048e-01 -1.500000e-01
      vertex   -9.516327e-02 4.059048e-01 0.000000e+00
      vertex   9.046892e-03 4.332010e-01 0.000000e+00
    endloop
  endfacet
  facet normal -2.533864e-01 9.673652e-01 0.000000e+00
    outer loop
      vertex   9.046892e-03 4.332010e-01 0.000000e+00
      vertex   9.046892e-03 4.332010e-01 -1.500000e-01
      vertex   -9.516327e-02 4.059048e-01 -1.500000e-01
    endloop
  endfacet
  facet normal -2.672165e-01 9.636365e-01 0.000000e+00
    outer loop
      vertex   9.046892e-03 4.332010e-01 -1.500000e-01
      vertex   9.046892e-03 4.332010e-01 0.000000e+00
      vertex   1.130000e-01 4.620272e-01 0.000000e+00
    endloop
  endfacet
  facet normal -2.672165e-01 9.636365e-01 0.000000e+00
    outer loop
      vertex   1.130000e-01 4.620272e-01 0.000000e+00
      vertex   1.130000e-01 4.620272e-01 -1.500000e-01
      vertex   9.046892e-03 4.332010e-01 -1.500000e-01
    endloop
  endfacet
  facet normal -1.000000e+00 0.000000e+00 0.000000e+00
    outer loop
      vertex   1.130000e-01 4.620272e-01 0.000000e+00
      vertex   1.130000e-01 4.960408e-01 0.000000e+00
      vertex   1.130000e-01 4.960408e-01 -1.500000e-01
    endloop
  endfacet
  facet normal -1.000000e+00 0.000000e+00 0.000000e+00
    outer loop
      vertex   1.130000e-01 4.960408e-01 -1.500000e-01
      vertex   1.130000e-01 4.620272e-01 -1.500000e-01
      vertex   1.130000e-01 4.620272e-01 0.000000e+00
    endloop
  endfacet
  facet normal -2.801505e-01 -9.599561e-01 0.000000e+00
    outer loop
      vertex   1.130000e-01 4.960408e-01 0.000000e+00
      vertex   -1.370000e-01 5.690000e-01 0.000000e+00
      vertex   -1.370000e-01 5.690000e-01 -1.500000e-01
    endloop
  endfacet
  facet normal -2.801505e-01 -9.599561e-01 0.000000e+00
    outer loop
      vertex   -1.370000e-01 5.690000e-01 -1.500000e-01
      vertex   1.130000e-01 4.960408e-01 -1.500000e-01
      vertex   1.130000e-01 4.960408e-01 0.000000e+00
    endloop
  endfacet
  facet normal 1.000000e+00 0.000000e+00 0.000000e+00
    outer loop
      vertex   -1.370000e-01 5.690000e-01 0.000000e+00
      vertex   -1.370000e-01 5.368571e-01 0.000000e+00
      vertex   -1.370000e-01 5.368571e-01 -1.500000e-01
    endloop
  endfacet
  facet normal 1.000000e+00 0.000000e+00 0.000000e+00
    outer loop
      vertex   -1.370000e-01 5.368571e-01 -1.500000e-01
      vertex   -1.370000e-01 5.690000e-01 -1.500000e-01
      vertex   -1.370000e-01 5.690000e-01 0.000000e+00
    endloop
  endfacet
  facet normal 2.665861e-01 9.638111e-01 -0.000000e+00
    outer loop
      vertex   -1.370000e-01 5.368571e-01 -1.500000e-01
      vertex   -1.370000e-01 5.368571e-01 0.000000e+00
      vertex   -2.885170e-02 5.069438e-01 0.000000e+00
    endloop
  endfacet
  facet normal 2.665861e-01 9.638111e-01 0.000000e+00
    outer loop
      vertex   -2.885170e-02 5.069438e-01 0.000000e+00
      vertex   -2.885170e-02 5.069438e-01 -1.500000e-01
      vertex   -1.370000e-01 5.368571e-01 -1.500000e-01
    endloop
  endfacet
  facet normal 2.430177e-01 9.700219e-01 -0.000000e+00
    outer loop
      vertex   -2.885170e-02 5.069438e-01 -1.500000e-01
      vertex   -2.885170e-02 5.069438e-01 0.000000e+00
      vertex   7.983673e-02 4.797143e-01 0.000000e+00
    endloop
  endfacet
  facet normal 2.430177e-01 9.700219e-01 0.000000e+00
    outer loop
      vertex   7.983673e-02 4.797143e-01 0.000000e+00
      vertex   7.983673e-02 4.797143e-01 -1.500000e-01
      vertex   -2.885170e-02 5.069438e-01 -1.500000e-01
    endloop
  endfacet
  facet normal 1.000000e+00 0.000000e+00 0.000000e+00
    outer loop
      vertex   7.983673e-02 4.797143e-01 0.000000e+00
      vertex   7.983673e-02 4.788639e-01 0.000000e+00
      vertex   7.983673e-02 4.788639e-01 -1.500000e-01
    endloop
  endfacet
  facet normal 1.000000e+00 0.000000e+00 0.000000e+00
    outer loop
      vertex   7.983673e-02 4.788639e-01 -1.500000e-01
      vertex   7.983673e-02 4.797143e-01 -1.500000e-01
      vertex   7.983673e-02 4.797143e-01 0.000000e+00
    endloop
  endfacet
  facet normal 2.624448e-01 -9.649470e-01 0.000000e+00
    outer loop
      vertex   7.983673e-02 4.788639e-01 -1.500000e-01
      vertex   7.983673e-02 4.788639e-01 0.000000e+00
      vertex   -2.875006e-02 4.493307e-01 1.024443e-16
    endloop
  endfacet
  facet normal 2.624448e-01 -9.649470e-01 0.000000e+00
    outer loop
      vertex   -2.875006e-02 4.493307e-01 1.024443e-16
      vertex   -2.875006e-02 4.493307e-01 -1.500000e-01
      vertex   7.983673e-02 4.788639e-01 -1.500000e-01
    endloop
  endfacet
  facet normal 2.753975e-01 -9.613304e-01 0.000000e+00
    outer loop
      vertex   -2.875006e-02 4.493307e-01 -1.500000e-01
      vertex   -2.875006e-02 4.493307e-01 1.024443e-16
      vertex   -1.370000e-01 4.183197e-01 0.000000e+00
    endloop
  endfacet
  facet normal 2.753975e-01 -9.613304e-01 0.000000e+00
    outer loop
      vertex   -1.370000e-01 4.183197e-01 0.000000e+00
      vertex   -1.370000e-01 4.183197e-01 -1.500000e-01
      vertex   -2.875006e-02 4.493307e-01 -1.500000e-01
    endloop
  endfacet
  facet normal 1.000000e+00 0.000000e+00 0.000000e+00
    outer loop
      vertex   -1.370000e-01 4.183197e-01 0.000000e+00
      vertex   -1.370000e-01 3.902585e-01 0.000000e+00
      vertex   -1.370000e-01 3.902585e-01 -1.500000e-01
    endloop
  endfacet
  facet normal 1.000000e+00 0.000000e+00 0.000000e+00
    outer loop
      vertex   -1.370000e-01 3.902585e-01 -1.500000e-01
      vertex   -1.370000e-01 4.183197e-01 -1.500000e-01
      vertex   -1.370000e-01 4.183197e-01 0.000000e+00
    endloop
  endfacet
  facet normal 2.640512e-01 9.645087e-01 -0.000000e+00
    outer loop
      vertex   -1.370000e-01 3.902585e-01 -1.500000e-01
      vertex   -1.370000e-01 3.902585e-01 0.000000e+00
      vertex   -2.898035e-02 3.606862e-01 0.000000e+00
    endloop
  endfacet
  facet normal 2.640512e-01 9.645087e-01 0.000000e+00
    outer loop
      vertex   -2.898035e-02 3.606862e-01 0.000000e+00
      vertex   -2.898035e-02 3.606862e-01 -1.500000e-01
      vertex   -1.370000e-01 3.902585e-01 -1.500000e-01
    endloop
  endfacet
  facet normal 2.449010e-01 9.695481e-01 -0.000000e+00
    outer loop
      vertex   -2.898035e-02 3.606862e-01 -1.500000e-01
      vertex   -2.898035e-02 3.606862e-01 0.000000e+00
      vertex   7.949660e-02 3.332857e-01 0.000000e+00
    endloop
  endfacet
  facet normal 2.449010e-01 9.695481e-01 0.000000e+00
    outer loop
      vertex   7.949660e-02 3.332857e-01 0.000000e+00
      vertex   7.949660e-02 3.332857e-01 -1.500000e-01
      vertex   -2.898035e-02 3.606862e-01 -1.500000e-01
    endloop
  endfacet
  facet normal 1.000000e+00 0.000000e+00 0.000000e+00
    outer loop
      vertex   7.949660e-02 3.332857e-01 0.000000e+00
      vertex   7.949660e-02 3.326054e-01 0.000000e+00
      vertex   7.949660e-02 3.326054e-01 -1.500000e-01
    endloop
  endfacet
  facet normal 1.000000e+00 0.000000e+00 0.000000e+00
    outer loop
      vertex   7.949660e-02 3.326054e-01 -1.500000e-01
      vertex   7.949660e-02 3.332857e-01 -1.500000e-01
      vertex   7.949660e-02 3.332857e-01 0.000000e+00
    endloop
  endfacet
  facet normal -0.000000e+00 -0.000000e+00 -1.000000e+00
    outer loop
      vertex   1.657143e-02 8.345578e-02 0.000000e+00
      vertex   1.130000e-01 1.508844e-02 0.000000e+00
      vertex   -1.370000e-01 1.111769e-01 0.000000e+00
    endloop
  endfacet
  facet normal 0.000000e+00 0.000000e+00 -1.000000e+00
    outer loop
      vertex   -1.370000e-01 1.111769e-01 0.000000e+00
      vertex   -4.478086e-02 1.059974e-01 0.000000e+00
      vertex   1.657143e-02 8.345578e-02 0.000000e+00
    endloop
  endfacet
  facet normal 0.000000e+00 -0.000000e+00 -1.000000e+00
    outer loop
      vertex   1.130000e-01 2.370272e-01 0.000000e+00
      vertex   1.130000e-01 2.045442e-01 0.000000e+00
      vertex   4.293197e-02 1.797143e-01 0.000000e+00
    endloop
  endfacet
  facet normal 0.000000e+00 0.000000e+00 -1.000000e+00
    outer loop
      vertex   1.657143e-02 1.698503e-01 0.000000e+00
      vertex   -4.484849e-02 1.476411e-01 0.000000e+00
      vertex   -1.370000e-01 1.414490e-01 0.000000e+00
    endloop
  endfacet
  facet normal 0.000000e+00 0.000000e+00 -1.000000e+00
    outer loop
      vertex   -4.484849e-02 1.476411e-01 0.000000e+00
      vertex   -1.067279e-01 1.271633e-01 0.000000e+00
      vertex   -1.370000e-01 1.414490e-01 0.000000e+00
    endloop
  endfacet
  facet normal 0.000000e+00 0.000000e+00 -1.000000e+00
    outer loop
      vertex   -1.370000e-01 1.111769e-01 0.000000e+00
      vertex   -1.370000e-01 1.414490e-01 0.000000e+00
      vertex   -1.067279e-01 1.271633e-01 0.000000e+00
    endloop
  endfacet
  facet normal 0.000000e+00 -0.000000e+00 -1.000000e+00
    outer loop
      vertex   -1.067279e-01 1.271633e-01 0.000000e+00
      vertex   -1.067279e-01 1.264830e-01 0.000000e+00
      vertex   -1.370000e-01 1.111769e-01 0.000000e+00
    endloop
  endfacet
  facet normal 0.000000e+00 0.000000e+00 -1.000000e+00
    outer loop
      vertex   -1.370000e-01 1.111769e-01 0.000000e+00
      vertex   -1.067279e-01 1.264830e-01 0.000000e+00
      vertex   -4.478086e-02 1.059974e-01 0.000000e+00
    endloop
  endfacet
  facet normal 0.000000e+00 0.000000e+00 -1.000000e+00
    outer loop
      vertex   4.293197e-02 7.393197e-02 0.000000e+00
      vertex   1.130000e-01 4.740136e-02 0.000000e+00
      vertex   1.130000e-01 1.508844e-02 0.000000e+00
    endloop
  endfacet
  facet normal 0.000000e+00 0.000000e+00 -1.000000e+00
    outer loop
      vertex   1.130000e-01 1.508844e-02 0.000000e+00
      vertex   1.657143e-02 8.345578e-02 0.000000e+00
      vertex   4.293197e-02 7.393197e-02 0.000000e+00
    endloop
  endfacet
  facet normal 0.000000e+00 0.000000e+00 -1.000000e+00
    outer loop
      vertex   4.293197e-02 1.797143e-01 0.000000e+00
      vertex   4.293197e-02 7.393197e-02 0.000000e+00
      vertex   1.657143e-02 8.345578e-02 0.000000e+00
    endloop
  endfacet
  facet normal 0.000000e+00 0.000000e+00 -1.000000e+00
    outer loop
      vertex   1.657143e-02 8.345578e-02 0.000000e+00
      vertex   1.657143e-02 1.698503e-01 0.000000e+00
      vertex   4.293197e-02 1.797143e-01 0.000000e+00
    endloop
  endfacet
  facet normal -0.000000e+00 0.000000e+00 -1.000000e+00
    outer loop
      vertex   4.293197e-02 1.797143e-01 0.000000e+00
      vertex   1.657143e-02 1.698503e-01 0.000000e+00
      vertex   1.130000e-01 2.370272e-01 0.000000e+00
    endloop
  endfacet
  facet normal 0.000000e+00 0.000000e+00 -1.000000e+00
    outer loop
      vertex   -1.370000e-01 1.414490e-01 0.000000e+00
      vertex   1.130000e-01 2.370272e-01 0.000000e+00
      vertex   1.657143e-02 1.698503e-01 0.000000e+00
    endloop
  endfacet
  facet normal -1.000000e+00 0.000000e+00 0.000000e+00
    outer loop
      vertex   -1.067279e-01 1.264830e-01 0.000000e+00
      vertex   -1.067279e-01 1.271633e-01 0.000000e+00
      vertex   -1.067279e-01 1.271633e-01 -1.500000e-01
    endloop
  endfacet
  facet normal -1.000000e+00 0.000000e+00 0.000000e+00
    outer loop
      vertex   -1.067279e-01 1.271633e-01 -1.500000e-01
      vertex   -1.067279e-01 1.264830e-01 -1.500000e-01
      vertex   -1.067279e-01 1.264830e-01 0.000000e+00
    endloop
  endfacet
  facet normal -3.141752e-01 9.493650e-01 0.000000e+00
    outer loop
      vertex   -1.067279e-01 1.271633e-01 -1.500000e-01
      vertex   -1.067279e-01 1.271633e-01 0.000000e+00
      vertex   -4.484849e-02 1.476411e-01 0.000000e+00
    endloop
  endfacet
  facet normal -3.141752e-01 9.493650e-01 0.000000e+00
    outer loop
      vertex   -4.484849e-02 1.476411e-01 0.000000e+00
      vertex   -4.484849e-02 1.476411e-01 -1.500000e-01
      vertex   -1.067279e-01 1.271633e-01 -1.500000e-01
    endloop
  endfacet
  facet normal -3.400479e-01 9.404081e-01 0.000000e+00
    outer loop
      vertex   -4.484849e-02 1.476411e-01 -1.500000e-01
      vertex   -4.484849e-02 1.476411e-01 0.000000e+00
      vertex   1.657143e-02 1.698503e-01 0.000000e+00
    endloop
  endfacet
  facet normal -3.400479e-01 9.404081e-01 0.000000e+00
    outer loop
      vertex   1.657143e-02 1.698503e-01 0.000000e+00
      vertex   1.657143e-02 1.698503e-01 -1.500000e-01
      vertex   -4.484849e-02 1.476411e-01 -1.500000e-01
    endloop
  endfacet
  facet normal 1.000000e+00 0.000000e+00 0.000000e+00
    outer loop
      vertex   1.657143e-02 1.698503e-01 0.000000e+00
      vertex   1.657143e-02 8.345578e-02 0.000000e+00
      vertex   1.657143e-02 8.345578e-02 -1.500000e-01
    endloop
  endfacet
  facet normal 1.000000e+00 0.000000e+00 0.000000e+00
    outer loop
      vertex   1.657143e-02 8.345578e-02 -1.500000e-01
      vertex   1.657143e-02 1.698503e-01 -1.500000e-01
      vertex   1.657143e-02 1.698503e-01 0.000000e+00
    endloop
  endfacet
  facet normal -3.448714e-01 -9.386499e-01 0.000000e+00
    outer loop
      vertex   1.657143e-02 8.345578e-02 -1.500000e-01
      vertex   1.657143e-02 8.345578e-02 0.000000e+00
      vertex   -4.478086e-02 1.059974e-01 0.000000e+00
    endloop
  endfacet
  facet normal -3.448714e-01 -9.386499e-01 -0.000000e+00
    outer loop
      vertex   -4.478086e-02 1.059974e-01 0.000000e+00
      vertex   -4.478086e-02 1.059974e-01 -1.500000e-01
      vertex   1.657143e-02 8.345578e-02 -1.500000e-01
    endloop
  endfacet
  facet normal -3.139733e-01 -9.494318e-01 0.000000e+00
    outer loop
      vertex   -4.478086e-02 1.059974e-01 -1.500000e-01
      vertex   -4.478086e-02 1.059974e-01 0.000000e+00
      vertex   -1.067279e-01 1.264830e-01 0.000000e+00
    endloop
  endfacet
  facet normal -3.139733e-01 -9.494318e-01 -0.000000e+00
    outer loop
      vertex   -1.067279e-01 1.264830e-01 0.000000e+00
      vertex   -1.067279e-01 1.264830e-01 -1.500000e-01
      vertex   -4.478086e-02 1.059974e-01 -1.500000e-01
    endloop
  endfacet
  facet normal 0.000000e+00 0.000000e+00 -1.000000e+00
    outer loop
      vertex   -4.478086e-02 1.059974e-01 -1.500000e-01
      vertex   -1.067279e-01 1.264830e-01 -1.500000e-01
      vertex   -1.067279e-01 1.271633e-01 -1.500000e-01
    endloop
  endfacet
  facet normal 0.000000e+00 0.000000e+00 -1.000000e+00
    outer loop
      vertex   -1.067279e-01 1.271633e-01 -1.500000e-01
      vertex   -4.484849e-02 1.476411e-01 -1.500000e-01
      vertex   -4.478086e-02 1.059974e-01 -1.500000e-01
    endloop
  endfacet
  facet normal 0.000000e+00 0.000000e+00 -1.000000e+00
    outer loop
      vertex   1.657143e-02 8.345578e-02 -1.500000e-01
      vertex   -4.478086e-02 1.059974e-01 -1.500000e-01
      vertex   -4.484849e-02 1.476411e-01 -1.500000e-01
    endloop
  endfacet
  facet normal 0.000000e+00 0.000000e+00 -1.000000e+00
    outer loop
      vertex   -4.484849e-02 1.476411e-01 -1.500000e-01
      vertex   1.657143e-02 1.698503e-01 -1.500000e-01
      vertex   1.657143e-02 8.345578e-02 -1.500000e-01
    endloop
  endfacet
endsolid
