solid ascii
  facet normal -2.393157e-01 0.000000e+00 9.709418e-01
    outer loop
      vertex   4.647232e-02 3.000000e-01 -8.854560e-02
      vertex   0.000000e+00 3.000000e-01 -1.000000e-01
      vertex   0.000000e+00 6.829620e-17 -1.000000e-01
    endloop
  endfacet
  facet normal -2.393157e-01 0.000000e+00 9.709418e-01
    outer loop
      vertex   0.000000e+00 6.829620e-17 -1.000000e-01
      vertex   4.647232e-02 6.829620e-17 -8.854560e-02
      vertex   4.647232e-02 3.000000e-01 -8.854560e-02
    endloop
  endfacet
  facet normal -6.631227e-01 0.000000e+00 7.485107e-01
    outer loop
      vertex   8.229839e-02 3.000000e-01 -5.680647e-02
      vertex   4.647232e-02 3.000000e-01 -8.854560e-02
      vertex   4.647232e-02 6.829620e-17 -8.854560e-02
    endloop
  endfacet
  facet normal -6.631227e-01 0.000000e+00 7.485107e-01
    outer loop
      vertex   4.647232e-02 6.829620e-17 -8.854560e-02
      vertex   8.229839e-02 6.829620e-17 -5.680647e-02
      vertex   8.229839e-02 3.000000e-01 -5.680647e-02
    endloop
  endfacet
  facet normal -9.350162e-01 0.000000e+00 3.546049e-01
    outer loop
      vertex   9.927089e-02 3.000000e-01 -1.205367e-02
      vertex   8.229839e-02 3.000000e-01 -5.680647e-02
      vertex   8.229839e-02 6.829620e-17 -5.680647e-02
    endloop
  endfacet
  facet normal -9.350162e-01 0.000000e+00 3.546049e-01
    outer loop
      vertex   8.229839e-02 6.829620e-17 -5.680647e-02
      vertex   9.927089e-02 6.829620e-17 -1.205367e-02
      vertex   9.927089e-02 3.000000e-01 -1.205367e-02
    endloop
  endfacet
  facet normal -9.981756e-01 0.000000e+00 6.037850e-02
    outer loop
      vertex   1.000000e-01 3.000000e-01 -6.123234e-18
      vertex   9.927089e-02 3.000000e-01 -1.205367e-02
      vertex   9.927089e-02 6.829620e-17 -1.205367e-02
    endloop
  endfacet
  facet normal -9.981756e-01 -4.774353e-18 6.037850e-02
    outer loop
      vertex   9.927089e-02 6.829620e-17 -1.205367e-02
      vertex   1.000000e-01 6.829620e-17 -3.061617e-17
      vertex   1.000000e-01 3.000000e-01 -6.123234e-18
    endloop
  endfacet
  facet normal -9.836199e-01 1.747204e-17 -1.802550e-01
    outer loop
      vertex   9.350162e-02 3.000000e-01 3.546049e-02
      vertex   1.000000e-01 3.000000e-01 -6.123234e-18
      vertex   1.000000e-01 6.829620e-17 -3.061617e-17
    endloop
  endfacet
  facet normal -9.836199e-01 -3.494408e-18 -1.802550e-01
    outer loop
      vertex   1.000000e-01 6.829620e-17 -3.061617e-17
      vertex   9.350162e-02 6.829620e-17 3.546049e-02
      vertex   9.350162e-02 3.000000e-01 3.546049e-02
    endloop
  endfacet
  facet normal -8.229839e-01 0.000000e+00 -5.680647e-01
    outer loop
      vertex   6.631227e-02 3.000000e-01 7.485107e-02
      vertex   9.350162e-02 3.000000e-01 3.546049e-02
      vertex   9.350162e-02 6.829620e-17 3.546049e-02
    endloop
  endfacet
  facet normal -8.229839e-01 0.000000e+00 -5.680647e-01
    outer loop
      vertex   9.350162e-02 6.829620e-17 3.546049e-02
      vertex   6.631227e-02 6.829620e-17 7.485107e-02
      vertex   6.631227e-02 3.000000e-01 7.485107e-02
    endloop
  endfacet
  facet normal -4.647232e-01 0.000000e+00 -8.854560e-01
    outer loop
      vertex   2.393157e-02 3.000000e-01 9.709418e-02
      vertex   6.631227e-02 3.000000e-01 7.485107e-02
      vertex   6.631227e-02 6.829620e-17 7.485107e-02
    endloop
  endfacet
  facet normal -4.647232e-01 0.000000e+00 -8.854560e-01
    outer loop
      vertex   6.631227e-02 6.829620e-17 7.485107e-02
      vertex   2.393157e-02 6.829620e-17 9.709418e-02
      vertex   2.393157e-02 3.000000e-01 9.709418e-02
    endloop
  endfacet
  facet normal -7.134531e-16 0.000000e+00 -1.000000e+00
    outer loop
      vertex   -2.393157e-02 3.000000e-01 9.709418e-02
      vertex   2.393157e-02 3.000000e-01 9.709418e-02
      vertex   2.393157e-02 6.829620e-17 9.709418e-02
    endloop
  endfacet
  facet normal -7.134531e-16 0.000000e+00 -1.000000e+00
    outer loop
      vertex   2.393157e-02 6.829620e-17 9.709418e-02
      vertex   -2.393157e-02 6.829620e-17 9.709418e-02
      vertex   -2.393157e-02 3.000000e-01 9.709418e-02
    endloop
  endfacet
  facet normal 4.647232e-01 1.405330e-17 -8.854560e-01
    outer loop
      vertex   -6.631227e-02 3.000000e-01 7.485107e-02
      vertex   -2.393157e-02 3.000000e-01 9.709418e-02
      vertex   -2.393157e-02 6.829620e-17 9.709418e-02
    endloop
  endfacet
  facet normal 4.647232e-01 1.405330e-17 -8.854560e-01
    outer loop
      vertex   -2.393157e-02 6.829620e-17 9.709418e-02
      vertex   -6.631227e-02 6.829620e-17 7.485107e-02
      vertex   -6.631227e-02 3.000000e-01 7.485107e-02
    endloop
  endfacet
  facet normal 8.229839e-01 0.000000e+00 -5.680647e-01
    outer loop
      vertex   -9.350162e-02 3.000000e-01 3.546049e-02
      vertex   -6.631227e-02 3.000000e-01 7.485107e-02
      vertex   -6.631227e-02 6.829620e-17 7.485107e-02
    endloop
  endfacet
  facet normal 8.229839e-01 0.000000e+00 -5.680647e-01
    outer loop
      vertex   -6.631227e-02 6.829620e-17 7.485107e-02
      vertex   -9.350162e-02 6.829620e-17 3.546049e-02
      vertex   -9.350162e-02 3.000000e-01 3.546049e-02
    endloop
  endfacet
  facet normal 9.927089e-01 -3.513326e-18 -1.205367e-01
    outer loop
      vertex   -9.927089e-02 3.000000e-01 -1.205367e-02
      vertex   -9.350162e-02 3.000000e-01 3.546049e-02
      vertex   -9.350162e-02 6.829620e-17 3.546049e-02
    endloop
  endfacet
  facet normal 9.927089e-01 -3.513326e-18 -1.205367e-01
    outer loop
      vertex   -9.350162e-02 6.829620e-17 3.546049e-02
      vertex   -9.927089e-02 6.829620e-17 -1.205367e-02
      vertex   -9.927089e-02 3.000000e-01 -1.205367e-02
    endloop
  endfacet
  facet normal 9.350162e-01 0.000000e+00 3.546049e-01
    outer loop
      vertex   -8.229839e-02 3.000000e-01 -5.680647e-02
      vertex   -9.927089e-02 3.000000e-01 -1.205367e-02
      vertex   -9.927089e-02 6.829620e-17 -1.205367e-02
    endloop
  endfacet
  facet normal 9.350162e-01 0.000000e+00 3.546049e-01
    outer loop
      vertex   -9.927089e-02 6.829620e-17 -1.205367e-02
      vertex   -8.229839e-02 6.829620e-17 -5.680647e-02
      vertex   -8.229839e-02 3.000000e-01 -5.680647e-02
    endloop
  endfacet
  facet normal 6.631227e-01 0.000000e+00 7.485107e-01
    outer loop
      vertex   -4.647232e-02 3.000000e-01 -8.854560e-02
      vertex   -8.229839e-02 3.000000e-01 -5.680647e-02
      vertex   -8.229839e-02 6.829620e-17 -5.680647e-02
    endloop
  endfacet
  facet normal 6.631227e-01 0.000000e+00 7.485107e-01
    outer loop
      vertex   -8.229839e-02 6.829620e-17 -5.680647e-02
      vertex   -4.647232e-02 6.829620e-17 -8.854560e-02
      vertex   -4.647232e-02 3.000000e-01 -8.854560e-02
    endloop
  endfacet
  facet normal 2.393157e-01 0.000000e+00 9.709418e-01
    outer loop
      vertex   0.000000e+00 3.000000e-01 -1.000000e-01
      vertex   -4.647232e-02 3.000000e-01 -8.854560e-02
      vertex   -4.647232e-02 6.829620e-17 -8.854560e-02
    endloop
  endfacet
  facet normal 2.393157e-01 0.000000e+00 9.709418e-01
    outer loop
      vertex   -4.647232e-02 6.829620e-17 -8.854560e-02
      vertex   0.000000e+00 6.829620e-17 -1.000000e-01
      vertex   0.000000e+00 3.000000e-01 -1.000000e-01
    endloop
  endfacet
  facet normal -1.958041e-15 1.000000e+00 -1.351538e-15
    outer loop
      vertex   5.956149e-02 3.000000e-01 1.098974e-01
      vertex   9.350162e-02 3.000000e-01 3.546049e-02
      vertex   6.631227e-02 3.000000e-01 7.485107e-02
    endloop
  endfacet
  facet normal -5.689043e-16 1.000000e+00 -1.083957e-15
    outer loop
      vertex   6.631227e-02 3.000000e-01 7.485107e-02
      vertex   2.393157e-02 3.000000e-01 9.709418e-02
      vertex   5.956149e-02 3.000000e-01 1.098974e-01
    endloop
  endfacet
  facet normal -1.526010e-15 1.000000e+00 1.579570e-15
    outer loop
      vertex   2.393157e-02 3.000000e-01 9.709418e-02
      vertex   7.256607e-02 3.000000e-01 1.224610e-01
      vertex   5.956149e-02 3.000000e-01 1.098974e-01
    endloop
  endfacet
  facet normal 0.000000e+00 1.000000e+00 0.000000e+00
    outer loop
      vertex   2.443398e-01 3.000000e-01 -1.800628e-01
      vertex   3.825135e-01 3.000000e-01 -4.290294e-02
      vertex   3.895585e-01 3.000000e-01 -5.000000e-02
    endloop
  endfacet
  facet normal 0.000000e+00 1.000000e+00 0.000000e+00
    outer loop
      vertex   3.895585e-01 3.000000e-01 -5.000000e-02
      vertex   2.467575e-01 3.000000e-01 -1.917532e-01
      vertex   2.443398e-01 3.000000e-01 -1.800628e-01
    endloop
  endfacet
  facet normal 0.000000e+00 1.000000e+00 0.000000e+00
    outer loop
      vertex   6.201057e-02 3.000000e-01 -1.085343e-01
      vertex   2.443398e-01 3.000000e-01 -1.800628e-01
      vertex   2.467575e-01 3.000000e-01 -1.917532e-01
    endloop
  endfacet
  facet normal 0.000000e+00 1.000000e+00 0.000000e+00
    outer loop
      vertex   2.467575e-01 3.000000e-01 -1.917532e-01
      vertex   4.999991e-02 3.000000e-01 -1.145644e-01
      vertex   6.201057e-02 3.000000e-01 -1.085343e-01
    endloop
  endfacet
  facet normal 0.000000e+00 1.000000e+00 -0.000000e+00
    outer loop
      vertex   4.999991e-02 3.000000e-01 -1.145644e-01
      vertex   -1.286701e-02 3.000000e-01 -1.243360e-01
      vertex   6.201057e-02 3.000000e-01 -1.085343e-01
    endloop
  endfacet
  facet normal 0.000000e+00 1.000000e+00 0.000000e+00
    outer loop
      vertex   4.999991e-02 3.000000e-01 1.145644e-01
      vertex   6.335745e-02 3.000000e-01 1.274690e-01
      vertex   7.256607e-02 3.000000e-01 1.224610e-01
    endloop
  endfacet
  facet normal 1.431375e-15 1.000000e+00 -4.090480e-15
    outer loop
      vertex   7.256607e-02 3.000000e-01 1.224610e-01
      vertex   2.393157e-02 3.000000e-01 9.709418e-02
      vertex   4.999991e-02 3.000000e-01 1.145644e-01
    endloop
  endfacet
  facet normal -9.166701e-16 1.000000e+00 -5.868276e-16
    outer loop
      vertex   6.164375e-03 3.000000e-01 1.248479e-01
      vertex   4.999991e-02 3.000000e-01 1.145644e-01
      vertex   2.393157e-02 3.000000e-01 9.709418e-02
    endloop
  endfacet
  facet normal 0.000000e+00 1.000000e+00 0.000000e+00
    outer loop
      vertex   2.393157e-02 3.000000e-01 9.709418e-02
      vertex   -2.393157e-02 3.000000e-01 9.709418e-02
      vertex   6.164375e-03 3.000000e-01 1.248479e-01
    endloop
  endfacet
  facet normal 0.000000e+00 1.000000e+00 -0.000000e+00
    outer loop
      vertex   -2.393157e-02 3.000000e-01 9.709418e-02
      vertex   -5.608634e-02 3.000000e-01 1.117109e-01
      vertex   6.164375e-03 3.000000e-01 1.248479e-01
    endloop
  endfacet
  facet normal 0.000000e+00 1.000000e+00 0.000000e+00
    outer loop
      vertex   -1.038076e-01 3.000000e-01 6.963460e-02
      vertex   -5.608634e-02 3.000000e-01 1.117109e-01
      vertex   -2.393157e-02 3.000000e-01 9.709418e-02
    endloop
  endfacet
  facet normal 0.000000e+00 1.000000e+00 0.000000e+00
    outer loop
      vertex   -2.393157e-02 3.000000e-01 9.709418e-02
      vertex   -6.631227e-02 3.000000e-01 7.485107e-02
      vertex   -1.038076e-01 3.000000e-01 6.963460e-02
    endloop
  endfacet
  facet normal -0.000000e+00 1.000000e+00 0.000000e+00
    outer loop
      vertex   -1.038076e-01 3.000000e-01 6.963460e-02
      vertex   -6.631227e-02 3.000000e-01 7.485107e-02
      vertex   -9.350162e-02 3.000000e-01 3.546049e-02
    endloop
  endfacet
  facet normal 0.000000e+00 1.000000e+00 0.000000e+00
    outer loop
      vertex   -1.246370e-01 3.000000e-01 9.519134e-03
      vertex   -1.038076e-01 3.000000e-01 6.963460e-02
      vertex   -9.350162e-02 3.000000e-01 3.546049e-02
    endloop
  endfacet
  facet normal 0.000000e+00 1.000000e+00 0.000000e+00
    outer loop
      vertex   -9.350162e-02 3.000000e-01 3.546049e-02
      vertex   -9.927089e-02 3.000000e-01 -1.205367e-02
      vertex   -1.246370e-01 3.000000e-01 9.519134e-03
    endloop
  endfacet
  facet normal 0.000000e+00 1.000000e+00 -0.000000e+00
    outer loop
      vertex   -1.131786e-01 3.000000e-01 -5.306232e-02
      vertex   -1.246370e-01 3.000000e-01 9.519134e-03
      vertex   -9.927089e-02 3.000000e-01 -1.205367e-02
    endloop
  endfacet
  facet normal 0.000000e+00 1.000000e+00 0.000000e+00
    outer loop
      vertex   -9.927089e-02 3.000000e-01 -1.205367e-02
      vertex   -8.229839e-02 3.000000e-01 -5.680647e-02
      vertex   -1.131786e-01 3.000000e-01 -5.306232e-02
    endloop
  endfacet
  facet normal 0.000000e+00 1.000000e+00 0.000000e+00
    outer loop
      vertex   -7.240067e-02 3.000000e-01 -1.018977e-01
      vertex   -1.131786e-01 3.000000e-01 -5.306232e-02
      vertex   -8.229839e-02 3.000000e-01 -5.680647e-02
    endloop
  endfacet
  facet normal 0.000000e+00 1.000000e+00 0.000000e+00
    outer loop
      vertex   -8.229839e-02 3.000000e-01 -5.680647e-02
      vertex   -4.647232e-02 3.000000e-01 -8.854560e-02
      vertex   -7.240067e-02 3.000000e-01 -1.018977e-01
    endloop
  endfacet
  facet normal 0.000000e+00 1.000000e+00 0.000000e+00
    outer loop
      vertex   -1.286701e-02 3.000000e-01 -1.243360e-01
      vertex   -7.240067e-02 3.000000e-01 -1.018977e-01
      vertex   -4.647232e-02 3.000000e-01 -8.854560e-02
    endloop
  endfacet
  facet normal 0.000000e+00 1.000000e+00 0.000000e+00
    outer loop
      vertex   -4.647232e-02 3.000000e-01 -8.854560e-02
      vertex   0.000000e+00 3.000000e-01 -1.000000e-01
      vertex   -1.286701e-02 3.000000e-01 -1.243360e-01
    endloop
  endfacet
  facet normal 0.000000e+00 1.000000e+00 0.000000e+00
    outer loop
      vertex   6.201057e-02 3.000000e-01 -1.085343e-01
      vertex   -1.286701e-02 3.000000e-01 -1.243360e-01
      vertex   0.000000e+00 3.000000e-01 -1.000000e-01
    endloop
  endfacet
  facet normal -0.000000e+00 1.000000e+00 0.000000e+00
    outer loop
      vertex   0.000000e+00 3.000000e-01 -1.000000e-01
      vertex   4.647232e-02 3.000000e-01 -8.854560e-02
      vertex   6.201057e-02 3.000000e-01 -1.085343e-01
    endloop
  endfacet
  facet normal -4.266092e-16 1.000000e+00 -3.316260e-16
    outer loop
      vertex   1.074009e-01 3.000000e-01 -6.395344e-02
      vertex   6.201057e-02 3.000000e-01 -1.085343e-01
      vertex   4.647232e-02 3.000000e-01 -8.854560e-02
    endloop
  endfacet
  facet normal -1.029494e-15 1.000000e+00 1.162058e-15
    outer loop
      vertex   4.647232e-02 3.000000e-01 -8.854560e-02
      vertex   8.229839e-02 3.000000e-01 -5.680647e-02
      vertex   1.074009e-01 3.000000e-01 -6.395344e-02
    endloop
  endfacet
  facet normal -1.257487e-15 1.000000e+00 3.612700e-16
    outer loop
      vertex   1.249685e-01 3.000000e-01 -2.805159e-03
      vertex   1.074009e-01 3.000000e-01 -6.395344e-02
      vertex   8.229839e-02 3.000000e-01 -5.680647e-02
    endloop
  endfacet
  facet normal -3.671384e-16 1.000000e+00 -6.261524e-16
    outer loop
      vertex   9.350162e-02 3.000000e-01 3.546049e-02
      vertex   5.956149e-02 3.000000e-01 1.098974e-01
      vertex   6.681818e-02 3.000000e-01 1.056425e-01
    endloop
  endfacet
  facet normal -8.838984e-16 1.000000e+00 -8.226265e-16
    outer loop
      vertex   6.681818e-02 3.000000e-01 1.056425e-01
      vertex   1.101624e-01 3.000000e-01 5.906982e-02
      vertex   9.350162e-02 3.000000e-01 3.546049e-02
    endloop
  endfacet
  facet normal -1.627080e-15 1.000000e+00 -2.981734e-16
    outer loop
      vertex   1.000000e-01 3.000000e-01 -6.123234e-18
      vertex   9.350162e-02 3.000000e-01 3.546049e-02
      vertex   1.101624e-01 3.000000e-01 5.906982e-02
    endloop
  endfacet
  facet normal -1.405429e-15 1.000000e+00 -3.363063e-16
    outer loop
      vertex   1.101624e-01 3.000000e-01 5.906982e-02
      vertex   1.249685e-01 3.000000e-01 -2.805159e-03
      vertex   1.000000e-01 3.000000e-01 -6.123234e-18
    endloop
  endfacet
  facet normal -1.358415e-15 1.000000e+00 8.216895e-17
    outer loop
      vertex   1.249685e-01 3.000000e-01 -2.805159e-03
      vertex   9.927089e-02 3.000000e-01 -1.205367e-02
      vertex   1.000000e-01 3.000000e-01 -6.123234e-18
    endloop
  endfacet
  facet normal -1.538886e-15 1.000000e+00 5.836226e-16
    outer loop
      vertex   8.229839e-02 3.000000e-01 -5.680647e-02
      vertex   9.927089e-02 3.000000e-01 -1.205367e-02
      vertex   1.249685e-01 3.000000e-01 -2.805159e-03
    endloop
  endfacet
  facet normal 3.652062e-01 0.000000e+00 9.309266e-01
    outer loop
      vertex   6.201057e-02 3.000000e-01 -1.085343e-01
      vertex   6.201057e-02 0.000000e+00 -1.085343e-01
      vertex   2.443398e-01 0.000000e+00 -1.800628e-01
    endloop
  endfacet
  facet normal 3.652062e-01 -0.000000e+00 9.309266e-01
    outer loop
      vertex   2.443398e-01 0.000000e+00 -1.800628e-01
      vertex   2.443398e-01 3.000000e-01 -1.800628e-01
      vertex   6.201057e-02 3.000000e-01 -1.085343e-01
    endloop
  endfacet
  facet normal -7.044983e-01 0.000000e+00 7.097057e-01
    outer loop
      vertex   3.825135e-01 0.000000e+00 -4.290294e-02
      vertex   3.825135e-01 3.000000e-01 -4.290294e-02
      vertex   2.443398e-01 3.000000e-01 -1.800628e-01
    endloop
  endfacet
  facet normal -7.044983e-01 0.000000e+00 7.097057e-01
    outer loop
      vertex   2.443398e-01 3.000000e-01 -1.800628e-01
      vertex   2.443398e-01 0.000000e+00 -1.800628e-01
      vertex   3.825135e-01 0.000000e+00 -4.290294e-02
    endloop
  endfacet
  facet normal 7.097057e-01 -0.000000e+00 7.044983e-01
    outer loop
      vertex   3.895585e-01 0.000000e+00 -5.000000e-02
      vertex   3.895585e-01 3.000000e-01 -5.000000e-02
      vertex   3.825135e-01 3.000000e-01 -4.290294e-02
    endloop
  endfacet
  facet normal 7.097057e-01 0.000000e+00 7.044983e-01
    outer loop
      vertex   3.825135e-01 3.000000e-01 -4.290294e-02
      vertex   3.825135e-01 0.000000e+00 -4.290294e-02
      vertex   3.895585e-01 0.000000e+00 -5.000000e-02
    endloop
  endfacet
  facet normal 7.044983e-01 0.000000e+00 -7.097057e-01
    outer loop
      vertex   2.467575e-01 0.000000e+00 -1.917532e-01
      vertex   2.467575e-01 3.000000e-01 -1.917532e-01
      vertex   3.895585e-01 3.000000e-01 -5.000000e-02
    endloop
  endfacet
  facet normal 7.044983e-01 0.000000e+00 -7.097057e-01
    outer loop
      vertex   3.895585e-01 3.000000e-01 -5.000000e-02
      vertex   3.895585e-01 0.000000e+00 -5.000000e-02
      vertex   2.467575e-01 0.000000e+00 -1.917532e-01
    endloop
  endfacet
  facet normal -3.652062e-01 1.267498e-16 -9.309266e-01
    outer loop
      vertex   4.999991e-02 0.000000e+00 -1.145644e-01
      vertex   4.999991e-02 3.000000e-01 -1.145644e-01
      vertex   2.467575e-01 3.000000e-01 -1.917532e-01
    endloop
  endfacet
  facet normal -3.652062e-01 -0.000000e+00 -9.309266e-01
    outer loop
      vertex   2.467575e-01 3.000000e-01 -1.917532e-01
      vertex   2.467575e-01 0.000000e+00 -1.917532e-01
      vertex   4.999991e-02 0.000000e+00 -1.145644e-01
    endloop
  endfacet
  facet normal -4.777629e-01 0.000000e+00 -8.784888e-01
    outer loop
      vertex   7.256607e-02 3.000000e-01 1.224610e-01
      vertex   6.335745e-02 3.000000e-01 1.274690e-01
      vertex   6.335745e-02 4.800000e-01 1.274690e-01
    endloop
  endfacet
  facet normal -4.777629e-01 6.950650e-18 -8.784888e-01
    outer loop
      vertex   6.335745e-02 4.800000e-01 1.274690e-01
      vertex   7.256607e-02 4.800000e-01 1.224610e-01
      vertex   7.256607e-02 3.000000e-01 1.224610e-01
    endloop
  endfacet
  facet normal 6.948084e-01 -2.000331e-16 -7.191949e-01
    outer loop
      vertex   7.256607e-02 3.000000e-01 1.224610e-01
      vertex   7.256607e-02 4.800000e-01 1.224610e-01
      vertex   2.482434e-01 4.800000e-01 2.921815e-01
    endloop
  endfacet
  facet normal 6.948084e-01 0.000000e+00 -7.191949e-01
    outer loop
      vertex   2.482434e-01 4.800000e-01 2.921815e-01
      vertex   2.482434e-01 1.800000e-01 2.921815e-01
      vertex   7.256607e-02 3.000000e-01 1.224610e-01
    endloop
  endfacet
  facet normal 6.948084e-01 2.535644e-15 -7.191949e-01
    outer loop
      vertex   5.956149e-02 3.000000e-01 1.098974e-01
      vertex   7.256607e-02 3.000000e-01 1.224610e-01
      vertex   2.482434e-01 1.800000e-01 2.921815e-01
    endloop
  endfacet
  facet normal 6.948084e-01 -1.334549e-16 -7.191949e-01
    outer loop
      vertex   2.482434e-01 1.800000e-01 2.921815e-01
      vertex   5.956149e-02 1.800000e-01 1.098974e-01
      vertex   5.956149e-02 3.000000e-01 1.098974e-01
    endloop
  endfacet
  facet normal -6.948084e-01 1.544733e-16 7.191949e-01
    outer loop
      vertex   6.335745e-02 3.000000e-01 1.274690e-01
      vertex   4.999991e-02 3.000000e-01 1.145644e-01
      vertex   4.999991e-02 1.800000e-01 1.145644e-01
    endloop
  endfacet
  facet normal -6.948084e-01 5.898071e-16 7.191949e-01
    outer loop
      vertex   4.999991e-02 1.800000e-01 1.145644e-01
      vertex   2.467575e-01 1.800000e-01 3.046503e-01
      vertex   6.335745e-02 3.000000e-01 1.274690e-01
    endloop
  endfacet
  facet normal -6.948084e-01 0.000000e+00 7.191949e-01
    outer loop
      vertex   6.335745e-02 4.800000e-01 1.274690e-01
      vertex   6.335745e-02 3.000000e-01 1.274690e-01
      vertex   2.467575e-01 1.800000e-01 3.046503e-01
    endloop
  endfacet
  facet normal -6.948084e-01 0.000000e+00 7.191949e-01
    outer loop
      vertex   2.467575e-01 1.800000e-01 3.046503e-01
      vertex   2.467575e-01 4.800000e-01 3.046503e-01
      vertex   6.335745e-02 4.800000e-01 1.274690e-01
    endloop
  endfacet
  facet normal 0.000000e+00 1.000000e+00 0.000000e+00
    outer loop
      vertex   2.482434e-01 4.800000e-01 2.921815e-01
      vertex   7.256607e-02 4.800000e-01 1.224610e-01
      vertex   6.335745e-02 4.800000e-01 1.274690e-01
    endloop
  endfacet
  facet normal 0.000000e+00 1.000000e+00 0.000000e+00
    outer loop
      vertex   6.335745e-02 4.800000e-01 1.274690e-01
      vertex   2.467575e-01 4.800000e-01 3.046503e-01
      vertex   2.482434e-01 4.800000e-01 2.921815e-01
    endloop
  endfacet
  facet normal 0.000000e+00 1.000000e+00 0.000000e+00
    outer loop
      vertex   4.269955e-01 4.800000e-01 1.872261e-01
      vertex   2.482434e-01 4.800000e-01 2.921815e-01
      vertex   2.467575e-01 4.800000e-01 3.046503e-01
    endloop
  endfacet
  facet normal 0.000000e+00 1.000000e+00 0.000000e+00
    outer loop
      vertex   2.467575e-01 4.800000e-01 3.046503e-01
      vertex   4.320588e-01 4.800000e-01 1.958496e-01
      vertex   4.269955e-01 4.800000e-01 1.872261e-01
    endloop
  endfacet
  facet normal 0.000000e+00 -1.000000e+00 0.000000e+00
    outer loop
      vertex   2.482434e-01 1.800000e-01 2.921815e-01
      vertex   4.269955e-01 1.800000e-01 1.872261e-01
      vertex   4.320588e-01 1.800000e-01 1.958496e-01
    endloop
  endfacet
  facet normal 0.000000e+00 -1.000000e+00 0.000000e+00
    outer loop
      vertex   4.320588e-01 1.800000e-01 1.958496e-01
      vertex   2.467575e-01 1.800000e-01 3.046503e-01
      vertex   2.482434e-01 1.800000e-01 2.921815e-01
    endloop
  endfacet
  facet normal 0.000000e+00 -1.000000e+00 0.000000e+00
    outer loop
      vertex   5.956149e-02 1.800000e-01 1.098974e-01
      vertex   2.482434e-01 1.800000e-01 2.921815e-01
      vertex   2.467575e-01 1.800000e-01 3.046503e-01
    endloop
  endfacet
  facet normal 0.000000e+00 -1.000000e+00 0.000000e+00
    outer loop
      vertex   2.467575e-01 1.800000e-01 3.046503e-01
      vertex   4.999991e-02 1.800000e-01 1.145644e-01
      vertex   5.956149e-02 1.800000e-01 1.098974e-01
    endloop
  endfacet
  facet normal 5.063284e-01 -0.000000e+00 8.623407e-01
    outer loop
      vertex   4.320588e-01 1.800000e-01 1.958496e-01
      vertex   4.320588e-01 4.800000e-01 1.958496e-01
      vertex   2.467575e-01 4.800000e-01 3.046503e-01
    endloop
  endfacet
  facet normal 5.063284e-01 0.000000e+00 8.623407e-01
    outer loop
      vertex   2.467575e-01 4.800000e-01 3.046503e-01
      vertex   2.467575e-01 1.800000e-01 3.046503e-01
      vertex   4.320588e-01 1.800000e-01 1.958496e-01
    endloop
  endfacet
  facet normal -5.063284e-01 0.000000e+00 -8.623407e-01
    outer loop
      vertex   2.482434e-01 1.800000e-01 2.921815e-01
      vertex   2.482434e-01 4.800000e-01 2.921815e-01
      vertex   4.269955e-01 4.800000e-01 1.872261e-01
    endloop
  endfacet
  facet normal -5.063284e-01 -0.000000e+00 -8.623407e-01
    outer loop
      vertex   4.269955e-01 4.800000e-01 1.872261e-01
      vertex   4.269955e-01 1.800000e-01 1.872261e-01
      vertex   2.482434e-01 1.800000e-01 2.921815e-01
    endloop
  endfacet
  facet normal 8.623407e-01 0.000000e+00 -5.063284e-01
    outer loop
      vertex   4.269955e-01 1.800000e-01 1.872261e-01
      vertex   4.269955e-01 4.800000e-01 1.872261e-01
      vertex   4.320588e-01 4.800000e-01 1.958496e-01
    endloop
  endfacet
  facet normal 8.623407e-01 0.000000e+00 -5.063284e-01
    outer loop
      vertex   4.320588e-01 4.800000e-01 1.958496e-01
      vertex   4.320588e-01 1.800000e-01 1.958496e-01
      vertex   4.269955e-01 1.800000e-01 1.872261e-01
    endloop
  endfacet
  facet normal 2.283919e-01 1.222749e-16 9.735693e-01
    outer loop
      vertex   4.999991e-02 1.800000e-01 1.145644e-01
      vertex   4.999991e-02 3.000000e-01 1.145644e-01
      vertex   6.164375e-03 3.000000e-01 1.248479e-01
    endloop
  endfacet
  facet normal 5.058051e-01 6.955922e-18 8.626478e-01
    outer loop
      vertex   6.681818e-02 3.000000e-01 1.056425e-01
      vertex   5.956149e-02 3.000000e-01 1.098974e-01
      vertex   5.956149e-02 1.800000e-01 1.098974e-01
    endloop
  endfacet
  facet normal 5.058051e-01 0.000000e+00 8.626478e-01
    outer loop
      vertex   5.956149e-02 1.200000e-01 1.098974e-01
      vertex   5.956149e-02 -3.414810e-17 1.098974e-01
      vertex   6.681818e-02 3.414810e-17 1.056425e-01
    endloop
  endfacet
  facet normal 4.386431e-01 -1.268487e-16 8.986614e-01
    outer loop
      vertex   5.956149e-02 1.800000e-01 1.098974e-01
      vertex   4.999991e-02 1.800000e-01 1.145644e-01
      vertex   4.999991e-02 1.200000e-01 1.145644e-01
    endloop
  endfacet
  facet normal 2.283919e-01 -2.120533e-16 9.735693e-01
    outer loop
      vertex   4.999991e-02 1.200000e-01 1.145644e-01
      vertex   4.999991e-02 1.800000e-01 1.145644e-01
      vertex   6.164375e-03 6.829620e-17 1.248479e-01
    endloop
  endfacet
  facet normal 2.283919e-01 1.482252e-17 9.735693e-01
    outer loop
      vertex   6.164375e-03 6.829620e-17 1.248479e-01
      vertex   4.999991e-02 -3.414810e-17 1.145644e-01
      vertex   4.999991e-02 1.200000e-01 1.145644e-01
    endloop
  endfacet
  facet normal 2.283919e-01 0.000000e+00 9.735693e-01
    outer loop
      vertex   6.164375e-03 3.000000e-01 1.248479e-01
      vertex   6.164375e-03 6.829620e-17 1.248479e-01
      vertex   4.999991e-02 1.800000e-01 1.145644e-01
    endloop
  endfacet
  facet normal -2.064862e-01 0.000000e+00 9.784495e-01
    outer loop
      vertex   6.164375e-03 6.829620e-17 1.248479e-01
      vertex   6.164375e-03 3.000000e-01 1.248479e-01
      vertex   -5.608634e-02 3.000000e-01 1.117109e-01
    endloop
  endfacet
  facet normal -2.064862e-01 0.000000e+00 9.784495e-01
    outer loop
      vertex   -5.608634e-02 3.000000e-01 1.117109e-01
      vertex   -5.608634e-02 6.829620e-17 1.117109e-01
      vertex   6.164375e-03 6.829620e-17 1.248479e-01
    endloop
  endfacet
  facet normal -6.613501e-01 0.000000e+00 7.500774e-01
    outer loop
      vertex   -5.608634e-02 6.829620e-17 1.117109e-01
      vertex   -5.608634e-02 3.000000e-01 1.117109e-01
      vertex   -1.038076e-01 3.000000e-01 6.963460e-02
    endloop
  endfacet
  facet normal -6.613501e-01 0.000000e+00 7.500774e-01
    outer loop
      vertex   -1.038076e-01 3.000000e-01 6.963460e-02
      vertex   -1.038076e-01 6.829620e-17 6.963460e-02
      vertex   -5.608634e-02 6.829620e-17 1.117109e-01
    endloop
  endfacet
  facet normal -9.448879e-01 0.000000e+00 3.273940e-01
    outer loop
      vertex   -1.038076e-01 6.829620e-17 6.963460e-02
      vertex   -1.038076e-01 3.000000e-01 6.963460e-02
      vertex   -1.246370e-01 3.000000e-01 9.519134e-03
    endloop
  endfacet
  facet normal -9.448879e-01 0.000000e+00 3.273940e-01
    outer loop
      vertex   -1.246370e-01 3.000000e-01 9.519134e-03
      vertex   -1.246370e-01 6.829620e-17 9.519134e-03
      vertex   -1.038076e-01 6.829620e-17 6.963460e-02
    endloop
  endfacet
  facet normal -9.836479e-01 0.000000e+00 -1.801024e-01
    outer loop
      vertex   -1.246370e-01 6.829620e-17 9.519134e-03
      vertex   -1.246370e-01 3.000000e-01 9.519134e-03
      vertex   -1.131786e-01 3.000000e-01 -5.306232e-02
    endloop
  endfacet
  facet normal -9.836479e-01 -0.000000e+00 -1.801024e-01
    outer loop
      vertex   -1.131786e-01 3.000000e-01 -5.306232e-02
      vertex   -1.131786e-01 6.829620e-17 -5.306232e-02
      vertex   -1.246370e-01 6.829620e-17 9.519134e-03
    endloop
  endfacet
  facet normal -7.675890e-01 0.000000e+00 -6.409424e-01
    outer loop
      vertex   -1.131786e-01 6.829620e-17 -5.306232e-02
      vertex   -1.131786e-01 3.000000e-01 -5.306232e-02
      vertex   -7.240067e-02 3.000000e-01 -1.018977e-01
    endloop
  endfacet
  facet normal -7.675890e-01 -0.000000e+00 -6.409424e-01
    outer loop
      vertex   -7.240067e-02 3.000000e-01 -1.018977e-01
      vertex   -7.240067e-02 6.829620e-17 -1.018977e-01
      vertex   -1.131786e-01 6.829620e-17 -5.306232e-02
    endloop
  endfacet
  facet normal -3.526824e-01 0.000000e+00 -9.357431e-01
    outer loop
      vertex   -7.240067e-02 6.829620e-17 -1.018977e-01
      vertex   -7.240067e-02 3.000000e-01 -1.018977e-01
      vertex   -1.286701e-02 3.000000e-01 -1.243360e-01
    endloop
  endfacet
  facet normal -3.526824e-01 -0.000000e+00 -9.357431e-01
    outer loop
      vertex   -1.286701e-02 3.000000e-01 -1.243360e-01
      vertex   -1.286701e-02 6.829620e-17 -1.243360e-01
      vertex   -7.240067e-02 6.829620e-17 -1.018977e-01
    endloop
  endfacet
  facet normal 1.535883e-01 0.000000e+00 -9.881349e-01
    outer loop
      vertex   -1.286701e-02 6.829620e-17 -1.243360e-01
      vertex   -1.286701e-02 3.000000e-01 -1.243360e-01
      vertex   4.999991e-02 3.000000e-01 -1.145644e-01
    endloop
  endfacet
  facet normal 1.535883e-01 1.037352e-16 -9.881349e-01
    outer loop
      vertex   4.999991e-02 3.000000e-01 -1.145644e-01
      vertex   4.999991e-02 0.000000e+00 -1.145644e-01
      vertex   -1.286701e-02 6.829620e-17 -1.243360e-01
    endloop
  endfacet
  facet normal 4.386431e-01 0.000000e+00 8.986614e-01
    outer loop
      vertex   4.999991e-02 1.200000e-01 1.145644e-01
      vertex   5.956149e-02 1.200000e-01 1.098974e-01
      vertex   5.956149e-02 1.800000e-01 1.098974e-01
    endloop
  endfacet
  facet normal 5.058051e-01 0.000000e+00 8.626478e-01
    outer loop
      vertex   6.681818e-02 3.414810e-17 1.056425e-01
      vertex   5.956149e-02 1.800000e-01 1.098974e-01
      vertex   5.956149e-02 1.200000e-01 1.098974e-01
    endloop
  endfacet
  facet normal 5.058051e-01 1.862541e-18 8.626478e-01
    outer loop
      vertex   5.956149e-02 1.800000e-01 1.098974e-01
      vertex   6.681818e-02 3.414810e-17 1.056425e-01
      vertex   6.681818e-02 3.000000e-01 1.056425e-01
    endloop
  endfacet
  facet normal 7.320234e-01 0.000000e+00 6.812795e-01
    outer loop
      vertex   6.681818e-02 3.000000e-01 1.056425e-01
      vertex   6.681818e-02 3.414810e-17 1.056425e-01
      vertex   1.101624e-01 3.414810e-17 5.906982e-02
    endloop
  endfacet
  facet normal 7.320234e-01 -0.000000e+00 6.812795e-01
    outer loop
      vertex   1.101624e-01 3.414810e-17 5.906982e-02
      vertex   1.101624e-01 3.000000e-01 5.906982e-02
      vertex   6.681818e-02 3.000000e-01 1.056425e-01
    endloop
  endfacet
  facet normal 9.725436e-01 0.000000e+00 2.327207e-01
    outer loop
      vertex   1.101624e-01 3.000000e-01 5.906982e-02
      vertex   1.101624e-01 3.414810e-17 5.906982e-02
      vertex   1.249685e-01 3.414810e-17 -2.805159e-03
    endloop
  endfacet
  facet normal 9.725436e-01 -0.000000e+00 2.327207e-01
    outer loop
      vertex   1.249685e-01 3.414810e-17 -2.805159e-03
      vertex   1.249685e-01 3.000000e-01 -2.805159e-03
      vertex   1.101624e-01 3.000000e-01 5.906982e-02
    endloop
  endfacet
  facet normal 9.611216e-01 0.000000e+00 -2.761255e-01
    outer loop
      vertex   1.249685e-01 3.000000e-01 -2.805159e-03
      vertex   1.249685e-01 3.414810e-17 -2.805159e-03
      vertex   1.074009e-01 3.414810e-17 -6.395344e-02
    endloop
  endfacet
  facet normal 9.611216e-01 0.000000e+00 -2.761255e-01
    outer loop
      vertex   1.074009e-01 3.414810e-17 -6.395344e-02
      vertex   1.074009e-01 3.000000e-01 -6.395344e-02
      vertex   1.249685e-01 3.000000e-01 -2.805159e-03
    endloop
  endfacet
  facet normal 7.007162e-01 0.000000e+00 -7.134401e-01
    outer loop
      vertex   1.074009e-01 3.000000e-01 -6.395344e-02
      vertex   1.074009e-01 3.414810e-17 -6.395344e-02
      vertex   6.201057e-02 0.000000e+00 -1.085343e-01
    endloop
  endfacet
  facet normal 7.007162e-01 0.000000e+00 -7.134401e-01
    outer loop
      vertex   6.201057e-02 0.000000e+00 -1.085343e-01
      vertex   6.201057e-02 3.000000e-01 -1.085343e-01
      vertex   1.074009e-01 3.000000e-01 -6.395344e-02
    endloop
  endfacet
  facet normal 0.000000e+00 -1.000000e+00 0.000000e+00
    outer loop
      vertex   2.467575e-01 0.000000e+00 -1.917532e-01
      vertex   3.895585e-01 0.000000e+00 -5.000000e-02
      vertex   3.825135e-01 0.000000e+00 -4.290294e-02
    endloop
  endfacet
  facet normal 0.000000e+00 -1.000000e+00 0.000000e+00
    outer loop
      vertex   3.825135e-01 0.000000e+00 -4.290294e-02
      vertex   2.443398e-01 0.000000e+00 -1.800628e-01
      vertex   2.467575e-01 0.000000e+00 -1.917532e-01
    endloop
  endfacet
  facet normal 0.000000e+00 -1.000000e+00 0.000000e+00
    outer loop
      vertex   4.999991e-02 0.000000e+00 -1.145644e-01
      vertex   2.467575e-01 0.000000e+00 -1.917532e-01
      vertex   2.443398e-01 0.000000e+00 -1.800628e-01
    endloop
  endfacet
  facet normal 0.000000e+00 -1.000000e+00 0.000000e+00
    outer loop
      vertex   5.956149e-02 -3.414810e-17 1.098974e-01
      vertex   7.256607e-02 -3.414810e-17 1.224610e-01
      vertex   6.335745e-02 -3.414810e-17 1.274690e-01
    endloop
  endfacet
  facet normal 0.000000e+00 -1.000000e+00 0.000000e+00
    outer loop
      vertex   6.335745e-02 -3.414810e-17 1.274690e-01
      vertex   4.999991e-02 -3.414810e-17 1.145644e-01
      vertex   5.956149e-02 -3.414810e-17 1.098974e-01
    endloop
  endfacet
  facet normal -9.336603e-16 -1.000000e+00 -1.912818e-15
    outer loop
      vertex   4.999991e-02 -3.414810e-17 1.145644e-01
      vertex   -2.393157e-02 6.829620e-17 9.709418e-02
      vertex   5.956149e-02 -3.414810e-17 1.098974e-01
    endloop
  endfacet
  facet normal -5.660664e-30 -1.000000e+00 -8.001477e-15
    outer loop
      vertex   5.956149e-02 -3.414810e-17 1.098974e-01
      vertex   -2.393157e-02 6.829620e-17 9.709418e-02
      vertex   2.393157e-02 6.829620e-17 9.709418e-02
    endloop
  endfacet
  facet normal 1.793459e-15 -1.000000e+00 -1.299249e-14
    outer loop
      vertex   6.681818e-02 3.414810e-17 1.056425e-01
      vertex   5.956149e-02 -3.414810e-17 1.098974e-01
      vertex   2.393157e-02 6.829620e-17 9.709418e-02
    endloop
  endfacet
  facet normal -5.770794e-16 -1.000000e+00 -1.099533e-15
    outer loop
      vertex   2.393157e-02 6.829620e-17 9.709418e-02
      vertex   6.631227e-02 6.829620e-17 7.485107e-02
      vertex   6.681818e-02 3.414810e-17 1.056425e-01
    endloop
  endfacet
  facet normal -1.170945e-15 -1.000000e+00 -1.089775e-15
    outer loop
      vertex   1.101624e-01 3.414810e-17 5.906982e-02
      vertex   6.681818e-02 3.414810e-17 1.056425e-01
      vertex   6.631227e-02 6.829620e-17 7.485107e-02
    endloop
  endfacet
  facet normal -1.036137e-15 -1.000000e+00 -7.151937e-16
    outer loop
      vertex   6.631227e-02 6.829620e-17 7.485107e-02
      vertex   9.350162e-02 6.829620e-17 3.546049e-02
      vertex   1.101624e-01 3.414810e-17 5.906982e-02
    endloop
  endfacet
  facet normal -1.530599e-15 -1.000000e+00 -3.662583e-16
    outer loop
      vertex   1.249685e-01 3.414810e-17 -2.805159e-03
      vertex   1.101624e-01 3.414810e-17 5.906982e-02
      vertex   9.350162e-02 6.829620e-17 3.546049e-02
    endloop
  endfacet
  facet normal -1.396396e-15 -1.000000e+00 -2.558990e-16
    outer loop
      vertex   9.350162e-02 6.829620e-17 3.546049e-02
      vertex   1.000000e-01 6.829620e-17 -3.061617e-17
      vertex   1.249685e-01 3.414810e-17 -2.805159e-03
    endloop
  endfacet
  facet normal -1.358415e-15 -1.000000e+00 8.216895e-17
    outer loop
      vertex   1.000000e-01 6.829620e-17 -3.061617e-17
      vertex   9.927089e-02 6.829620e-17 -1.205367e-02
      vertex   1.249685e-01 3.414810e-17 -2.805159e-03
    endloop
  endfacet
  facet normal -1.482085e-15 -1.000000e+00 4.257958e-16
    outer loop
      vertex   1.074009e-01 3.414810e-17 -6.395344e-02
      vertex   1.249685e-01 3.414810e-17 -2.805159e-03
      vertex   9.927089e-02 6.829620e-17 -1.205367e-02
    endloop
  endfacet
  facet normal -1.227774e-15 -1.000000e+00 4.656332e-16
    outer loop
      vertex   9.927089e-02 6.829620e-17 -1.205367e-02
      vertex   8.229839e-02 6.829620e-17 -5.680647e-02
      vertex   1.074009e-01 3.414810e-17 -6.395344e-02
    endloop
  endfacet
  facet normal -8.855556e-16 -1.000000e+00 1.667618e-15
    outer loop
      vertex   8.229839e-02 6.829620e-17 -5.680647e-02
      vertex   6.201057e-02 0.000000e+00 -1.085343e-01
      vertex   1.074009e-01 3.414810e-17 -6.395344e-02
    endloop
  endfacet
  facet normal -1.792513e-15 -1.000000e+00 2.023329e-15
    outer loop
      vertex   6.201057e-02 0.000000e+00 -1.085343e-01
      vertex   8.229839e-02 6.829620e-17 -5.680647e-02
      vertex   4.647232e-02 6.829620e-17 -8.854560e-02
    endloop
  endfacet
  facet normal 0.000000e+00 -1.000000e+00 0.000000e+00
    outer loop
      vertex   2.443398e-01 0.000000e+00 -1.800628e-01
      vertex   6.201057e-02 0.000000e+00 -1.085343e-01
      vertex   4.999991e-02 0.000000e+00 -1.145644e-01
    endloop
  endfacet
  facet normal -1.233874e-15 -1.000000e+00 2.457589e-15
    outer loop
      vertex   4.999991e-02 0.000000e+00 -1.145644e-01
      vertex   6.201057e-02 0.000000e+00 -1.085343e-01
      vertex   4.647232e-02 6.829620e-17 -8.854560e-02
    endloop
  endfacet
  facet normal -1.463512e-15 -1.000000e+00 2.426455e-15
    outer loop
      vertex   -1.286701e-02 6.829620e-17 -1.243360e-01
      vertex   4.999991e-02 0.000000e+00 -1.145644e-01
      vertex   4.647232e-02 6.829620e-17 -8.854560e-02
    endloop
  endfacet
  facet normal 0.000000e+00 -1.000000e+00 0.000000e+00
    outer loop
      vertex   4.647232e-02 6.829620e-17 -8.854560e-02
      vertex   0.000000e+00 6.829620e-17 -1.000000e-01
      vertex   -1.286701e-02 6.829620e-17 -1.243360e-01
    endloop
  endfacet
  facet normal 0.000000e+00 -1.000000e+00 0.000000e+00
    outer loop
      vertex   -7.240067e-02 6.829620e-17 -1.018977e-01
      vertex   -1.286701e-02 6.829620e-17 -1.243360e-01
      vertex   0.000000e+00 6.829620e-17 -1.000000e-01
    endloop
  endfacet
  facet normal -0.000000e+00 -1.000000e+00 0.000000e+00
    outer loop
      vertex   0.000000e+00 6.829620e-17 -1.000000e-01
      vertex   -4.647232e-02 6.829620e-17 -8.854560e-02
      vertex   -7.240067e-02 6.829620e-17 -1.018977e-01
    endloop
  endfacet
  facet normal 0.000000e+00 -1.000000e+00 0.000000e+00
    outer loop
      vertex   -1.131786e-01 6.829620e-17 -5.306232e-02
      vertex   -7.240067e-02 6.829620e-17 -1.018977e-01
      vertex   -4.647232e-02 6.829620e-17 -8.854560e-02
    endloop
  endfacet
  facet normal 0.000000e+00 -1.000000e+00 0.000000e+00
    outer loop
      vertex   -4.647232e-02 6.829620e-17 -8.854560e-02
      vertex   -8.229839e-02 6.829620e-17 -5.680647e-02
      vertex   -1.131786e-01 6.829620e-17 -5.306232e-02
    endloop
  endfacet
  facet normal 0.000000e+00 -1.000000e+00 0.000000e+00
    outer loop
      vertex   -1.246370e-01 6.829620e-17 9.519134e-03
      vertex   -1.131786e-01 6.829620e-17 -5.306232e-02
      vertex   -8.229839e-02 6.829620e-17 -5.680647e-02
    endloop
  endfacet
  facet normal 0.000000e+00 -1.000000e+00 0.000000e+00
    outer loop
      vertex   -8.229839e-02 6.829620e-17 -5.680647e-02
      vertex   -9.927089e-02 6.829620e-17 -1.205367e-02
      vertex   -1.246370e-01 6.829620e-17 9.519134e-03
    endloop
  endfacet
  facet normal 0.000000e+00 -1.000000e+00 -0.000000e+00
    outer loop
      vertex   -1.038076e-01 6.829620e-17 6.963460e-02
      vertex   -1.246370e-01 6.829620e-17 9.519134e-03
      vertex   -9.927089e-02 6.829620e-17 -1.205367e-02
    endloop
  endfacet
  facet normal -1.863068e-15 -1.000000e+00 2.020298e-15
    outer loop
      vertex   -2.393157e-02 6.829620e-17 9.709418e-02
      vertex   4.999991e-02 -3.414810e-17 1.145644e-01
      vertex   6.164375e-03 6.829620e-17 1.248479e-01
    endloop
  endfacet
  facet normal 0.000000e+00 -1.000000e+00 0.000000e+00
    outer loop
      vertex   6.164375e-03 6.829620e-17 1.248479e-01
      vertex   -5.608634e-02 6.829620e-17 1.117109e-01
      vertex   -2.393157e-02 6.829620e-17 9.709418e-02
    endloop
  endfacet
  facet normal 0.000000e+00 -1.000000e+00 0.000000e+00
    outer loop
      vertex   -6.631227e-02 6.829620e-17 7.485107e-02
      vertex   -2.393157e-02 6.829620e-17 9.709418e-02
      vertex   -5.608634e-02 6.829620e-17 1.117109e-01
    endloop
  endfacet
  facet normal 0.000000e+00 -1.000000e+00 0.000000e+00
    outer loop
      vertex   -5.608634e-02 6.829620e-17 1.117109e-01
      vertex   -1.038076e-01 6.829620e-17 6.963460e-02
      vertex   -6.631227e-02 6.829620e-17 7.485107e-02
    endloop
  endfacet
  facet normal 0.000000e+00 -1.000000e+00 0.000000e+00
    outer loop
      vertex   -1.038076e-01 6.829620e-17 6.963460e-02
      vertex   -9.350162e-02 6.829620e-17 3.546049e-02
      vertex   -6.631227e-02 6.829620e-17 7.485107e-02
    endloop
  endfacet
  facet normal 0.000000e+00 -1.000000e+00 0.000000e+00
    outer loop
      vertex   -9.927089e-02 6.829620e-17 -1.205367e-02
      vertex   -9.350162e-02 6.829620e-17 3.546049e-02
      vertex   -1.038076e-01 6.829620e-17 6.963460e-02
    endloop
  endfacet
  facet normal -4.777629e-01 9.383378e-17 -8.784888e-01
    outer loop
      vertex   6.335745e-02 -3.414810e-17 1.274690e-01
      vertex   7.256607e-02 -3.414810e-17 1.224610e-01
      vertex   7.256607e-02 -1.800000e-01 1.224610e-01
    endloop
  endfacet
  facet normal -4.777629e-01 0.000000e+00 -8.784888e-01
    outer loop
      vertex   7.256607e-02 -1.800000e-01 1.224610e-01
      vertex   6.335745e-02 -1.800000e-01 1.274690e-01
      vertex   6.335745e-02 -3.414810e-17 1.274690e-01
    endloop
  endfacet
  facet normal 6.948084e-01 1.403446e-17 -7.191949e-01
    outer loop
      vertex   7.256607e-02 -3.414810e-17 1.224610e-01
      vertex   5.956149e-02 -3.414810e-17 1.098974e-01
      vertex   5.956149e-02 1.200000e-01 1.098974e-01
    endloop
  endfacet
  facet normal 6.948084e-01 4.210337e-17 -7.191949e-01
    outer loop
      vertex   5.956149e-02 1.200000e-01 1.098974e-01
      vertex   2.482434e-01 1.200000e-01 2.921815e-01
      vertex   7.256607e-02 -3.414810e-17 1.224610e-01
    endloop
  endfacet
  facet normal 6.948084e-01 -1.318133e-16 -7.191949e-01
    outer loop
      vertex   7.256607e-02 -1.800000e-01 1.224610e-01
      vertex   7.256607e-02 -3.414810e-17 1.224610e-01
      vertex   2.482434e-01 1.200000e-01 2.921815e-01
    endloop
  endfacet
  facet normal 6.948084e-01 0.000000e+00 -7.191949e-01
    outer loop
      vertex   2.482434e-01 1.200000e-01 2.921815e-01
      vertex   2.482434e-01 -1.800000e-01 2.921815e-01
      vertex   7.256607e-02 -1.800000e-01 1.224610e-01
    endloop
  endfacet
  facet normal -6.948084e-01 0.000000e+00 7.191949e-01
    outer loop
      vertex   6.335745e-02 -3.414810e-17 1.274690e-01
      vertex   6.335745e-02 -1.800000e-01 1.274690e-01
      vertex   2.467575e-01 -1.800000e-01 3.046503e-01
    endloop
  endfacet
  facet normal -6.948084e-01 0.000000e+00 7.191949e-01
    outer loop
      vertex   2.467575e-01 -1.800000e-01 3.046503e-01
      vertex   2.467575e-01 1.200000e-01 3.046503e-01
      vertex   6.335745e-02 -3.414810e-17 1.274690e-01
    endloop
  endfacet
  facet normal -6.948084e-01 -3.731277e-15 7.191949e-01
    outer loop
      vertex   4.999991e-02 -3.414810e-17 1.145644e-01
      vertex   6.335745e-02 -3.414810e-17 1.274690e-01
      vertex   2.467575e-01 1.200000e-01 3.046503e-01
    endloop
  endfacet
  facet normal -6.948084e-01 -1.381955e-16 7.191949e-01
    outer loop
      vertex   2.467575e-01 1.200000e-01 3.046503e-01
      vertex   4.999991e-02 1.200000e-01 1.145644e-01
      vertex   4.999991e-02 -3.414810e-17 1.145644e-01
    endloop
  endfacet
  facet normal 0.000000e+00 -1.000000e+00 0.000000e+00
    outer loop
      vertex   2.482434e-01 -1.800000e-01 2.921815e-01
      vertex   4.269955e-01 -1.800000e-01 1.872261e-01
      vertex   4.320588e-01 -1.800000e-01 1.958496e-01
    endloop
  endfacet
  facet normal 0.000000e+00 -1.000000e+00 0.000000e+00
    outer loop
      vertex   4.320588e-01 -1.800000e-01 1.958496e-01
      vertex   2.467575e-01 -1.800000e-01 3.046503e-01
      vertex   2.482434e-01 -1.800000e-01 2.921815e-01
    endloop
  endfacet
  facet normal 0.000000e+00 -1.000000e+00 0.000000e+00
    outer loop
      vertex   7.256607e-02 -1.800000e-01 1.224610e-01
      vertex   2.482434e-01 -1.800000e-01 2.921815e-01
      vertex   2.467575e-01 -1.800000e-01 3.046503e-01
    endloop
  endfacet
  facet normal 0.000000e+00 -1.000000e+00 0.000000e+00
    outer loop
      vertex   2.467575e-01 -1.800000e-01 3.046503e-01
      vertex   6.335745e-02 -1.800000e-01 1.274690e-01
      vertex   7.256607e-02 -1.800000e-01 1.224610e-01
    endloop
  endfacet
  facet normal 1.155946e-15 1.000000e+00 -1.290185e-15
    outer loop
      vertex   2.482434e-01 1.200000e-01 2.921815e-01
      vertex   5.956149e-02 1.200000e-01 1.098974e-01
      vertex   4.999991e-02 1.200000e-01 1.145644e-01
    endloop
  endfacet
  facet normal 0.000000e+00 1.000000e+00 0.000000e+00
    outer loop
      vertex   4.999991e-02 1.200000e-01 1.145644e-01
      vertex   2.467575e-01 1.200000e-01 3.046503e-01
      vertex   2.482434e-01 1.200000e-01 2.921815e-01
    endloop
  endfacet
  facet normal 0.000000e+00 1.000000e+00 0.000000e+00
    outer loop
      vertex   4.269955e-01 1.200000e-01 1.872261e-01
      vertex   2.482434e-01 1.200000e-01 2.921815e-01
      vertex   2.467575e-01 1.200000e-01 3.046503e-01
    endloop
  endfacet
  facet normal 0.000000e+00 1.000000e+00 0.000000e+00
    outer loop
      vertex   2.467575e-01 1.200000e-01 3.046503e-01
      vertex   4.320588e-01 1.200000e-01 1.958496e-01
      vertex   4.269955e-01 1.200000e-01 1.872261e-01
    endloop
  endfacet
  facet normal 5.063284e-01 0.000000e+00 8.623407e-01
    outer loop
      vertex   2.467575e-01 1.200000e-01 3.046503e-01
      vertex   2.467575e-01 -1.800000e-01 3.046503e-01
      vertex   4.320588e-01 -1.800000e-01 1.958496e-01
    endloop
  endfacet
  facet normal 5.063284e-01 -0.000000e+00 8.623407e-01
    outer loop
      vertex   4.320588e-01 -1.800000e-01 1.958496e-01
      vertex   4.320588e-01 1.200000e-01 1.958496e-01
      vertex   2.467575e-01 1.200000e-01 3.046503e-01
    endloop
  endfacet
  facet normal 8.623407e-01 0.000000e+00 -5.063284e-01
    outer loop
      vertex   4.320588e-01 1.200000e-01 1.958496e-01
      vertex   4.320588e-01 -1.800000e-01 1.958496e-01
      vertex   4.269955e-01 -1.800000e-01 1.872261e-01
    endloop
  endfacet
  facet normal 8.623407e-01 0.000000e+00 -5.063284e-01
    outer loop
      vertex   4.269955e-01 -1.800000e-01 1.872261e-01
      vertex   4.269955e-01 1.200000e-01 1.872261e-01
      vertex   4.320588e-01 1.200000e-01 1.958496e-01
    endloop
  endfacet
  facet normal -5.063284e-01 -0.000000e+00 -8.623407e-01
    outer loop
      vertex   4.269955e-01 1.200000e-01 1.872261e-01
      vertex   4.269955e-01 -1.800000e-01 1.872261e-01
      vertex   2.482434e-01 -1.800000e-01 2.921815e-01
    endloop
  endfacet
  facet normal -5.063284e-01 0.000000e+00 -8.623407e-01
    outer loop
      vertex   2.482434e-01 -1.800000e-01 2.921815e-01
      vertex   2.482434e-01 1.200000e-01 2.921815e-01
      vertex   4.269955e-01 1.200000e-01 1.872261e-01
    endloop
  endfacet
endsolid
