solid ascii
  facet normal 1.000000e+00 0.000000e+00 0.000000e+00
    outer loop
      vertex   2.009843e-01 1.303150e-01 3.989745e-17
      vertex   2.009843e-01 1.293648e-01 1.570773e-02
      vertex   2.009843e-01 0.000000e+00 0.000000e+00
    endloop
  endfacet
  facet normal 1.000000e+00 0.000000e+00 -0.000000e+00
    outer loop
      vertex   2.009843e-01 1.218466e-01 -4.621032e-02
      vertex   2.009843e-01 1.303150e-01 3.989745e-17
      vertex   2.009843e-01 0.000000e+00 0.000000e+00
    endloop
  endfacet
  facet normal 1.000000e+00 0.000000e+00 0.000000e+00
    outer loop
      vertex   2.009843e-01 -3.118641e-02 -1.265282e-01
      vertex   2.009843e-01 3.118641e-02 -1.265282e-01
      vertex   2.009843e-01 0.000000e+00 0.000000e+00
    endloop
  endfacet
  facet normal 1.000000e+00 0.000000e+00 -0.000000e+00
    outer loop
      vertex   2.009843e-01 3.118641e-02 -1.265282e-01
      vertex   2.009843e-01 8.641480e-02 -9.754215e-02
      vertex   2.009843e-01 0.000000e+00 0.000000e+00
    endloop
  endfacet
  facet normal 1.000000e+00 0.000000e+00 -0.000000e+00
    outer loop
      vertex   2.009843e-01 8.641480e-02 -9.754215e-02
      vertex   2.009843e-01 1.218466e-01 -4.621032e-02
      vertex   2.009843e-01 0.000000e+00 0.000000e+00
    endloop
  endfacet
  facet normal 1.000000e+00 0.000000e+00 0.000000e+00
    outer loop
      vertex   2.009843e-01 -1.293648e-01 1.570773e-02
      vertex   2.009843e-01 -1.218466e-01 -4.621032e-02
      vertex   2.009843e-01 0.000000e+00 0.000000e+00
    endloop
  endfacet
  facet normal 1.000000e+00 -0.000000e+00 0.000000e+00
    outer loop
      vertex   2.009843e-01 -1.218466e-01 -4.621032e-02
      vertex   2.009843e-01 -8.641480e-02 -9.754215e-02
      vertex   2.009843e-01 0.000000e+00 0.000000e+00
    endloop
  endfacet
  facet normal 1.000000e+00 -0.000000e+00 0.000000e+00
    outer loop
      vertex   2.009843e-01 -8.641480e-02 -9.754215e-02
      vertex   2.009843e-01 -3.118641e-02 -1.265282e-01
      vertex   2.009843e-01 0.000000e+00 0.000000e+00
    endloop
  endfacet
  facet normal 1.000000e+00 0.000000e+00 0.000000e+00
    outer loop
      vertex   2.009843e-01 -3.191796e-17 1.303150e-01
      vertex   2.009843e-01 -6.056038e-02 1.153882e-01
      vertex   2.009843e-01 0.000000e+00 0.000000e+00
    endloop
  endfacet
  facet normal 1.000000e+00 0.000000e+00 0.000000e+00
    outer loop
      vertex   2.009843e-01 -6.056038e-02 1.153882e-01
      vertex   2.009843e-01 -1.072471e-01 7.402734e-02
      vertex   2.009843e-01 0.000000e+00 0.000000e+00
    endloop
  endfacet
  facet normal 1.000000e+00 0.000000e+00 0.000000e+00
    outer loop
      vertex   2.009843e-01 -1.072471e-01 7.402734e-02
      vertex   2.009843e-01 -1.293648e-01 1.570773e-02
      vertex   2.009843e-01 0.000000e+00 0.000000e+00
    endloop
  endfacet
  facet normal 1.000000e+00 0.000000e+00 0.000000e+00
    outer loop
      vertex   2.009843e-01 0.000000e+00 0.000000e+00
      vertex   2.009843e-01 1.293648e-01 1.570773e-02
      vertex   2.009843e-01 1.072471e-01 7.402734e-02
    endloop
  endfacet
  facet normal 1.000000e+00 0.000000e+00 0.000000e+00
    outer loop
      vertex   2.009843e-01 1.072471e-01 7.402734e-02
      vertex   2.009843e-01 6.056038e-02 1.153882e-01
      vertex   2.009843e-01 0.000000e+00 0.000000e+00
    endloop
  endfacet
  facet normal 1.000000e+00 0.000000e+00 0.000000e+00
    outer loop
      vertex   2.009843e-01 6.056038e-02 1.153882e-01
      vertex   2.009843e-01 -3.191796e-17 1.303150e-01
      vertex   2.009843e-01 0.000000e+00 0.000000e+00
    endloop
  endfacet
  facet normal -4.774144e-18 9.981756e-01 6.037850e-02
    outer loop
      vertex   2.009843e-01 1.293648e-01 1.570773e-02
      vertex   2.009843e-01 1.303150e-01 3.989745e-17
      vertex   -2.009843e-01 1.303150e-01 7.979490e-18
    endloop
  endfacet
  facet normal 1.746531e-17 9.836199e-01 -1.802550e-01
    outer loop
      vertex   -2.009843e-01 1.218466e-01 -4.621032e-02
      vertex   -2.009843e-01 1.303150e-01 7.979490e-18
      vertex   2.009843e-01 1.303150e-01 3.989745e-17
    endloop
  endfacet
  facet normal 3.493062e-18 9.836199e-01 -1.802550e-01
    outer loop
      vertex   2.009843e-01 1.303150e-01 3.989745e-17
      vertex   2.009843e-01 1.218466e-01 -4.621032e-02
      vertex   -2.009843e-01 1.218466e-01 -4.621032e-02
    endloop
  endfacet
  facet normal 0.000000e+00 8.229839e-01 -5.680647e-01
    outer loop
      vertex   -2.009843e-01 1.218466e-01 -4.621032e-02
      vertex   2.009843e-01 1.218466e-01 -4.621032e-02
      vertex   2.009843e-01 8.641480e-02 -9.754215e-02
    endloop
  endfacet
  facet normal 0.000000e+00 8.229839e-01 -5.680647e-01
    outer loop
      vertex   2.009843e-01 8.641480e-02 -9.754215e-02
      vertex   -2.009843e-01 8.641480e-02 -9.754215e-02
      vertex   -2.009843e-01 1.218466e-01 -4.621032e-02
    endloop
  endfacet
  facet normal 0.000000e+00 4.647232e-01 -8.854560e-01
    outer loop
      vertex   -2.009843e-01 8.641480e-02 -9.754215e-02
      vertex   2.009843e-01 8.641480e-02 -9.754215e-02
      vertex   2.009843e-01 3.118641e-02 -1.265282e-01
    endloop
  endfacet
  facet normal 0.000000e+00 4.647232e-01 -8.854560e-01
    outer loop
      vertex   2.009843e-01 3.118641e-02 -1.265282e-01
      vertex   -2.009843e-01 3.118641e-02 -1.265282e-01
      vertex   -2.009843e-01 8.641480e-02 -9.754215e-02
    endloop
  endfacet
  facet normal 0.000000e+00 5.474836e-16 -1.000000e+00
    outer loop
      vertex   -2.009843e-01 3.118641e-02 -1.265282e-01
      vertex   2.009843e-01 3.118641e-02 -1.265282e-01
      vertex   2.009843e-01 -3.118641e-02 -1.265282e-01
    endloop
  endfacet
  facet normal 0.000000e+00 5.474836e-16 -1.000000e+00
    outer loop
      vertex   2.009843e-01 -3.118641e-02 -1.265282e-01
      vertex   -2.009843e-01 -3.118641e-02 -1.265282e-01
      vertex   -2.009843e-01 3.118641e-02 -1.265282e-01
    endloop
  endfacet
  facet normal 0.000000e+00 -4.647232e-01 -8.854560e-01
    outer loop
      vertex   -2.009843e-01 -3.118641e-02 -1.265282e-01
      vertex   2.009843e-01 -3.118641e-02 -1.265282e-01
      vertex   2.009843e-01 -8.641480e-02 -9.754215e-02
    endloop
  endfacet
  facet normal -0.000000e+00 -4.647232e-01 -8.854560e-01
    outer loop
      vertex   2.009843e-01 -8.641480e-02 -9.754215e-02
      vertex   -2.009843e-01 -8.641480e-02 -9.754215e-02
      vertex   -2.009843e-01 -3.118641e-02 -1.265282e-01
    endloop
  endfacet
  facet normal 0.000000e+00 -8.229839e-01 -5.680647e-01
    outer loop
      vertex   -2.009843e-01 -8.641480e-02 -9.754215e-02
      vertex   2.009843e-01 -8.641480e-02 -9.754215e-02
      vertex   2.009843e-01 -1.218466e-01 -4.621032e-02
    endloop
  endfacet
  facet normal -0.000000e+00 -8.229839e-01 -5.680647e-01
    outer loop
      vertex   2.009843e-01 -1.218466e-01 -4.621032e-02
      vertex   -2.009843e-01 -1.218466e-01 -4.621032e-02
      vertex   -2.009843e-01 -8.641480e-02 -9.754215e-02
    endloop
  endfacet
  facet normal 0.000000e+00 -9.927089e-01 -1.205367e-01
    outer loop
      vertex   -2.009843e-01 -1.218466e-01 -4.621032e-02
      vertex   2.009843e-01 -1.218466e-01 -4.621032e-02
      vertex   2.009843e-01 -1.293648e-01 1.570773e-02
    endloop
  endfacet
  facet normal -0.000000e+00 -9.927089e-01 -1.205367e-01
    outer loop
      vertex   2.009843e-01 -1.293648e-01 1.570773e-02
      vertex   -2.009843e-01 -1.293648e-01 1.570773e-02
      vertex   -2.009843e-01 -1.218466e-01 -4.621032e-02
    endloop
  endfacet
  facet normal 0.000000e+00 -9.350162e-01 3.546049e-01
    outer loop
      vertex   -2.009843e-01 -1.293648e-01 1.570773e-02
      vertex   2.009843e-01 -1.293648e-01 1.570773e-02
      vertex   2.009843e-01 -1.072471e-01 7.402734e-02
    endloop
  endfacet
  facet normal 0.000000e+00 -9.350162e-01 3.546049e-01
    outer loop
      vertex   2.009843e-01 -1.072471e-01 7.402734e-02
      vertex   -2.009843e-01 -1.072471e-01 7.402734e-02
      vertex   -2.009843e-01 -1.293648e-01 1.570773e-02
    endloop
  endfacet
  facet normal 0.000000e+00 -6.631227e-01 7.485107e-01
    outer loop
      vertex   -2.009843e-01 -1.072471e-01 7.402734e-02
      vertex   2.009843e-01 -1.072471e-01 7.402734e-02
      vertex   2.009843e-01 -6.056038e-02 1.153882e-01
    endloop
  endfacet
  facet normal 0.000000e+00 -6.631227e-01 7.485107e-01
    outer loop
      vertex   2.009843e-01 -6.056038e-02 1.153882e-01
      vertex   -2.009843e-01 -6.056038e-02 1.153882e-01
      vertex   -2.009843e-01 -1.072471e-01 7.402734e-02
    endloop
  endfacet
  facet normal 0.000000e+00 -2.393157e-01 9.709418e-01
    outer loop
      vertex   -2.009843e-01 -6.056038e-02 1.153882e-01
      vertex   2.009843e-01 -6.056038e-02 1.153882e-01
      vertex   2.009843e-01 -3.191796e-17 1.303150e-01
    endloop
  endfacet
  facet normal 0.000000e+00 -2.393157e-01 9.709418e-01
    outer loop
      vertex   2.009843e-01 -3.191796e-17 1.303150e-01
      vertex   -2.009843e-01 -3.191796e-17 1.303150e-01
      vertex   -2.009843e-01 -6.056038e-02 1.153882e-01
    endloop
  endfacet
  facet normal -0.000000e+00 2.393157e-01 9.709418e-01
    outer loop
      vertex   -2.009843e-01 -3.191796e-17 1.303150e-01
      vertex   2.009843e-01 -3.191796e-17 1.303150e-01
      vertex   2.009843e-01 6.056038e-02 1.153882e-01
    endloop
  endfacet
  facet normal 0.000000e+00 2.393157e-01 9.709418e-01
    outer loop
      vertex   2.009843e-01 6.056038e-02 1.153882e-01
      vertex   -2.009843e-01 6.056038e-02 1.153882e-01
      vertex   -2.009843e-01 -3.191796e-17 1.303150e-01
    endloop
  endfacet
  facet normal -0.000000e+00 6.631227e-01 7.485107e-01
    outer loop
      vertex   -2.009843e-01 6.056038e-02 1.153882e-01
      vertex   2.009843e-01 6.056038e-02 1.153882e-01
      vertex   2.009843e-01 1.072471e-01 7.402734e-02
    endloop
  endfacet
  facet normal 0.000000e+00 6.631227e-01 7.485107e-01
    outer loop
      vertex   2.009843e-01 1.072471e-01 7.402734e-02
      vertex   -2.009843e-01 1.072471e-01 7.402734e-02
      vertex   -2.009843e-01 6.056038e-02 1.153882e-01
    endloop
  endfacet
  facet normal -0.000000e+00 9.350162e-01 3.546049e-01
    outer loop
      vertex   -2.009843e-01 1.072471e-01 7.402734e-02
      vertex   2.009843e-01 1.072471e-01 7.402734e-02
      vertex   2.009843e-01 1.293648e-01 1.570773e-02
    endloop
  endfacet
  facet normal 0.000000e+00 9.350162e-01 3.546049e-01
    outer loop
      vertex   2.009843e-01 1.293648e-01 1.570773e-02
      vertex   -2.009843e-01 1.293648e-01 1.570773e-02
      vertex   -2.009843e-01 1.072471e-01 7.402734e-02
    endloop
  endfacet
  facet normal 0.000000e+00 9.981756e-01 6.037850e-02
    outer loop
      vertex   -2.009843e-01 1.303150e-01 7.979490e-18
      vertex   -2.009843e-01 1.293648e-01 1.570773e-02
      vertex   2.009843e-01 1.293648e-01 1.570773e-02
    endloop
  endfacet
  facet normal -1.000000e+00 0.000000e+00 0.000000e+00
    outer loop
      vertex   -2.009843e-01 1.303150e-01 7.979490e-18
      vertex   -2.009843e-01 1.218466e-01 -4.621032e-02
      vertex   -2.009843e-01 0.000000e+00 0.000000e+00
    endloop
  endfacet
  facet normal -1.000000e+00 0.000000e+00 -0.000000e+00
    outer loop
      vertex   -2.009843e-01 1.293648e-01 1.570773e-02
      vertex   -2.009843e-01 1.303150e-01 7.979490e-18
      vertex   -2.009843e-01 0.000000e+00 0.000000e+00
    endloop
  endfacet
  facet normal -1.000000e+00 0.000000e+00 0.000000e+00
    outer loop
      vertex   -2.009843e-01 -3.191796e-17 1.303150e-01
      vertex   -2.009843e-01 6.056038e-02 1.153882e-01
      vertex   -2.009843e-01 0.000000e+00 0.000000e+00
    endloop
  endfacet
  facet normal -1.000000e+00 0.000000e+00 -0.000000e+00
    outer loop
      vertex   -2.009843e-01 6.056038e-02 1.153882e-01
      vertex   -2.009843e-01 1.072471e-01 7.402734e-02
      vertex   -2.009843e-01 0.000000e+00 0.000000e+00
    endloop
  endfacet
  facet normal -1.000000e+00 0.000000e+00 -0.000000e+00
    outer loop
      vertex   -2.009843e-01 1.072471e-01 7.402734e-02
      vertex   -2.009843e-01 1.293648e-01 1.570773e-02
      vertex   -2.009843e-01 0.000000e+00 0.000000e+00
    endloop
  endfacet
  facet normal -1.000000e+00 0.000000e+00 0.000000e+00
    outer loop
      vertex   -2.009843e-01 -1.293648e-01 1.570773e-02
      vertex   -2.009843e-01 -1.072471e-01 7.402734e-02
      vertex   -2.009843e-01 0.000000e+00 0.000000e+00
    endloop
  endfacet
  facet normal -1.000000e+00 0.000000e+00 0.000000e+00
    outer loop
      vertex   -2.009843e-01 -1.072471e-01 7.402734e-02
      vertex   -2.009843e-01 -6.056038e-02 1.153882e-01
      vertex   -2.009843e-01 0.000000e+00 0.000000e+00
    endloop
  endfacet
  facet normal -1.000000e+00 0.000000e+00 0.000000e+00
    outer loop
      vertex   -2.009843e-01 -6.056038e-02 1.153882e-01
      vertex   -2.009843e-01 -3.191796e-17 1.303150e-01
      vertex   -2.009843e-01 0.000000e+00 0.000000e+00
    endloop
  endfacet
  facet normal -1.000000e+00 0.000000e+00 0.000000e+00
    outer loop
      vertex   -2.009843e-01 -3.118641e-02 -1.265282e-01
      vertex   -2.009843e-01 -8.641480e-02 -9.754215e-02
      vertex   -2.009843e-01 0.000000e+00 0.000000e+00
    endloop
  endfacet
  facet normal -1.000000e+00 0.000000e+00 0.000000e+00
    outer loop
      vertex   -2.009843e-01 -8.641480e-02 -9.754215e-02
      vertex   -2.009843e-01 -1.218466e-01 -4.621032e-02
      vertex   -2.009843e-01 0.000000e+00 0.000000e+00
    endloop
  endfacet
  facet normal -1.000000e+00 0.000000e+00 0.000000e+00
    outer loop
      vertex   -2.009843e-01 -1.218466e-01 -4.621032e-02
      vertex   -2.009843e-01 -1.293648e-01 1.570773e-02
      vertex   -2.009843e-01 0.000000e+00 0.000000e+00
    endloop
  endfacet
  facet normal -1.000000e+00 0.000000e+00 0.000000e+00
    outer loop
      vertex   -2.009843e-01 0.000000e+00 0.000000e+00
      vertex   -2.009843e-01 1.218466e-01 -4.621032e-02
      vertex   -2.009843e-01 8.641480e-02 -9.754215e-02
    endloop
  endfacet
  facet normal -1.000000e+00 -0.000000e+00 0.000000e+00
    outer loop
      vertex   -2.009843e-01 8.641480e-02 -9.754215e-02
      vertex   -2.009843e-01 3.118641e-02 -1.265282e-01
      vertex   -2.009843e-01 0.000000e+00 0.000000e+00
    endloop
  endfacet
  facet normal -1.000000e+00 -0.000000e+00 0.000000e+00
    outer loop
      vertex   -2.009843e-01 3.118641e-02 -1.265282e-01
      vertex   -2.009843e-01 -3.118641e-02 -1.265282e-01
      vertex   -2.009843e-01 0.000000e+00 0.000000e+00
    endloop
  endfacet
endsolid
